<svg xmlns="http://www.w3.org/2000/svg" viewBox="75 232 685 130" xml:space="preserve" shape-rendering="geometricPrecision" text-rendering="geometricPrecision">
  <path fill="#FFFFFF" d="M171.68,236.94c2.18,2.45,3.55,3.99,5.73,6.43l-17.63,16.91l-4.25-1.29c-21.89-6.01-40.54-0.41-55.43,16.67c-13.12,15.06-16.23,39.42-7.31,55.04c0,0,10.5,27.08,44.25,31.45c34.88,3.48,69.87-33.83,50.59-76.69c5.2-5.52,10.23-10.87,15.42-16.38c1.73,1.56,3.35,3.03,5.09,4.61c1.9-1.73,3.56-3.24,5.16-4.69c-12.47-12.2-24.5-23.96-36.91-36.1C175.2,233.92,173.43,235.44,171.68,236.94z M166.2,319.24l-37.24,21.5c-4.52,2.61-10.16-0.65-10.16-5.87v-43c0-5.22,5.65-8.47,10.16-5.87l37.24,21.5C170.72,310.11,170.72,316.63,166.2,319.24z M170.15,288.85l-11.06-6.99l-11.06,6.99l6.99-11.06l-6.99-11.06l11.06,6.99l11.06-6.99l-6.99,11.06L170.15,288.85z M187.83,260.09l-3.76,5.94l3.76,5.94l-5.94-3.76l-5.94,3.76l3.76-5.94l-3.76-5.94l5.94,3.76L187.83,260.09z"/>
  <path fill="#FFFFFF" d="M274.74,317.85c-1.58-1.49-3.39-2.79-5.42-3.91c-2.04-1.11-4.19-2.01-6.45-2.67c-2.26-0.67-4.52-1.28-6.76-1.83c-2.25-0.55-4.39-1.11-6.43-1.7c-2.04-0.58-3.85-1.23-5.42-1.95c-1.58-0.72-2.83-1.67-3.75-2.85c-0.93-1.18-1.39-2.6-1.39-4.24c0-2.71,1.14-4.89,3.42-6.56c2.28-1.66,5.29-2.49,9.02-2.49c3.94,0,7.13,1.07,9.56,3.21c2.43,2.14,3.7,4.89,3.8,8.25h12.65c0-3.15-0.55-6.11-1.65-8.87c-1.1-2.76-2.68-5.21-4.76-7.35c-2.07-2.14-4.76-3.83-8.07-5.06c-3.31-1.23-7.02-1.85-11.13-1.85c-7.23,0-13.2,1.95-17.89,5.86c-4.7,3.91-7.04,8.89-7.04,14.96c0,2.88,0.46,5.44,1.39,7.69c0.93,2.25,2.17,4.07,3.73,5.48c1.56,1.41,3.36,2.64,5.4,3.7c2.04,1.06,4.18,1.92,6.43,2.57c2.24,0.65,4.49,1.27,6.74,1.85c2.24,0.58,4.39,1.18,6.43,1.8c2.04,0.62,3.84,1.33,5.4,2.13c1.56,0.81,2.8,1.86,3.73,3.16c0.93,1.3,1.39,2.83,1.39,4.58c0,3.08-1.32,5.6-3.96,7.53c-2.64,1.94-6.05,2.9-10.23,2.9c-4.46,0-8.1-1.23-10.93-3.68c-2.83-2.45-4.24-5.65-4.24-9.59h-12.24c0,7.2,2.59,13.14,7.76,17.81c5.17,4.68,11.72,7.02,19.64,7.02c5,0,9.52-0.94,13.55-2.83c4.03-1.88,7.18-4.51,9.46-7.87c2.28-3.36,3.42-7.13,3.42-11.31c0-3.05-0.46-5.76-1.39-8.12C277.57,321.27,276.31,319.34,274.74,317.85z"/>
  <path fill="#FFFFFF" d="M322.47,340.08c-2.38,1.61-5.12,2.42-8.2,2.42c-4.25,0-7.82-1.48-10.72-4.45c-2.9-2.96-4.34-6.64-4.34-11.03c0-4.42,1.44-8.12,4.32-11.11c2.88-2.98,6.46-4.47,10.75-4.47c3.05,0,5.76,0.78,8.12,2.34c2.36,1.56,3.87,3.52,4.52,5.89h11.98c-0.51-3.67-1.94-6.99-4.27-9.97c-2.33-2.98-5.29-5.31-8.87-6.99c-3.58-1.68-7.41-2.52-11.49-2.52c-7.54,0-13.86,2.57-18.97,7.71c-5.11,5.14-7.66,11.52-7.66,19.13s2.55,13.97,7.66,19.07c5.11,5.11,11.43,7.66,18.97,7.66c6.34,0,11.88-1.87,16.61-5.6c4.73-3.74,7.44-8.5,8.12-14.29h-11.98C326.37,336.4,324.86,338.47,322.47,340.08z"/>
  <rect x="348.77" y="301.27" fill="#FFFFFF" width="11.67" height="51.46"/>
  <path fill="#FFFFFF" d="M354.68,277.36c-2.06,0-3.82,0.74-5.3,2.21c-1.47,1.47-2.21,3.22-2.21,5.24c0,2.09,0.74,3.87,2.21,5.35c1.47,1.47,3.24,2.21,5.3,2.21c2.06,0,3.83-0.74,5.32-2.21c1.49-1.47,2.24-3.26,2.24-5.35c0-2.02-0.75-3.77-2.24-5.24C358.52,278.1,356.74,277.36,354.68,277.36z"/>
  <rect x="373.45" y="279" fill="#FFFFFF" width="11.67" height="73.73"/>
  <rect x="397.51" y="279" fill="#FFFFFF" width="11.67" height="73.73"/>
  <path fill="#FFFFFF" d="M458.44,329.13c0,4.04-1.16,7.28-3.47,9.72c-2.31,2.43-5.37,3.65-9.18,3.65c-3.77,0-6.8-1.22-9.1-3.65c-2.3-2.43-3.44-5.67-3.44-9.72v-27.87h-11.67v29.25c0,7.23,1.9,12.91,5.71,17.04c3.8,4.13,9.03,6.2,15.68,6.2c3.39,0,6.41-0.79,9.05-2.36c2.64-1.58,4.78-3.84,6.43-6.79v8.12h11.77v-51.46h-11.77V329.13z"/>
  <path fill="#FFFFFF" d="M516.89,326.46c-1.41-1.03-3-1.91-4.78-2.65c-1.78-0.74-3.62-1.26-5.5-1.57c-1.89-0.31-3.72-0.65-5.5-1.03c-1.78-0.38-3.38-0.75-4.78-1.11c-1.41-0.36-2.54-0.95-3.39-1.77c-0.86-0.82-1.29-1.85-1.29-3.08c0-1.61,0.74-2.89,2.21-3.83c1.47-0.94,3.38-1.41,5.71-1.41c2.6,0,4.76,0.59,6.48,1.77c1.71,1.18,2.71,2.68,2.98,4.5h11.77c-0.58-5.04-2.85-8.98-6.79-11.83c-3.94-2.84-8.69-4.27-14.24-4.27c-5.9,0-10.62,1.49-14.16,4.47c-3.55,2.98-5.32,6.75-5.32,11.31c0,2.64,0.55,4.89,1.65,6.76c1.1,1.87,2.52,3.27,4.27,4.22c1.75,0.94,3.68,1.71,5.81,2.29c2.12,0.58,4.24,1.06,6.35,1.44c2.11,0.38,4.04,0.8,5.78,1.26c1.75,0.46,3.17,1.17,4.27,2.11c1.1,0.94,1.65,2.15,1.65,3.62c0,1.82-0.81,3.27-2.42,4.37c-1.61,1.1-3.82,1.65-6.63,1.65c-2.91,0-5.36-0.69-7.35-2.08c-1.99-1.39-3.08-3.2-3.29-5.42h-11.26c0.51,5.48,2.81,9.79,6.89,12.9c4.08,3.12,9.31,4.68,15.68,4.68c5.69,0,10.43-1.54,14.22-4.63c3.79-3.08,5.68-6.94,5.68-11.57c0-2.57-0.43-4.81-1.29-6.71C519.43,328.95,518.3,327.49,516.89,326.46z"/>
  <path fill="#FFFFFF" d="M546.56,287.44h-11.77v13.83h-9.77v11.16h9.77v20.93c0,6.41,1.71,11.35,5.14,14.81c3.43,3.46,8.04,5.19,13.83,5.19c2.4,0,4.51-0.21,6.32-0.62v-10.85c-1.06,0.27-2.33,0.41-3.8,0.41c-3.02,0-5.39-0.75-7.12-2.24c-1.73-1.49-2.6-3.8-2.6-6.92v-20.72h13.52v-11.16h-13.52V287.44z"/>
  <path fill="#FFFFFF" d="M580.95,308.1v-6.84h-11.67v51.46h11.67v-27.51c0-4.46,1.29-7.97,3.88-10.54c2.59-2.57,5.82-3.86,9.69-3.86c1.47,0,3.2,0.24,5.19,0.72V300.8c-2.13-0.41-3.75-0.62-4.88-0.62C588.84,300.19,584.21,302.83,580.95,308.1z"/>
  <path fill="#FFFFFF" d="M644.3,310.31c-1.89-3.26-4.37-5.76-7.45-7.51s-6.67-2.62-10.75-2.62c-4.49,0-8.62,1.18-12.39,3.55c-3.77,2.36-6.75,5.6-8.95,9.72c-2.19,4.11-3.29,8.6-3.29,13.47c0,4.87,1.1,9.37,3.29,13.5c2.19,4.13,5.17,7.39,8.95,9.77c3.77,2.38,7.9,3.57,12.39,3.57c4.08,0,7.66-0.87,10.75-2.6c3.08-1.73,5.57-4.22,7.45-7.48v9.05h11.83v-51.46H644.3V310.31z M639.8,338.1c-3,3-6.73,4.5-11.18,4.5c-4.35,0-8.04-1.52-11.05-4.55c-3.02-3.03-4.52-6.74-4.52-11.13c0-4.32,1.51-7.99,4.52-11.03c3.02-3.03,6.7-4.55,11.05-4.55c4.46,0,8.18,1.49,11.18,4.47c3,2.98,4.5,6.68,4.5,11.11C644.3,331.38,642.8,335.1,639.8,338.1z"/>
  <path fill="#FFFFFF" d="M685.12,287.44h-11.77v13.83h-9.77v11.16h9.77v20.93c0,6.41,1.71,11.35,5.14,14.81c3.43,3.46,8.04,5.19,13.83,5.19c2.4,0,4.51-0.21,6.32-0.62v-10.85c-1.06,0.27-2.33,0.41-3.8,0.41c-3.02,0-5.39-0.75-7.12-2.24c-1.73-1.49-2.6-3.8-2.6-6.92v-20.72h13.52v-11.16h-13.52V287.44z"/>
  <path fill="#FFFFFF" d="M754.17,325.89c0-4.9-1.13-9.33-3.39-13.29c-2.26-3.96-5.3-7.02-9.13-9.18c-3.82-2.16-8.03-3.24-12.62-3.24c-4.87,0-9.33,1.17-13.39,3.5c-4.06,2.33-7.27,5.53-9.61,9.59c-2.35,4.06-3.52,8.54-3.52,13.44c0,5.04,1.17,9.63,3.52,13.78c2.35,4.15,5.56,7.4,9.64,9.74c4.08,2.35,8.6,3.52,13.57,3.52c6.34,0,11.74-1.65,16.2-4.94c4.46-3.29,7.16-7.64,8.12-13.06h-11.77c-0.51,2.19-1.91,3.98-4.19,5.35c-2.28,1.37-5,2.06-8.15,2.06c-4.08,0-7.42-1.1-10.03-3.29c-2.61-2.19-4.29-5.21-5.04-9.05h39.49C754.06,329.9,754.17,328.26,754.17,325.89z M714.68,320.8c0.86-3.15,2.48-5.6,4.88-7.35c2.4-1.75,5.33-2.62,8.79-2.62c3.5,0,6.42,0.92,8.77,2.75c2.35,1.83,3.78,4.24,4.29,7.22H714.68z"/>
</svg>
