<?xml version="1.0" encoding="UTF-8"?>
<svg id="Capa_2" xmlns="http://www.w3.org/2000/svg" width="100" height="100"
  viewBox="0 0 409.302 409.3091">
  <defs>
    <style>
      .cls-1 {
      fill: rgba(30, 134, 198, 0.25);
      }

      .cls-2 {
      fill: rgba(4, 118, 175, 0.3);
      }

      .cls-3 {
      fill: rgba(66, 145, 193, 0.2);
      }

      .cls-4 {
      fill: rgba(134, 191, 234, 0.15);
      }
    </style>
  </defs>
  <g id="Capa_1-2" data-name="Capa_1">
    <g>
      <g>
        <path class="cls-4"
          d="M204.6506,405.4155c-22.8633,0-41.4561-7.4351-61.1406-15.3057-2.7051-1.082-5.4238-2.1689-8.1699-3.2417-2.9629-1.1567-5.958-2.2969-8.9639-3.4409-19.7217-7.5073-40.1162-15.27-55.7422-29.2886-.5293-.4746-1.0596-.9668-1.5752-1.4658-10.3535-9.8623-17.2588-22.6143-22.1162-32.6187-2.2383-4.5967-4.3799-9.3413-6.4512-13.9297-2.4873-5.5107-5.0596-11.2095-7.7715-16.5791-1.5986-3.1621-3.2188-6.2964-4.8311-9.418-12.3398-23.8774-23.9951-46.4302-23.9951-75.4766,0-15.979,4.6328-27.6724,9.5381-40.0522,1.9004-4.7969,3.8652-9.7568,5.6162-15.125,1.6416-5.0381,3.1572-10.3413,4.7617-15.9561,5.1035-17.8628,10.3818-36.334,20.6934-49.9512,14.9326-19.7207,34.7607-31.2019,55.7539-43.3572,1.7822-1.0322,3.5732-2.0693,5.3701-3.1167C135.2043,19.8499,167.6711,3.8938,204.6506,3.8938c24.2646,0,45.8047,8.8179,66.6357,17.3455,2.2363.9153,4.4668,1.8284,6.6943,2.728l2.4482.9885c24.5234,9.8938,47.6855,19.239,66.1807,37.7358,14.165,14.1714,22.4297,33.2556,29.7217,50.093l.7266,1.6748c1.5938,3.6714,3.2402,7.4673,4.9014,11.1279l2.4023,5.2617c10.3467,22.6279,21.0459,46.0264,21.0459,73.8018,0,20.9736-7.8965,40.0518-15.5332,58.502-1.8252,4.4077-3.5479,8.5713-5.1787,12.7861-.958,2.4751-1.8975,4.9375-2.8301,7.3823-8.8955,23.3125-17.2979,45.332-35.2559,63.2891-11.7334,11.7344-30.3037,20.4106-46.6875,28.0659-5.0029,2.3374-9.7275,4.5449-14.0615,6.7393-25.459,12.8784-47.4453,24-81.21,24Z" />
        <path class="cls-3"
          d="M204.6511,7.7876c26.0552,0,49.1123,10.5994,71.8716,19.7903,24.7266,9.9893,48.7856,19.3181,67.3345,37.8669,13.3726,13.3796,21.2202,31.1516,28.9009,48.8872,1.873,4.3123,3.7319,8.6248,5.6558,12.8643.2031.4429.3989.8857.6025,1.3213,11.0708,24.3059,22.498,47.6604,22.498,76.1333,0,25.0388-11.9282,47.8564-20.4512,69.8826-9.9819,25.8086-17.9897,50.1069-37.2061,69.3235-14.6938,14.6938-41.0322,24.6035-59.7554,34.0847-26.6797,13.4958-47.5151,23.5798-79.4507,23.5798-25.2498,0-45.7078-9.6121-67.8936-18.2803-22.186-8.6609-46.0996-16.3706-63.5232-32.001-.4937-.4429-.9873-.9001-1.4663-1.3647-9.1836-8.748-15.6448-19.8264-21.322-31.522-4.9148-10.0911-9.2417-20.6467-14.251-30.5637-13.4668-26.6433-28.4075-51.2395-28.4075-83.1389,0-21.3147,8.6899-34.7454,14.9624-53.969,6.8386-20.9954,11.8118-47.5371,24.8574-64.7646,15.7102-20.7483,37.3879-32.2915,59.9802-45.4607,29.0901-16.9587,60.9675-32.6689,97.0635-32.6689M204.6511,0c-37.9043,0-70.9363,16.2107-100.9856,33.7288-1.7937,1.0454-3.5823,2.0811-5.3623,3.1118-21.3411,12.3572-41.4985,24.0293-56.9045,44.3755-10.7512,14.198-16.1313,33.0259-21.3342,51.2339-1.594,5.5789-3.0999,10.8481-4.7192,15.8201-1.7126,5.249-3.655,10.1516-5.5334,14.8928-5.0459,12.7356-9.8118,24.7649-9.8118,41.488,0,29.9915,12.4182,54.022,24.4275,77.261,1.5872,3.0713,3.2283,6.2473,4.8174,9.3909,2.6719,5.29,5.2253,10.9468,7.6946,16.4172,2.0837,4.6162,4.2385,9.3894,6.5051,14.0435,4.9907,10.2812,12.1106,23.4128,22.9248,33.7249.5149.4985,1.0747,1.0195,1.6646,1.5488,16.1653,14.5015,36.9023,22.3953,56.957,30.0291,2.9453,1.1211,5.9912,2.2805,8.9346,3.4294,2.7246,1.0647,5.4773,2.1653,8.1392,3.2297,19.1604,7.6614,38.9734,15.5837,62.5864,15.5837,34.6938,0,57.0635-11.3157,82.9658-24.4182,4.2808-2.1677,8.978-4.3623,13.9512-6.686,16.6758-7.7913,35.5767-16.6218,47.7959-28.8411,18.5459-18.5461,27.0923-40.9446,36.1401-64.6582.9307-2.4382,1.8677-4.8936,2.8223-7.3628,1.6143-4.1711,3.3291-8.3137,5.1445-12.6997,7.7832-18.802,15.8311-38.2441,15.8311-59.9922,0-28.6211-10.8774-52.4099-21.3965-75.4155-.6006-1.313-1.2017-2.6279-1.8018-3.9458l-.0161-.0352-.0166-.0352c-.1089-.2329-.2153-.4683-.3218-.7046l-.2568-.5652c-1.6357-3.605-3.2778-7.3889-4.8657-11.0483l-.7256-1.6716c-7.4268-17.1487-15.8477-36.594-30.5356-51.29-19.0591-19.0588-43.6748-28.9905-67.48-38.595l-2.4458-.9873c-2.2222-.8975-4.4463-1.8081-6.6763-2.7207C251.5837,8.9658,229.6824,0,204.6511,0h0Z" />
      </g>
      <g>
        <path class="cls-1"
          d="M223.4387,353.811c-14.4033,0-29.5-2.6318-44.8691-7.8232-32-10.7998-60.2773-30.958-79.623-56.7603-20.4668-27.3076-31.1211-61.1323-30-95.2427.292-9.0649,1.4443-18.063,3.4258-26.7432,5.834-25.5566,19.5635-50.0542,38.6602-68.98,20.124-19.9443,44.8145-31.9236,69.5244-33.7305,2.2471-.1628,4.5264-.2454,6.7734-.2454,8.4648,0,16.9805,1.1646,25.3115,3.4612,17.6143,4.8687,34.9863,13.9897,54.6738,28.7051,10.6045,7.9219,20.2617,16.2764,28.7021,24.8311,11.8652,12.0176,21.6885,24.791,29.1992,37.9644,15.248,26.7383,21.4111,56.291,17.3535,83.2148-3.5186,23.3911-15.0117,46.9365-33.2363,68.0903-16.6328,19.3154-35.0127,32.293-54.6289,38.5708-9.7139,3.1104-20.2334,4.6875-31.2666,4.6875Z" />
        <path class="cls-2"
          d="M187.3301,66.554c8.0898,0,16.3552,1.0767,24.7092,3.3799,19.6831,5.4404,37.5576,16.1064,53.918,28.3352,10.0317,7.4941,19.6436,15.686,28.4463,24.6077,11.1338,11.2769,20.999,23.7354,28.8423,37.4944,14.0527,24.6396,21.3086,53.7041,17.082,81.7537-3.7432,24.8853-16.2812,47.8752-32.7129,66.9478-14.4565,16.7883-32.4902,31.1343-53.6006,37.8909-9.8999,3.1699-20.207,4.5793-30.5752,4.5793-14.9209,0-29.9714-2.9172-44.1443-7.7039-30.9202-10.4363-58.9539-29.8577-78.5337-55.9722-20.0479-26.749-30.6428-60.4844-29.5483-93.8076.2854-8.8501,1.3958-17.6609,3.3704-26.3127,11.4512-50.1592,54.6238-97.1858,106.1392-100.9529,2.1877-.1584,4.3916-.2395,6.6077-.2395M187.3306,62.0173h0c-2.3025.0002-4.6362.0847-6.936.2515-25.2517,1.8464-50.4512,14.0569-70.9592,34.3818-19.3977,19.2246-33.3457,44.115-39.2749,70.0859-2.0132,8.8215-3.1848,17.9648-3.4817,27.1763-.5618,17.105,1.811,34.2236,7.0527,50.8774,5.248,16.6743,13.1208,32.0828,23.3997,45.7971,19.6182,26.1658,48.2825,46.6038,80.7131,57.5498,15.6038,5.2698,30.9446,7.9421,45.595,7.9421,11.2686,0,22.021-1.6135,31.9585-4.7954,20.0195-6.4075,38.7451-19.6135,55.6548-39.2512,18.5049-21.4785,30.1797-45.4194,33.7617-69.2332,4.1323-27.4265-2.1274-57.4988-17.6274-84.676-7.6074-13.3445-17.5508-26.2759-29.5547-38.4341-8.5186-8.6333-18.2622-17.0632-28.9595-25.0549-19.9199-14.8892-37.5317-24.1277-55.4248-29.0732-8.5298-2.3518-17.249-3.5439-25.9172-3.5439h0Z" />
      </g>
    </g>
  </g>
</svg>
