<?xml version="1.0" encoding="UTF-8"?>
<svg id="Capa_2" xmlns="http://www.w3.org/2000/svg" width="100" height="100"
  viewBox="0 0 565.6271 567.5269">
  <defs>
    <style>
      .cls-1 {
      fill: rgba(68, 145, 28, 0.25);
      }

      .cls-2 {
      fill: rgba(99, 150, 72, 0.2);
      }

      .cls-3 {
      fill: rgba(54, 119, 16, 0.3);
      }

      .cls-4 {
      fill: rgba(148, 198, 125, 0.15);
      }

      .cls-5 {
      fill: rgba(112, 168, 86, 0.2);
      }
    </style>
  </defs>
  <g id="Capa_1-2" data-name="Capa_1">
    <g>
      <g>
        <path class="cls-4"
          d="M555.4715,288.8c-.91,8.8301-5.45,14.9001-7.13,17.0901-4.95,6.46-7.45,5.1899-10.68,10.6799-2.7,4.6001-2.99,9-3.56,17.8-.16,2.53-.12,3.38,0,14.96.15,14.24.11,15.55-.71,17.8-2.33,6.39-5.55,5.49-9.97,12.8201-1.04,1.73-7.07,11.73-4.98,22.7899,1.59,8.4501,6.27,8.7101,7.12,17.09.11,1.1001,1.06,11.8601-5.46,17.0901-2.31,1.85-6.29,2.5-14.25,3.7999-8.53,1.39-8.33.52-11.39,1.66-8.65,3.22-13.15,11.28-14,12.8201-.66,1.1699-1.63,3.5499-3.56,8.2999-2.97,7.2899-2.59,7.27-3.8,9.74-3.03,6.1801-7.2,10.03-10.21,12.8099-1.86,1.7201-4.97,4.5601-9.73,7.1201-3.85,2.08-5.81,2.3699-8.78,3.5699-1.48.58-12.88,5.3099-18.52,15.66-2.59,4.75-3.2599,9.3799-4.27,16.3799-1.32,9.0701-.14,12.05-2.85,14.9601-4,4.2899-11.66,3.28-14.96,2.84-8.13-1.0699-9.08-4.55-19.94-7.83-4.61-1.39-3.08-.35-14.95-2.85-12.33-2.5901-14.68-3.8601-17.8-2.13-.92.5-1.34.95-7.84,10.6801-4.49,6.72-4.69,7.1099-5.69,7.8298-6.54,4.6901-16.13,1.0901-17.09.7101-4.55-1.78-3.63-3.17-9.26-6.41-8.47-4.87-17.25-5.58-20.65-5.6899-2.83-.0901-9.26,0-9.26,0,0,0-1.99.1899-4.41.47-2.42.27-5.27.63-6.98.95-9.59,1.8201-10.6,7.8101-19.94,12.1101-.63.2899-11.53,5.1299-23.5,2.1299-7.17-1.7899-12.71-5.8899-22.08-12.8099-5.47-4.0499-8.35-6.87-14.24-8.5499-3.33-.9501-6.21-1.1301-11.4-1.42-9.42-.54-10.37.46-14.95,0-8.69-.88-14.8-5.4401-22.79-11.4-5.56-4.15-9.23-6.95-12.1-12.1-3.52-6.3199-1.63-8.5699-4.28-12.8199-7.1-11.4102-29.54-9.3701-30.62-9.26-14.19,1.45-16.44,8.0999-26.35,6.4099-6.04-1.03-12.37-4.73-16.1-9.6899-1.55-2.05-2.66-4.3101-3.12-6.6901-.22-1.12-.27-2.17,2.01-9.0399,1.09-3.28,2.71-7.8901,5.11-14.4601,2.57-7.0599,3.72-10.0499,4.27-14.95.46-4.09,1.06-10.05-2.14-15.67-.95-1.6699-2.53-3.25-5.69-6.4099-3.17-3.1602-6.87-6.8501-11.4-9.9701-7.59-5.23-9.16-3.13-14.95-7.12-6.55-4.52-13.02-13.05-12.82-22.08.09-3.91,1.38-5.7001,4.99-13.53,1.71-3.72,3.93-8.77,6.35-14.99,1.84-4.7201.16-10.0599-4-12.9501-3-2.08-6.05-4.58-7.34-7.83-2.75-6.91-4.29-12.1901-.89-17.09,5.2-7.5,9.77-8.6799,12.28-16.21,2.74-8.1901-1.63-11.8101-.71-22.79.63-7.47,2.9-8.75,5.7-17.8,5.43-17.54-.73-20.33,3.56-36.3199,4.12-15.37,10.73-16.2101,11.39-29.91.52-10.63-1.42-17.8-1.42-17.8-1.9-7.0399-4.45-9.8699-3.8-15.6699.16-1.42.82-7.3101,5.22-10.92,3.37-2.7599,5.55-1.42,15.2-4.2699,3.05-.9102,6.25-1.8701,9.97-3.8,1.64-.8501,6.78-3.5701,10.91-8.0701,6.4901-7.0499,3.64-11.03,9.97-21.36,4.81-7.84,10.63-12.35,11.87-13.2999,5.73-4.3301,6.73-2.8801,14.25-8.0701,6.08-4.2,11.83-9.58,13.76-11.3899,3.91-3.6601,5.23-5.3001,8.55-7.1201,3.09-1.7,5.62-2.3,10.44-3.33,16.89-3.58,16.65-2.74,19.7-4.15,6.9-3.18,5.17-6.07,13.53-11.39,9.48-6.03,12.61-2.92,17.45-8.1899,3.71-4.05,5.73-10.08,8.19-17.45,1.26-3.76,1.61-5.65,3.56-7.83,4.46-4.99,11.43-4.99,11.75-4.99,4.65.07,7.85,2.3,14.24,6.77,4.38,3.06,5.94,4.97,11.75,8.54,2.07,1.27,3.97,2.32,6.41,3.21,3.42,1.24,6.21,1.5699,8.19,1.78,8.98.94,14.69,1.54,23.86,1.07,8.83-.46,13.33-.74,17.09-3.21,2.88-1.89,3.27-3.28,6.41-4.98,5.62-3.05,11.45-2.44,14.24-2.14,15.3,1.62,24.08,14.23,24.57,14.95,3.65,5.42,1.87,6.37,5.34,11.04,5.82,7.85,14.77,10.48,23.14,12.82,11.24,3.14,13.1,1.09,27.42,4.63,8.86,2.19,13.3,3.28,17.09,6.05,9.02,6.59,14.2,18.45,15.31,21.0099,1.95,4.4801,1.75,5.49,3.56,7.4801,5.43,5.96,15.83,6.2999,18.87,6.41,4.38.1399,6.7-.51,10.33,1.0599,1.37.6,4.45,1.9301,6.05,4.99.68,1.28.93,2.58.36,10.3199-.55,7.3201-.92,8.03-.36,9.9701.9,3.12,2.46,3.42,6.06,7.84,6.13,7.52,4.19,9.8201,8.9,13.53,3.21,2.53,4.67,1.8999,9.61,5.6899,2.72,2.1001,4.09,3.15,5.34,4.99.81,1.1901,1.4,2.4401,1.8,3.73,1.33,4.16.82,8.6801.34,12.6501-.7599,6.22-2,6.5999-2.49,10.6799-.82,6.78,2.04,10.35,5.77,18.27.77,1.6499,1.58,3.49,2.41,5.59,5.78,14.65,1.94,16,7.13,24.2101,3.58,5.6699,4.75,3.99,17.09,16.3799,10.8,10.8401,13.01,15.25,14.24,18.51.87,2.3,2.87,7.8101,2.14,14.96Z" />
        <path class="cls-2"
          d="M223.2614,10c4.6501.07,7.8501,2.3,14.24,6.7701,4.3801,3.06,5.9402,4.9699,11.75,8.5399,2.0701,1.2701,3.9702,2.32,6.4102,3.2101,3.4199,1.24,6.21,1.5699,8.1899,1.7799,6.8325.7152,11.7722,1.2336,17.783,1.2336,1.8892,0,3.884-.0512,6.0769-.1636,8.8301-.46,13.3301-.74,17.0903-3.21,2.8799-1.8899,3.27-3.28,6.4097-4.98,3.5752-1.9402,7.2354-2.3994,10.144-2.3994,1.6636,0,3.0811.1501,4.0962.2593,15.2998,1.62,24.0801,14.2301,24.5698,14.95,3.6499,5.42,1.8701,6.37,5.3398,11.04,5.8203,7.8501,14.77,10.4801,23.1401,12.82,11.2402,3.1401,13.1001,1.0901,27.4199,4.6301,8.8604,2.19,13.3003,3.28,17.0903,6.0499,9.02,6.5901,14.1997,18.4501,15.3101,21.01,1.9497,4.4801,1.75,5.49,3.5596,7.4801,5.4302,5.96,15.8301,6.2999,18.8701,6.41.4941.0158.9624.0215,1.4087.0215,1.1841,0,2.2183-.0403,3.1919-.0403,1.9136,0,3.5952.1556,5.7295,1.0788,1.3701.5999,4.4502,1.93,6.0498,4.99.6802,1.28.9302,2.5799.3604,10.3199-.5503,7.3201-.9199,8.03-.3604,9.9701.9004,3.12,2.4604,3.42,6.0601,7.84,6.1304,7.52,4.1899,9.82,8.9004,13.53,3.21,2.53,4.6699,1.8999,9.6099,5.6899,2.7197,2.1001,4.0898,3.1501,5.3398,4.99.8101,1.1901,1.3999,2.4401,1.8003,3.73,1.3296,4.16.8198,8.6801.3398,12.6502-.7603,6.2199-2,6.5998-2.4902,10.6799-.8198,6.78,2.04,10.35,5.77,18.27.77,1.6499,1.5801,3.49,2.4102,5.59,5.7798,14.65,1.9399,16,7.1299,24.2101,3.5801,5.6699,4.75,3.9899,17.0903,16.3798,10.7998,10.8401,13.0098,15.25,14.2397,18.51.8701,2.3001,2.8701,7.8101,2.1401,14.96-.9102,8.8301-5.4502,14.9002-7.1299,17.0901-4.9502,6.4599-7.4502,5.1899-10.6802,10.6799-2.7002,4.6001-2.9902,9-3.5601,17.8001-.1602,2.53-.1201,3.38,0,14.9599.1499,14.24.1099,15.5501-.71,17.8001-2.3301,6.39-5.5498,5.49-9.9702,12.82-1.04,1.73-7.0698,11.73-4.98,22.7899,1.5903,8.4501,6.27,8.7101,7.1201,17.09.1099,1.1001,1.0601,11.8601-5.46,17.0901-2.3101,1.85-6.29,2.5-14.25,3.7999-8.5298,1.39-8.3301.52-11.3901,1.6601-8.6499,3.2199-13.1499,11.28-14,12.82-.6597,1.17-1.6299,3.55-3.5601,8.3-2.9697,7.2899-2.5898,7.27-3.7998,9.7399-3.0298,6.1801-7.2002,10.0301-10.21,12.81-1.8599,1.7201-4.9702,4.56-9.73,7.1201-3.8501,2.08-5.8101,2.3699-8.7803,3.5699-1.48.58-12.8799,5.31-18.52,15.6601-2.5898,4.75-3.2598,9.3799-4.2695,16.3799-1.3203,9.07-.1401,12.05-2.8501,14.96-2.4497,2.627-6.272,3.2668-9.625,3.2668-2.1221,0-4.0557-.2562-5.335-.4268-8.1304-1.0699-9.0801-4.55-19.9399-7.8299-4.6104-1.3901-3.0801-.35-14.9502-2.85-8.4287-1.7706-12.1943-2.9243-14.7295-2.9244-1.1738,0-2.0835.247-3.0703.7944-.9204.5-1.3403.9499-7.8403,10.68-4.4897,6.72-4.6899,7.1099-5.6899,7.8299-2.5288,1.8134-5.5137,2.3875-8.2793,2.3875-4.3867,0-8.2217-1.4444-8.8105-1.6775-4.5503-1.78-3.6299-3.17-9.2603-6.41-8.4697-4.87-17.25-5.5799-20.6499-5.6899-.9434-.03-2.2866-.04-3.6587-.04-2.7437,0-5.6013.04-5.6013.04,0,0-1.99.1899-4.4099.4699-2.4199.2701-5.27.63-6.98.95-9.5901,1.8201-10.6001,7.8101-19.9399,12.1101-.4819.2218-6.9758,3.1068-15.3596,3.1068-2.5752,0-5.3276-.2719-8.1404-.9769-7.1702-1.7899-12.7102-5.8899-22.0801-12.81-5.47-4.0499-8.3501-6.8699-14.24-8.5499-3.3301-.9501-6.21-1.1301-11.4001-1.42-2.1135-.1212-3.8008-.1648-5.1982-.1648-3.5996,0-5.2771.2896-7.3679.2896-.7153,0-1.4783-.0338-2.3838-.1248-8.6899-.88-14.8-5.4401-22.79-11.4-5.5598-4.1501-9.23-6.95-12.0999-12.1-3.52-6.32-1.6301-8.57-4.28-12.82-5.1345-8.2512-18.2915-9.4687-25.5913-9.4688-2.7944,0-4.7297.1784-5.0288.2088-12.6084,1.2884-15.7915,6.6829-23.2964,6.6829-.9412,0-1.949-.0847-3.0535-.273-6.04-1.03-12.3701-4.7299-16.1001-9.6899-1.55-2.0501-2.6599-4.3101-3.1199-6.6901-.22-1.12-.27-2.17,2.01-9.0399,1.0898-3.28,2.71-7.8901,5.1099-14.4601,2.5701-7.0599,3.72-10.0499,4.27-14.9499.46-4.09,1.0601-10.0501-2.1399-15.6701-.9502-1.6699-2.53-3.25-5.6902-6.4099-3.1699-3.1601-6.8699-6.8501-11.3999-9.9701-7.5901-5.23-9.1599-3.13-14.95-7.12-6.55-4.52-13.02-13.05-12.8201-22.0799.0901-3.9101,1.3801-5.7001,4.99-13.5301,1.71-3.7199,3.9299-8.77,6.3501-14.9899,1.8398-4.7201.1599-10.06-4-12.9501-3-2.08-6.05-4.58-7.3401-7.83-2.75-6.91-4.29-12.19-.8899-17.0899,5.2-7.5,9.77-8.6799,12.28-16.21,2.74-8.19-1.6301-11.81-.7102-22.79.6301-7.47,2.9001-8.75,5.7002-17.8001,5.4299-17.54-.73-20.3299,3.5598-36.3199,4.1201-15.37,10.73-16.2101,11.3901-29.9101.52-10.63-1.4202-17.8-1.4202-17.8-1.8999-7.0399-4.45-9.8699-3.7998-15.6699.1599-1.4201.8198-7.3101,5.22-10.9201,3.3699-2.7598,5.55-1.42,15.2-4.2699,3.05-.9101,6.25-1.8701,9.97-3.8,1.6401-.8501,6.78-3.5701,10.9099-8.0701,6.4902-7.0499,3.6401-11.03,9.9702-21.36,4.8098-7.8399,10.6299-12.3499,11.8699-13.2999,5.73-4.3301,6.73-2.8801,14.25-8.0701,6.0801-4.1999,11.8301-9.5799,13.76-11.3898,3.9099-3.6602,5.23-5.3002,8.55-7.1201,3.0901-1.7,5.6199-2.3001,10.4399-3.33,16.8901-3.58,16.6501-2.74,19.7-4.1501,6.9001-3.1799,5.1702-6.07,13.53-11.39,9.48-6.03,12.6101-2.92,17.45-8.1899,3.7102-4.0501,5.73-10.0801,8.1902-17.4501,1.26-3.76,1.6099-5.65,3.5598-7.83,4.4602-4.9901,11.4302-4.9901,11.75-4.9901M223.3366,0h-.0752c-1.9644,0-12.1228.4014-19.2058,8.3259-3.033,3.3906-4.0571,6.581-5.0476,9.6663-.1626.5062-.3379,1.053-.5381,1.6505-2.0403,6.1116-3.7988,11.3801-6.0823,13.8726-.2981.3247-.4446.4234-.446.4243-.2068.0983-1.0981.3179-1.7488.4781-2.884.7106-7.2422,1.7843-13.2483,5.6047-5.438,3.4606-7.9263,6.4733-9.5728,8.4669-1.207,1.4614-1.3333,1.6141-2.7756,2.2789-.259.1197-.3433.1506-.3467.1519-.2351.0669-1.2441.238-2.2197.4035-2.5596.4341-6.8438,1.1606-15.0217,2.8941-5.3562,1.1445-8.8494,1.9649-13.1868,4.351-3.7673,2.0651-5.845,4.0633-8.4753,6.593-.6125.589-1.2944,1.2452-2.0884,1.9884-1.7593,1.6497-7.0933,6.6519-12.6096,10.4624-2.9946,2.0668-4.4602,2.7029-6.157,3.4395-2.1809.9465-4.6526,2.0193-8.4385,4.8804l-.0264.0199-.0261.0201c-3.1646,2.4244-9.2317,7.728-14.312,16.0086-3.6868,6.0162-4.9399,10.5226-5.8552,13.813-.8347,3.0018-1.1162,4.0131-2.9482,6.0034-1.3938,1.5186-3.9294,3.7748-8.1548,5.9648-2.9072,1.5083-5.4915,2.2794-8.2275,3.0958-3.5408,1.0456-5.7881,1.4084-7.771,1.7286-3.2395.5231-6.9114,1.1159-10.9055,4.3871-3.4451,2.8264-7.7649,8.1571-8.8208,17.5342-.698,6.2259.9285,10.5191,2.3635,14.3069.6118,1.615,1.1899,3.1413,1.708,5.0524.0706.2815,1.5156,6.1922,1.0972,14.7444-.2439,5.0589-1.3977,7.0033-3.6963,10.8771-2.2964,3.8699-5.1543,8.6861-7.3647,16.9326-2.4646,9.186-2.0698,14.9767-1.7217,20.0857.3203,4.7036.5735,8.4189-1.7319,15.8661-.9487,3.0667-1.8044,5.0392-2.6321,6.9467-1.4563,3.3563-2.9619,6.8268-3.48,12.9701-.5374,6.4143.3635,10.9993,1.0215,14.3471.6494,3.3051.7937,4.2466.1699,6.1107-.7207,2.1623-1.5295,3.0402-3.978,5.4908-1.9729,1.9744-4.428,4.4316-7.0366,8.1942-6.8152,9.8212-2.6636,20.2527-.1833,26.4853,2.3149,5.8318,7.0593,9.6641,10.9336,12.3504.3718.2583.5315.7131.3806,1.1004-1.9341,4.9706-3.9348,9.6938-6.1189,14.4449-.6963,1.51-1.3074,2.7963-1.8374,3.9118-2.3743,4.9985-3.9426,8.3006-4.064,13.5646-.3013,13.6076,9.0437,24.9553,17.1377,30.5408,3.9956,2.7535,6.9929,3.6557,9.1814,4.3145,1.8147.5463,3.0134.9072,5.7742,2.8095,3.781,2.604,7.0872,5.8999,10.0039,8.8077,1.8252,1.8252,3.7136,3.7133,4.0759,4.2955,1.5176,2.6658,1.2998,5.923.887,9.595-.375,3.3391-1.0601,5.3221-3.3792,11.6852l-.3503.9614c-2.3027,6.3037-4.0059,11.1246-5.2031,14.7278-2.407,7.2528-3.0811,10.3092-2.3325,14.1205.7283,3.7685,2.3975,7.41,4.9556,10.7935,5.1541,6.8537,13.7417,12.0409,22.3958,13.5167,1.6387.2795,3.1875.4153,4.7349.4153,5.6865,0,9.7048-1.8435,13.2502-3.4699,3.0784-1.4122,5.9858-2.7461,11.0625-3.2648.0095-.0009,1.6042-.1571,4.012-.157,9.7708,0,15.6292,2.3868,17.1011,4.7521.1545.2478.1702.2729.3708,1.5554.3696,2.3642.9285,5.937,3.6633,10.8472,3.969,7.1225,9.0134,10.8879,14.8545,15.2478,8.4016,6.2669,16.3247,12.1771,27.7642,13.3355,1.1797.1185,2.2864.1756,3.3914.1756,1.2314,0,2.2949-.0696,3.3235-.137,1.1448-.075,2.3289-.1525,4.0444-.1525,1.3708,0,2.884.0485,4.6257.1485,4.7808.267,6.9827.4117,9.229,1.0526,3.01.8585,4.6318,2.0992,8.1853,4.8175.8848.6768,1.8228,1.3941,2.8479,2.153l.0771.057c9.9084,7.318,16.4546,12.1525,25.5312,14.4184,3.3716.845,6.9282,1.2746,10.5625,1.2746,10.4963,0,18.6455-3.6109,19.54-4.0226,5.3931-2.4828,8.7954-5.4795,11.2798-7.6675,2.5571-2.252,3.6155-3.1842,6.3442-3.7021,1.1648-.218,3.5012-.5324,6.2249-.8364,1.697-.1963,3.1741-.3469,3.8535-.4145.8767-.0107,3.0098-.0337,5.0483-.0337,1.853,0,2.8394.019,3.3408.0349,2.6704.0865,9.5845.685,15.9829,4.3641,1.6665.959,2.2358,1.4926,3.0229,2.2312,1.791,1.6795,3.7178,3.312,7.5791,4.8225,1.3726.5434,6.4404,2.3646,12.4536,2.3646,5.418,0,10.1646-1.4336,14.1069-4.2611,2.3823-1.7154,3.1646-2.8875,6.9224-8.5205l1.2549-1.8804c1.2222-1.8292,3.1396-4.6995,4.521-6.698,1.0098.2115,2.2646.4975,3.4971.7785,1.9233.4385,4.3169.9842,7.2515,1.6005,6.5288,1.3751,9.29,1.7464,11.1177,1.9921,1.3149.1768,1.5518.2087,3.0015.6457,4.1113,1.2417,6.3027,2.4327,8.6221,3.6935,3.1621,1.7187,6.7466,3.6668,12.8999,4.4766,1.4248.1901,3.8394.5122,6.6396.5122,7.251,0,12.9502-2.1692,16.939-6.4473,4.1958-4.5055,4.5024-9.3225,4.7729-13.5725.1187-1.8644.2529-3.9775.6587-6.7665.9868-6.8394,1.4922-9.9859,3.1538-13.0334,4.0342-7.4034,13.0088-10.9876,13.3892-11.1366l.0483-.019.0488-.0195c.7251-.2931,1.4092-.5264,2.2007-.7964,1.9043-.6495,4.2744-1.4579,7.5864-3.2473,5.9585-3.2046,9.8813-6.8331,11.7671-8.5768,3.4038-3.1441,8.5483-7.8957,12.3989-15.7495.8384-1.7118,1.21-2.7684,1.6401-3.9919.3921-1.1145.9839-2.799,2.4419-6.3773,1.3462-3.3133,2.6147-6.4352,3.0161-7.173l.022-.0392.0156-.0279c.8198-1.4851,3.8721-6.4712,8.7339-8.2809.1099-.0411.187-.0678.2368-.0844.1768-.0172.5088-.0405.7847-.0598,1.4731-.1033,3.9375-.2762,8.4883-1.0177,9.3726-1.5306,14.5337-2.3735,18.8926-5.8642,10.3506-8.3027,9.4458-23.0231,9.1592-25.8898-.6987-6.8914-3.2656-10.6571-5.1401-13.4067-1.1841-1.7377-1.7246-2.5307-2.1025-4.5387-1.2456-6.5903,2.1841-13.2286,3.7163-15.7772,1.3042-2.1625,2.2603-3.0224,3.584-4.2127,2.1631-1.9455,5.126-4.6101,7.2173-10.3445,1.4956-4.1055,1.4717-6.4004,1.3145-21.3312l-.0459-4.2984c-.0815-7.5485-.085-8.1629.0264-9.9244.5312-8.2066.7686-10.9238,2.2041-13.3698.5649-.9604.645-1.0176,1.9839-1.9727,1.8618-1.3287,4.6763-3.3367,8.0098-7.6869,5.2554-6.8514,8.3311-14.3041,9.1396-22.1472.9888-9.6823-1.8135-17.0894-2.7344-19.5235-2.0454-5.4218-5.5225-11.0025-16.5088-22.0297-6.3647-6.3907-10.0142-9.3266-12.4292-11.2693-2.1567-1.7351-2.333-1.8768-3.2896-3.3916-1.4531-2.2986-1.5386-2.9648-1.8994-5.7691-.4556-3.5435-1.0796-8.3966-4.3838-16.772-.8169-2.0662-1.6831-4.0756-2.6509-6.1491-.8179-1.7369-1.5752-3.2383-2.2432-4.5628-2.5073-4.9711-2.9316-6.0353-2.6606-8.2776.0952-.794.1978-1.0938.5371-2.0872.5933-1.7375,1.4062-4.1171,1.9517-8.5799.54-4.4666,1.2764-10.5631-.729-16.8714-.7046-2.2547-1.7378-4.3906-3.0708-6.3491-2.1304-3.1362-4.4658-4.9392-7.4219-7.2219l-.0728-.0561c-3.6328-2.787-6.0483-3.8817-7.8125-4.6811-1.0229-.4637-1.2314-.5631-1.7192-.9477-.3257-.2567-.4297-.3793-.4307-.3804-.0898-.1412-.3721-.7835-.5781-1.2525-.9849-2.2419-2.4731-5.6299-6.3306-10.3618-1.6187-1.9877-2.9009-3.2935-3.8374-4.247-.0591-.0603-.1211-.1234-.1831-.187.0317-.3722.0718-.8023.1108-1.226.1113-1.2079.2642-2.8622.4307-5.0819.5933-8.0566.625-11.7406-1.4844-15.7301-3.2197-6.1335-8.9653-8.6489-10.8555-9.4761l-.02-.0089-.0522-.0226c-3.8721-1.6747-7.0757-1.9005-9.6992-1.9005-.5249,0-1.0649.0097-1.6313.0206-.4912.0093-1.0073.0198-1.5605.0198-.3452,0-.707-.0042-1.0889-.0164l-.0161-.0006c-7.8828-.2849-10.7134-2.0977-11.6445-3.0074-.0815-.213-.187-.4995-.2783-.7472-.3584-.9758-.8501-2.3123-1.6411-4.1305-3.3345-7.6869-9.269-18.2914-18.5801-25.0941-5.3633-3.9196-11.0547-5.3264-20.4839-7.6569l-.1064-.0263c-8.0151-1.9815-12.7456-2.398-16.5464-2.7327-3.4458-.3034-5.9355-.5226-10.5825-1.8208-8.1372-2.2747-14.1777-4.2626-17.7979-9.1447-.6938-.9341-.7349-1.0728-1.0557-2.1522-.6836-2.3026-1.5571-4.8571-4.0225-8.5176-1.2197-1.7931-12.25-17.2374-31.8115-19.3087-1.085-.1166-2.9282-.3149-5.1489-.3149-5.4819,0-10.4995,1.2147-14.9136,3.6102-2.877,1.5576-4.4873,3.0773-5.6636,4.1868-.6064.5721-.9106.8593-1.4629,1.2219-1.502.9866-5.3867,1.2331-12.1245,1.584-1.9683.1008-3.7883.1501-5.5564.1501-5.4753,0-9.9392-.4672-16.6958-1.1744-1.4788-.1568-3.46-.3669-5.8684-1.2402-1.6218-.5916-2.9131-1.304-4.5891-2.3324-3.0305-1.8622-4.6433-3.1454-6.5107-4.6312-1.3054-1.0386-2.7849-2.2156-4.7419-3.5829C236.214,3.6655,231.1422.1176,223.412.0011l-.0754-.0011h0Z" />
      </g>
      <g>
        <path class="cls-1"
          d="M478.5215,278.1701c-1.62,3.96-8.39,19.23-24.54,28.97-9.76,5.8899-18.4901,7.08-35.41,9.37-3.66.5-4.16.45-32.01,1.85-24.03,1.21-26.36,1.38-31.71.62-14.9901-2.14-25.39-7.58-28.52-9.2999-7.62-4.1901-12.26-8.4001-19.32-14.8801-9.64-8.8499-19.34-17.1399-25.2-29.08-5.73-11.67-7.9-24.74-13.6-36.45-.81-1.67-1.65-3.25-2.5-4.75-3.21-5.7101-6.51-10.13-9.05-13.2001-1.42-1.2999-3.6-3.04-6.54-4.5499-8.56-4.39-16.72-3.3199-19.01-2.9801-6.8799,1-11.56,3.9801-14.78,6.05-.92.5901-1.79,1.2-2.6,1.8201-4.96,3.73-7.9,7.6399-9.6801,10.0499-4.41,5.9601-9.71,13.13-9.4,22.4901.22,6.5898,3.12,11.22,7.55,18.2699,5.01,7.99,7.58,8.92,14.73,17.6801,5.15,6.29,11.87,14.52,16.63,25.96,4.64,11.16,2.18,12.8,7.14,23.13,3.26,6.7899,4.66,6.7899,13.27,19.41,17.03,24.95,17.26,43.8,11.75,73.8099-1.92,10.4401-2.87,15.66-5.47,21.36-5.26,11.5601-13.34,18.4-18.61,22.8501-6.33,5.3599-12.15,10.28-21.43,13.0399-13.62,4.05-25.59.75-31.85-.98-3.27-.9-8-3.2001-17.5-7.4-21.15-9.35-30.9-15.1899-34.83-17.61-12.02-7.4301-15.71-11.4-17.17-13.0599-3.59-4.0801-4.58-6.51-10.04-14.4401-5.94-8.63-8.18-10.72-12.21-16.2799-6.53-9.03-15.41-21.3101-17.42-35.55-1.6-11.42,3-11.4,4.81-29.3401.36-3.5699.52-7.0699.54-10.45.15-20.1799-4.9-36.3101-5.88-39.37-4.58-14.23-8.92-18.0499-8.9-29.8199.01-5.0601,1.78-11.1001,5.33-22.96,6.08-20.29,9.27-30.5901,16.93-38.3901,5.18-5.28,6.11-3.6499,12.05-9.85,8.52-8.9,9.01-14.7799,15.35-23.38,4.6899-6.3799,5.36-4.4099,21.04-17.83,12.13-10.39,13.75-13.2999,29.16-26.54,7.88-6.7799,11.88-10.1899,15.11-11.71,8.16-3.83,15.9-4.09,31.3799-4.61,9.91-.3301,14.86-.5,18.94.4399,12.63,2.92,14.56,9.27,24.95,10,5.89.41,10.23-1.3199,18.9-4.79,14.13-5.6399,13.73-9.5599,23.1-12.3699,14.45-4.3201,28.08,1.2,32.41,2.95,4.72,1.9099,8.63,4.26,11.79,6.52,2.93,2.08,5.22,4.1,6.91,5.6,8.9901,7.99,8.7,11.6801,16.33,17.5399,4.44,3.4202,7.85,4.7001,21.69,9.4601,29.57,10.17,27.39,8.9,32.27,11,12.07,5.1801,23.79,10.39,32.4,22.24,1.27,1.74,2.23,3.2999,8.22,16.61,9.55,21.24,14.32,31.8601,15.45,36.1101,2.3,8.6499,7.16,26.96-.95,46.72Z" />
        <path class="cls-3"
          d="M313.3563,101.805l-.0005,5.8254h.0015c8.6265,0,15.7944,2.8971,18.8691,4.1396,3.6602,1.4813,7.2222,3.4523,10.6025,5.87,2.7432,1.9475,4.9531,3.9089,6.4126,5.2043,3.9731,3.5312,5.9058,6.09,7.7749,8.5645,2.1431,2.8377,4.3594,5.7721,8.8696,9.2361,5.2319,4.0302,9.1597,5.4731,23.3506,10.3539,15.4175,5.3024,22.2534,7.5122,25.9263,8.6993,3.3306,1.0767,3.8423,1.2421,5.9409,2.1452,10.8779,4.6684,22.1265,9.4958,29.9927,20.3211.9858,1.351,1.9902,3.0729,7.6118,15.5645,8.8037,19.58,14.1177,31.3983,15.1333,35.218,2.1621,8.1319,6.6611,25.0529-.7119,43.0174-2.0942,5.119-8.4458,17.918-22.1582,26.1882-8.7451,5.2774-16.9116,6.3827-33.1885,8.5857-2.7144.3708-3.5981.4147-18.3633,1.1476-3.5317.1753-7.8452.3894-13.1514.6562l-3.3511.1689c-11.9038.6007-17.8789.9022-21.5308.9022-2.4478,0-3.8457-.1349-5.7119-.4001-12.7158-1.8154-22.085-6.1914-26.5366-8.6376-7.1362-3.9241-11.5327-7.9593-18.187-14.0669-.7666-.7037-1.5332-1.4038-2.2983-2.1025-8.5894-7.8416-16.7017-15.2482-21.6123-25.2535-2.6897-5.4784-4.5508-11.3225-6.5212-17.5099-1.9912-6.2531-4.0503-12.7191-7.0664-18.9151-.8203-1.6915-1.6946-3.3529-2.6633-5.0624-2.8025-4.985-6.0457-9.7151-9.6396-14.0587l-.2573-.311-.2976-.2726c-2.3496-2.1508-4.978-3.9793-7.8149-5.4364-5.0847-2.6077-10.8975-3.9861-16.8098-3.9861-2.8352,0-5.002.3215-5.6965.4247-8.1873,1.19-13.7617,4.7735-17.0874,6.9115-1.0383.6662-2.0388,1.3663-2.9741,2.0814-5.7461,4.3251-9.0632,8.8167-10.8435,11.2271-4.6072,6.2265-10.9167,14.754-10.5393,26.1494.2732,8.1789,3.8772,13.9141,8.437,21.1702,3.3127,5.2834,5.7644,7.8781,8.603,10.8826,1.7927,1.8973,3.8242,4.0478,6.5549,7.3931,5.0383,6.1539,11.3088,13.8127,15.7583,24.5061,1.9868,4.7788,2.4929,7.4691,3.0288,10.3173.6492,3.4513,1.3203,7.02,4.2388,13.0977,2.144,4.4658,3.6582,6.4498,6.1663,9.7368,1.6885,2.2127,4.001,5.243,7.5437,10.4359,15.9041,23.3005,16.1951,40.2637,10.8323,69.4721l-.0371.2018c-1.8674,10.1528-2.7195,14.7866-5.0061,19.7993-4.73,10.395-12.1536,16.6637-17.072,20.8169-6.0117,5.0902-11.2034,9.4862-19.3259,11.9019-3.7761,1.1229-7.7632,1.6922-11.8506,1.6922-7.0046,0-12.8918-1.6269-16.7932-2.7049-2.0496-.5641-5.4358-2.0817-10.5618-4.3789-1.7939-.804-3.8213-1.7125-6.1287-2.7326-21.731-9.6067-31.064-15.3539-34.1226-17.2371-7.7744-4.8057-13.1101-8.8269-15.8594-11.953-1.9551-2.2218-2.9954-3.835-4.8835-6.7635-1.1726-1.8184-2.6316-4.0815-4.7314-7.1311-3.7175-5.4012-6.0933-8.3981-8.1892-11.0423-1.3335-1.682-2.593-3.2707-4.0989-5.3484-6.1462-8.4993-14.5637-20.1395-16.3713-32.9448-.6699-4.7819-.061-6.6609,1.1519-10.4045,1.1736-3.6217,2.781-8.5818,3.6848-17.5426.3555-3.5229.5471-7.2239.5693-10.9913.1443-19.3742-4.2578-35.2596-6.1599-41.1981-1.6882-5.2455-3.3801-9.2256-4.7395-12.4237-2.4268-5.7086-3.8914-9.1543-3.8804-15.5999.0081-4.1559,1.6567-9.8464,5.085-21.2993,6.0378-20.1494,8.9822-29.3376,15.5078-35.9827,1.9873-2.0255,3.0752-2.7125,4.4521-3.5823,1.8918-1.1948,4.0361-2.5491,7.6477-6.3189,5.6162-5.8668,8.1116-10.5884,10.5247-15.1545,1.5352-2.9049,2.9854-5.6486,5.311-8.8035,2.0312-2.7632,2.7822-3.3085,5.9424-5.6042,2.7561-2.002,6.9211-5.0275,14.1936-11.2518,5.8647-5.0235,9.3198-8.3311,12.9778-11.8328,4.0281-3.8559,8.1931-7.843,16.1921-14.7157,6.7427-5.8017,11.1973-9.6345,13.7856-10.8524,7.0764-3.3214,13.978-3.5533,29.0986-4.0612l.1328-.0045c4.2625-.142,7.6294-.2542,10.3086-.2542,3.2219,0,5.3145.1654,6.9924.552,5.1475,1.1901,8.084,2.9799,11.1931,4.8748,3.6775,2.2414,7.8457,4.7819,14.6643,5.2609.6987.0486,1.3967.0733,2.075.0733,6.2366,0,11.1895-1.9823,19.3894-5.2643,7.9741-3.1827,11.7983-5.9305,14.8711-8.1384,2.5024-1.7983,4.1558-2.9863,7.7378-4.0605,3.0425-.9096,6.3013-1.3709,9.6855-1.3711l.001-5.8254M313.3554,101.805c-3.6133.0002-7.4546.4494-11.354,1.6151-9.3701,2.8099-8.9697,6.7299-23.0999,12.3698-7.8318,3.1346-12.1304,4.8493-17.23,4.8493-.5457,0-1.1008-.0197-1.6702-.0593-10.3899-.7299-12.3198-7.0799-24.95-10-2.2664-.5221-4.8005-.7018-8.3047-.7018-2.8044,0-6.2302.1151-10.6353.2618-15.48.5201-23.22.7801-31.3799,4.61-3.2302,1.52-7.2302,4.9301-15.1101,11.71-15.4099,13.2401-17.03,16.15-29.1599,26.54-15.6802,13.4201-16.3501,11.4501-21.04,17.8299-6.3401,8.6001-6.8301,14.48-15.3501,23.3801-5.9399,6.2001-6.8699,4.5699-12.05,9.8499-7.6599,7.8-10.8499,18.1001-16.9299,38.3901-3.55,11.8599-5.3201,17.8999-5.3301,22.96-.02,11.77,4.3201,15.5899,8.9001,29.8199.98,3.0599,6.03,19.1901,5.8799,39.37-.02,3.38-.1799,6.88-.54,10.4499-1.8098,17.9401-6.4099,17.92-4.8098,29.3401,2.01,14.24,10.8899,26.52,17.4199,35.5501,4.03,5.5599,6.27,7.6499,12.21,16.2799,5.46,7.9301,6.45,10.36,10.04,14.4401,1.46,1.6599,5.1499,5.6299,17.1699,13.0599,3.9302,2.4201,13.6802,8.2601,34.8301,17.61,9.5,4.1999,14.23,6.5,17.5,7.4001,4.071,1.125,10.5549,2.9138,18.3391,2.9138,4.1855,0,8.7485-.5177,13.511-1.9339,9.2798-2.7599,15.0999-7.6801,21.4299-13.0399,5.27-4.4501,13.3499-11.2901,18.6099-22.8501,2.6001-5.6999,3.55-10.9199,5.4702-21.36,5.51-30.0099,5.2798-48.8599-11.75-73.8099-8.6101-12.6201-10.01-12.6201-13.27-19.41-4.9602-10.33-2.5-11.97-7.1401-23.13-4.76-11.4399-11.48-19.6699-16.6299-25.96-7.1501-8.76-9.72-9.69-14.73-17.68-4.4302-7.0499-7.3301-11.6801-7.55-18.2699-.3101-9.3601,4.99-16.53,9.3999-22.4901,1.78-2.4101,4.72-6.32,9.6802-10.0499.8098-.6201,1.6799-1.23,2.5999-1.8201,3.22-2.07,7.9001-5.0501,14.78-6.0501.8708-.1292,2.5906-.3641,4.8586-.3641,3.6956,0,8.8467.6237,14.1514,3.3441,2.9399,1.5099,5.1199,3.25,6.54,4.5499,2.54,3.0701,5.8398,7.49,9.05,13.2001.8499,1.5,1.6899,3.08,2.5,4.75,5.7,11.71,7.8699,24.7799,13.5999,36.45,5.8599,11.9401,15.5601,20.2301,25.2002,29.0799,7.0601,6.48,11.6997,10.6901,19.3198,14.8801,3.1299,1.7199,13.5298,7.1599,28.52,9.2999,2.1357.3034,3.79.4585,6.5352.4585,4.1328,0,10.7368-.3516,25.1748-1.0786,27.8501-1.4001,28.3501-1.35,32.0103-1.85,16.9199-2.2901,25.6499-3.4801,35.4097-9.37,16.1499-9.74,22.9199-25.01,24.54-28.9699,8.1099-19.76,3.25-38.0701.9502-46.72-1.1299-4.25-5.8999-14.8701-15.4502-36.1101-5.9897-13.3101-6.9497-14.87-8.2197-16.61-8.6104-11.85-20.3301-17.0599-32.4004-22.24-4.8799-2.1-2.6997-.8299-32.27-11-13.8398-4.76-17.25-6.0399-21.6899-9.4601-7.6299-5.8599-7.3398-9.55-16.3301-17.5399-1.6899-1.5-3.98-3.52-6.9097-5.6-3.1602-2.26-7.0703-4.61-11.79-6.52-3.1616-1.2778-11.2793-4.5655-21.0562-4.5651h0Z" />
      </g>
      <circle class="cls-5" cx="274.8781" cy="86.5913" r="12.861" />
      <circle class="cls-5" cx="520.1717" cy="279.6517" r="18.1988" />
      <circle class="cls-5" cx="379.9292" cy="500.1703" r="13.6785" />
      <circle class="cls-5" cx="149.6276" cy="513.9159" r="6.4305" />
      <circle class="cls-5" cx="52.4538" cy="378.9599" r="6.4305" />
      <circle class="cls-5" cx="211.012" cy="76.9751" r="6.4305" />
      <circle class="cls-5" cx="351.3953" cy="351.4292" r="6.4305" />
      <circle class="cls-5" cx="303.1479" cy="393.6093" r="14.6473" />
      <circle class="cls-5" cx="331.7646" cy="57.634" r="9.0784" />
      <circle class="cls-5" cx="393.6077" cy="86.5913" r="9.0784" />
      <circle class="cls-5" cx="494.1667" cy="395.7184" r="11.1378" />
      <circle class="cls-5" cx="505.3061" cy="339.6896" r="11.1378" />
      <circle class="cls-5" cx="52.4538" cy="254.1835" r="11.1378" />
      <circle class="cls-5" cx="89.489" cy="465.6329" r="8.5811" />
      <circle class="cls-5" cx="89.489" cy="154.5726" r="7.3643" />
      <circle class="cls-5" cx="494.1667" cy="213.3517" r="11.1378" />
      <circle class="cls-5" cx="46.0125" cy="308.7011" r="11.1378" />
      <circle class="cls-5" cx="293.0796" cy="481.6514" r="5.5689" />
      <circle class="cls-5" cx="452.9019" cy="137.9072" r="5.5689" />
      <circle class="cls-5" cx="413.8269" cy="345.2521" r="11.1378" />
      <circle class="cls-5" cx="210.1919" cy="514.2099" r="23.2871" />
      <circle class="cls-5" cx="138.9018" cy="116.0307" r="19.7801" />
      <circle class="cls-5" cx="404.2326" cy="436.5863" r="19.7801" />
      <circle class="cls-5" cx="234.3337" cy="259.5722" r="16.8869" />
    </g>
  </g>
</svg>
