<?xml version="1.0" encoding="UTF-8"?>
<svg id="Capa_2" xmlns="http://www.w3.org/2000/svg" width="100" height="100"
  viewBox="0 0 1258.187 1287.1407">
  <defs>
    <style>
      .cls-1 {
      fill: rgba(255, 203, 128, 0.15);
      }

      .cls-2 {
      fill: rgba(219, 150, 59, 0.25);
      }

      .cls-3 {
      fill: rgba(234, 169, 75, 0.2);
      }

      .cls-4 {
      fill: rgba(209, 131, 28, 0.3);
      }

      .cls-5 {
      fill: rgba(224, 149, 40, 0.25);
      }
    </style>
  </defs>
  <g id="Capa_1-2" data-name="Capa_1">
    <g>
      <g>
        <g>
          <path class="cls-1"
            d="M1242.0759,501.3829c-.78,2.3-1.8101,4.63-3.0901,6.95-9.6699,16.41-28.3401,25.14-46.4199,31.11-19.47,8.11-40.6799,15.4-62.6799,22.28-.04.01-.0901.03-.1301.04-32.53,10.17-66.78,19.44-99.6499,29.09-.03.01-.0701.02-.1101.03-23.8398,7-46.95,14.21-68.1699,22.11-.02.01-.03.01-.05.02-.1799.11-.3601.21-.55.33-3.9199,2.34-9.8101,5.95-15.9199,10.3-.0701.05-.1499.11-.22.16-7.1401,5.11-14.55,11.23-19.4402,17.5601-.1499.1899-.2998.3799-.4399.5699-3.99,5.33-6.1499,10.78-4.8499,15.87.6799,2.64,2.2898,5.19,5.0698,7.58.01,0,.01.01.02.01,3.79,1.9,7.76,3.43,11.8401,4.58.05.01.0898.03.1399.04,5.75,1.63,11.7102,2.53,17.6902,2.72,4.98.18,9.98-.14,14.8799-.92,3.0701-.49,6.1101-1.17,9.0801-2.02,5.1699-2.82,10.74-3.91,15.9399-3.73h.04c7.1799.27,13.6799,2.96,17.5601,6.95.0098.01.02.03.04.04,3.4897,3.58,4.8599,8.19,2.7598,13.02-1.47,3.37-4.6399,6.84-9.97,10.14-.02.01-.0398.03-.0598.04-1.03.44-2.1201.8-3.2603,1.06-.1499.04-.2998.07-.45.11-5.1399,1.1299-11.3398.67-18.05-.51-.0498,0-.0999-.02-.1599-.03-8.6599-1.52-18.1599-4.24-27.3298-6.29-.0601-.01-.1301-.03-.1902-.04-10.0798-2.25-19.75-3.68-27.46-1.83-.02,0-.04.01-.0601.01-4.0598.98-7.5698,2.88-10.3098,6.05-13.8601,24.51,6.3699,53.75,24.5298,68.71.6602.56,1.3601,1.1201,2.1101,1.69.3101.2401.6199.48.9299.7,9.8301,7.24,26.4202,15.37,46.3701,24.31,32.1299,14.41,72.97,30.94,108.28,49.28.1399.07.27.14.4099.22,33.2,17.28,61.46,36.17,72.8701,56.42.0098.0099.02.03.0298.05,5.9001,10.46,7.29,21.28,2.5601,32.42-22.9199,27.37-54.8101-3.45-95.45-43.2-24.0901-23.55-51.25-50.23-81.4399-69.79-29.1001-18.86-61.01-31.1-95.7-27.55-9.3401.72-13.0701,1.24-17.4902,10.57-2.9199,6.16-47.6799,70.9399-47.7698,70.9399.48,3.44,1.4199,6.85,2.72,10.22,3.3899,8.72,9.2,17.14,15.5999,24.98.01.02.03.04.05.06,5.3401,6.53,11.0701,12.66,16.1499,18.23,6.5103,9.06,14.4902,16.93,22.6401,24.54.03.04.0601.07.0901.09,11.6299,10.8799,23.6099,21.25,32.21,33.83,0,.01.01.02.02.03,5.71,8.36,9.9299,17.7,11.5598,28.81,0,.03.0103.06.0103.09,0,.07,0,.14-.0103.21-.0398,3.86-.5,7.34-1.2898,10.46,0,.01-.01.01-.01.02-1.8901,7.36-5.6899,12.65-10.52,15.98-.02.03-.05.05-.0801.06-8.5601,5.84-20.3301,5.56-30.5601-.27-7.3499-4.18-13.9099-11.23-17.8799-20.92-7.3401-16.45-25.71-38.05-32.1301-54.88-5.97-15.67-28.1699-41.13-44.3699-47.16-12.46-4.61-18.7,4.85-30.5701,12.52-7.8699,5.51-16.1699,10.22-24.71,14.47-7.2,3.59-14.5701,6.85-21.99,9.99-10.1499,4.31-20.3999,8.39-30.45,12.78-1.8501,1.16-3.3901,3.01-4.6301,5.45-3.1499,6.17-4.46,16.16-4.3899,28.63-.01.02,0,.04,0,.06.2,35.66,11.6199,91.52,23.3,136.17,7.9399,30.32,16,55.47,20.75,65.61,2.75,7.0699,5.6399,14.47,7.5298,21.92,0,.01.0103.02.0103.03,2.4897,9.84,3.2397,19.76-.3401,29.11-1.28,3.3799-3,6.3799-5.0701,8.99-4.03,5.13-9.3799,8.79-15.3201,10.98-8.23,3.06-17.5898,3.31-26.1599.74-7.47-2.22-14.3401-6.58-19.3401-13.06v-.01c-.26-.31-.5-.63-.73-.96-8.6099-12.67-12.0898-26.51-13.21-40.9v-.04c-1.1199-14.42.1501-29.4,1.02-44.31.9001-15.1,1.3899-30.12-1.3801-44.42-.0398-.15-.0798-.31-.1099-.47-2.8799-11.81-5.55-28.07-9.0701-45.55,0-.01,0-.02-.01-.03-5.52-27.5-13.1399-58-26.8899-78.94-10.1799-15.52-23.73-25.78-42.29-25.68h-.1301c-10.1199.88-20.1899.7-30.1699-.36-.1199-.01-.25-.02-.3699-.04-.3201-.03-.6401-.07-.9602-.11-29.5898-3.35-58.3599-14.27-85.0598-27.51-.8501-.41-1.6902-.84-2.54-1.2599-1.49-.87-2.97-1.59-4.4299-2.16-.01,0-.02-.01-.03-.01-6.1201-2.4-11.95-2.3-17.47-.51-.02,0-.04.01-.05.02-10.27,3.33-19.47,12.48-27.5,22.14-5.55,6.69-10.54,13.63-14.9299,19.06-15.1902,22.17-28.3301,46.18-41.6401,70.17-11.1799,20.15-22.49,40.29-35.26,59.33-10.6599,15.9-22.3298,31.03-35.8,44.76-7.77,10.86-17.4099,18.08-27.3398,22.19-12.98,5.37-26.48,5.42-37.02,1.29-10.8201-4.24-18.53-12.89-19.3801-24.72v-.04c-.6099-8.59,2.4001-18.85,10.45-30.32,8.2102-9.88,19.3201-16.84,30.0801-23.87,17.28-12.12,43.97-34.4,69.1201-61.46,30.99-33.36,59.6399-73.97,65.4099-111.76,2.77-18.08.29-35.52-9.6699-51.2-5.98-6.09-10.4402-11.32-14.1101-15.66-5.0999-6.05-8.6499-10.39-12.5601-12.98-2.7397-1.83-5.6499-2.79-9.3999-2.89-.01,0-.02-.01-.03,0-6.8599-.17-16.5,2.54-32.9099,8.2-.6802.32-1.3401.66-2,1.01-.5701.3-1.1401.6-1.6899.92-.77.4301-1.51.8701-2.2402,1.32-4.9399,3.02-9.3198,6.53-13.1899,10.02-.6799.62-1.3499,1.24-2.01,1.85-.74.6801-1.45,1.37-2.1499,2.05-.05.06-.1001.11-.1501.15-.8298.79-1.6199,1.58-2.3899,2.35-19.9299,19.55-19.22,30.41-32.05,34.5699-.3499.1201-.72.22-1.0798.33-8.4102,2.48-15.77,1.39-21.52-1.82-4.6001-2.54-8.1902-6.45-10.48-10.97-4.5-8.84-4.05-20.04,3.3699-28.05,3.3601-3.62,8.1401-6.59,14.53-8.4,14.4099-5.75,19.1001-1.73,30.3699-5.06,6.8201-2.45,14.2202-7.2,21.1201-13.37,9.8701-8.83,18.6799-20.58,23.21-32.71.01-.05.04-.1.0601-.16,2.5601-6.94,3.72-14.01,2.8701-20.73-.0103-.0601-.02-.13-.03-.19-.4202-3.1801-1.3101-6.28-2.7102-9.25-8.6299-25.8-8.3499-68.09-45.95-64.83-37.96,4.84-76.8098,15.38-112.53,29.4-38.6599,14.92-62.3198,45.7-81.3499,80.26-9.1101,16.52-24.1101,7.53-32.3801-4.82-5.8599-8.7599-10.9099-18.75-10.3999-29.27.51-10.57,6.55-20.08,13.46-28.1,38.53-44.66,102.78-59.06,157.8101-70.74,36.3699-7.73,102.1399-16.94,87.1799-71.94-17.6101-64.71-106.6499-38.79-155.2-62.78-46.1499-12.47-47.95-67.46,6.6899-60.88,17.0901,4.08,30.76,16.4,45.1401,26.51,17.6199,12.41,37.3298,21.81,57.98,27.92,22,6.96,62.8398,21.01,68.6099-12.52,4.48-12.6,8.9302-25.73,7.53-39.04-4.05-38.28-46.3401-62.37-73.6299-83.1-6.6201-5.03-13.53-10.44-16.5601-18.18-3.02-7.7401-.24-18.3701,7.7-20.81,4.8999-1.5,10.3.5,14.27,3.74,3.97,3.24,6.8401,7.6,9.9299,11.69,24.0701,31.93,64.7,49.41,104.4001,46.3099,2.6499-.21,5.3499-.52,7.74-1.68,15.4299-7.48,16.5598-39.2599,15.76-53.42-1.1899-21.18-7.71-41.85-15.74-61.34-15.7-38.13-38.5701-73.29-63.4202-106.02-14.4399-19.01-29.6799-40.25-47.6499-56.14-7.96-7.03-16.8501-13.34-22.55-22.31-13.6299-21.38,4.8101-49.7,29.95-45.73,25.8901,4.48,37.9001,31.17,47.6899,52.78,16.55,46.46,215.2402,304.88,234.3,155.01,2.5601-20.12-4.3999-40.45-8.48-60.09-2.3398-11.23-13.3999-51.69,8.1001-51.83,3.52-.02,7,1.05,10.29,2.21,1.7898.62,3.6099,1.3,5.02,2.56,1.24,1.11,2.0798,2.6,2.7698,4.11,1.8601,4.09,2.8201,8.53,3.4602,12.98,2.73,19.13-.3101,38.5-1.4402,57.65-.7898,13.52-1.5598,28.33,3.3801,41.22,4.3401,11.34,13.96,18.16,26.02,19.29,42.1299,3.92,44.5901-8.93,45.6199-46.26,1.48-14.57,2.3901-50.41,24.96-47.65,7.1602.88,13.5103,6.53,15.2102,13.54,3.0398,12.59-7.6101,23.94-11.78,36.2-18.1602,79.85,61.0698,56.5,98.0698,22.1801,67.4402-68.47,72.0303-172.84,101.4402-259.98,4.3899-27.54,33.79-47.14,54.27-20.93,24.6799,34.22-12.77,88.81-29.29,119.42-27.71,62.87-112.5701,194.45-79.6599,257.64.0298.05.0598.11.0898.17,45.46-16.97,61.8601-34.17,69.23-50.77,6.0701-13.65,6.04-26.89,11.0601-39.24,2.9099-7.1801,7.53-14.06,16.03-20.54,12.54-4.9,28.1499,7.2,26.53,20.54-1.24,10.37-10.1899,17.77-17.49,25.23-19.79,20.18-31.1501,47.68-51.98,66.8-8.76,7.11-13.8701,13.43-16.2302,19.38-.0298.06-.0498.11-.0698.17-3.3301,8.56-1,16.39,4.24,24.79,1.55,2.4901,3.3601,5.03,5.3601,7.65,2.2798,3,4.7998,6.11,7.45,9.38,1.3799,1.68,2.78,3.41,4.21,5.19,7.7,7.15,17,10.84,26.95,11.89,17.2,1.83,36.3201-4.2,52.3701-13.73,8.6099-5.12,16.3398-11.24,22.4199-17.71.01-.02.03-.05.05-.07,5.78-7.28,7.48-12.87,15.05-16.93,3.8298-2.57,7.95-3.69,11.8298-3.57,5.79.17,11.05,3.07,14.04,7.91.03.03.05.07.0701.11,2.01,3.33,2.95,7.58,2.24,12.48-.02.12-.03.24-.05.36-.3101,1.98-.8901,4.07-1.78,6.24-2.49,5.05-6.49,6.42-22.1301,14.11-21.73,10.67-17.6899,9.81-23.98,12.2401-19.0798,7.34-24.1699,3.0099-44.22,11.29-3.3,1.61-7.8799,3.62-12.23,6.11-.02,0-.03.01-.05.03-4.8799,2.79-9.46,6.19-11.6399,10.29-1.0601,2-1.55,4.17-1.22,6.51,13.9399,29.68,55.98,31.11,98.2,25.98.03-.01.0701-.02.1101-.02,18.6599-2.26,37.3499-5.81,53.6599-8.76,15.1699-2.74,28.27-4.97,37.3601-5.17h.1299c17.1799-1.41,32.98-6.17,47.6499-13.22.04-.01.0801-.03.1201-.05,11.0801-5.33,21.51-11.95,31.4299-19.39q.01,0,.01-.01c12.52-9.41,24.21-20.14,35.3201-31.26.3899-.38.77-.77,1.1599-1.16,6.49-5.01,13.01-7.49,19.1001-7.97,12.77-1.02,23.6299,6.72,28.1599,18.26,2.79,7.1,3.1799,15.63.1301,24.44Z" />
          <path class="cls-2"
            d="M890.2641,14c7.5146,0,15.2817,3.6532,22.0718,12.343,24.6799,34.22-12.77,88.8101-29.29,119.4198-27.71,62.87-112.5701,194.4502-79.6599,257.6403.0298.0499.0598.1097.0898.1699,45.46-16.97,61.8601-34.1699,69.23-50.7699,6.0701-13.65,6.04-26.89,11.0601-39.2401,2.9099-7.1802,7.53-14.0599,16.03-20.5399,1.947-.7609,3.9692-1.1119,5.9883-1.1119,10.9849,0,21.9102,10.3833,20.5417,21.6519-1.24,10.3701-10.1899,17.77-17.49,25.2301-19.79,20.1799-31.1501,47.6799-51.98,66.7999-8.76,7.11-13.8701,13.4301-16.2302,19.38-.0298.0601-.0498.11-.0698.1698-3.3301,8.5602-1,16.3903,4.24,24.7903,1.55,2.49,3.3601,5.0299,5.3601,7.6499,2.2798,3,4.7998,6.11,7.45,9.38,1.3799,1.6798,2.78,3.4098,4.21,5.1901,7.7,7.15,17,10.8397,26.95,11.89,2.0713.2203,4.1707.3267,6.2888.3267,15.4719,0,31.9641-5.6743,46.0813-14.0568,8.6099-5.12,16.3398-11.24,22.4199-17.71.01-.02.03-.0499.05-.0699,5.78-7.2803,7.48-12.87,15.05-16.9301,3.6453-2.446,7.5535-3.5786,11.2673-3.5786.1882,0,.3755.0028.5625.0087,5.79.1699,11.05,3.0699,14.04,7.9099.03.03.05.0698.0701.1101,2.01,3.3297,2.95,7.5797,2.24,12.48-.02.12-.03.24-.05.3597-.3101,1.98-.8901,4.0702-1.78,6.24-2.49,5.0503-6.49,6.4203-22.1301,14.11-21.73,10.6703-17.6899,9.8103-23.98,12.2402-19.0798,7.34-24.1699,3.0098-44.22,11.29-3.3,1.6097-7.8799,3.6198-12.23,6.1097-.02,0-.03.01-.05.0303-4.8799,2.7899-9.46,6.1899-11.6399,10.2899-1.0601,2-1.55,4.1698-1.22,6.51,10.1726,21.6584,35.3098,28.2737,64.5601,28.2737,10.833,0,22.2295-.9072,33.6399-2.2937.03-.0099.0701-.0199.1101-.0199,18.6599-2.26,37.3499-5.8101,53.6599-8.76,15.1699-2.74,28.27-4.9701,37.3601-5.1703h.1299c17.1799-1.4098,32.98-6.1698,47.6499-13.2197.04-.0103.0801-.0303.1201-.05,11.0801-5.3302,21.51-11.95,31.4299-19.39q.01,0,.01-.01c12.52-9.4099,24.21-20.1399,35.3201-31.26.3899-.3799.77-.7699,1.1599-1.1599,6.49-5.0103,13.01-7.49,19.1001-7.97.7561-.0604,1.5056-.0901,2.2473-.0901,11.7866-.0001,21.6506,7.4933,25.9126,18.35,2.79,7.1001,3.1799,15.63.1301,24.4398-.78,2.3003-1.8101,4.63-3.0901,6.9502-9.6699,16.4098-28.3401,25.14-46.4199,31.11-19.47,8.1101-40.6799,15.4-62.6799,22.28-.04.01-.0901.0298-.1301.0398-32.53,10.1703-66.78,19.4402-99.6499,29.0901-.03.01-.0701.02-.1101.03-23.8398,7-46.95,14.21-68.1699,22.1101-.02.01-.03.01-.05.02-.1799.1099-.3601.21-.55.3298-3.9199,2.3401-9.8101,5.9502-15.9199,10.3-.0701.05-.1499.1101-.22.1599-7.1401,5.1101-14.55,11.2302-19.4402,17.5601-.1499.1899-.2998.3801-.4399.5701-3.99,5.3301-6.1499,10.78-4.8499,15.8699.6799,2.6401,2.2898,5.1902,5.0698,7.5801.01,0,.01.01.02.01,3.79,1.9001,7.76,3.4299,11.8401,4.5801.05.01.0898.03.1399.04,5.75,1.6299,11.7102,2.53,17.6902,2.72.9023.0327,1.8062.0488,2.7092.0488,4.0801,0,8.1587-.3303,12.1707-.969,3.0701-.49,6.1101-1.1699,9.0801-2.0198,4.8081-2.6226,9.9626-3.7493,14.8433-3.7493.3674,0,.7327.0063,1.0967.019h.04c7.1799.27,13.6799,2.9602,17.5601,6.9502.0098.01.02.03.04.0398,3.4897,3.5801,4.8599,8.1902,2.7598,13.02-1.47,3.3701-4.6399,6.8401-9.97,10.1401-.02.01-.0398.03-.0598.04-1.03.4399-2.1201.7998-3.2603,1.0598-.1499.04-.2998.0701-.45.1101-2.0498.4507-4.2693.6484-6.6213.6484-3.5459,0-7.3945-.449-11.4287-1.1584-.0498,0-.0999-.02-.1599-.03-8.6599-1.52-18.1599-4.24-27.3298-6.29-.0601-.01-.1301-.03-.1902-.04-6.8481-1.5286-13.5085-2.6787-19.4922-2.679-2.8237,0-5.4958.2559-7.9678.8491-.02,0-.04.01-.0601.01-4.0598.98-7.5698,2.8799-10.3098,6.05-13.8601,24.51,6.3699,53.75,24.5298,68.71.6602.5598,1.3601,1.1199,2.1101,1.6899.3101.24.6199.48.9299.7,9.8301,7.24,26.4202,15.3701,46.3701,24.3101,32.1299,14.4099,72.97,30.9399,108.28,49.28.1399.0701.27.1399.4099.22,33.2,17.28,61.46,36.1699,72.8701,56.4199.0098.01.02.03.0298.05,5.9001,10.46,7.29,21.28,2.5601,32.4199-6.0698,7.2485-12.7725,10.4167-20.0964,10.4167-20.3318,0-45.4763-24.3938-75.3535-53.6167-24.0901-23.55-51.25-50.23-81.4399-69.79-25.7129-16.6648-53.625-28.1609-83.7051-28.1621-3.9624-.0002-7.9573.199-11.9949.6123-9.3401.72-13.0701,1.24-17.4902,10.5698-2.9199,6.1602-47.6799,70.9399-47.7698,70.9399.48,3.4402,1.4199,6.8501,2.72,10.2202,3.3899,8.72,9.2,17.1399,15.5999,24.98.01.02.03.04.05.0598,5.3401,6.53,11.0701,12.6602,16.1499,18.2302,6.5103,9.0598,14.4902,16.9299,22.6401,24.5398.03.04.0601.0701.0901.0901,11.6299,10.8799,23.6099,21.25,32.21,33.8301,0,.01.01.02.02.03,5.71,8.3599,9.9299,17.7,11.5598,28.8098,0,.03.0103.0601.0103.0901,0,.0701,0,.1399-.0103.21-.0398,3.8601-.5,7.3401-1.2898,10.46,0,.01-.01.01-.01.02-1.8901,7.3601-5.6899,12.6501-10.52,15.98-.02.03-.05.05-.0801.0601-4.1792,2.8513-9.1235,4.2437-14.2803,4.2437-5.4055,0-11.0442-1.53-16.2798-4.5137-7.3499-4.1799-13.9099-11.23-17.8799-20.9199-7.3401-16.45-25.71-38.05-32.1301-54.8801-5.97-15.6699-28.1699-41.1299-44.3699-47.1599-2.2754-.8418-4.3435-1.2146-6.2764-1.2146-8.6506,0-14.5913,7.4653-24.2937,13.7346-7.8699,5.51-16.1699,10.22-24.71,14.47-7.2,3.5901-14.5701,6.8501-21.99,9.99-10.1499,4.3101-20.3999,8.3899-30.45,12.78-1.8501,1.1599-3.3901,3.01-4.6301,5.45-3.1499,6.1699-4.46,16.1599-4.3899,28.6301-.01.02,0,.0398,0,.0598.2,35.6602,11.6199,91.52,23.3,136.1702,7.9399,30.3198,16,55.47,20.75,65.6099,2.75,7.0701,5.6399,14.47,7.5298,21.9202,0,.01.0103.0198.0103.0298,2.4897,9.8401,3.2397,19.76-.3401,29.1101-1.28,3.3799-3,6.3799-5.0701,8.99-4.03,5.1301-9.3799,8.79-15.3201,10.98-4.4766,1.6646-9.2878,2.4976-14.1243,2.4976-4.0547,0-8.1272-.5854-12.0356-1.7576-7.47-2.22-14.3401-6.5801-19.3401-13.0601v-.01c-.26-.3098-.5-.6299-.73-.96-8.6099-12.6699-12.0898-26.51-13.21-40.8999v-.04c-1.1199-14.4199.1501-29.3999,1.02-44.3101.9001-15.0999,1.3899-30.1199-1.3801-44.4199-.0398-.1499-.0798-.3101-.1099-.47-2.8799-11.8101-5.55-28.0701-9.0701-45.55,0-.01,0-.02-.01-.03-5.52-27.5-13.1399-58-26.8899-78.9399-10.1304-15.4441-23.6006-25.6797-42.0212-25.6807-.0906,0-.1782.0002-.2688.0007h-.1301c-4.3601.3792-8.7117.5615-13.05.5615-5.7312,0-11.4397-.3181-17.1199-.9216-.1199-.01-.25-.02-.3699-.04-.3201-.03-.6401-.0698-.9602-.1099-29.5898-3.3501-58.3599-14.27-85.0598-27.51-.8501-.4102-1.6902-.8401-2.54-1.26-1.49-.8701-2.97-1.5901-4.4299-2.1602-.01,0-.02-.01-.03-.01-3.2102-1.2588-6.3413-1.8298-9.3892-1.8298-2.7625-.0002-5.4563.4688-8.0808,1.3198-.02,0-.04.01-.05.02-10.27,3.3301-19.47,12.48-27.5,22.1401-5.55,6.6899-10.54,13.6299-14.9299,19.0601-15.1902,22.1699-28.3301,46.1799-41.6401,70.1699-11.1799,20.1499-22.49,40.29-35.26,59.3301-10.6599,15.8999-22.3298,31.0298-35.8,44.76-7.77,10.8599-17.4099,18.0798-27.3398,22.1899-6.9495,2.875-14.0486,4.2251-20.7622,4.2251-5.8257,0-11.3608-1.0164-16.2578-2.9351-10.8201-4.24-18.53-12.8901-19.3801-24.72v-.04c-.6099-8.5901,2.4001-18.8501,10.45-30.3201,8.2102-9.8801,19.3201-16.8401,30.0801-23.8701,17.28-12.1199,43.97-34.3999,69.1201-61.46,30.99-33.3599,59.6399-73.97,65.4099-111.76,2.77-18.0798.29-35.52-9.6699-51.2-5.98-6.0901-10.4402-11.3201-14.1101-15.6599-5.0999-6.05-8.6499-10.3901-12.5601-12.98-2.7397-1.8301-5.6499-2.79-9.3999-2.8901-.0066,0-.0132-.0044-.02-.0044-.0032,0-.0066.001-.01.0044-.2017-.0051-.407-.0076-.6138-.0076-6.8203-.0002-16.3689,2.7141-32.2961,8.2075-.6802.3201-1.3401.6602-2,1.01-.5701.3-1.1401.6001-1.6899.9202-.77.4299-1.51.8699-2.2402,1.3198-4.9399,3.02-9.3198,6.53-13.1899,10.02-.6799.6201-1.3499,1.24-2.01,1.8501-.74.6799-1.45,1.3699-2.1499,2.05-.05.0601-.1001.1099-.1501.1499-.8298.79-1.6199,1.5801-2.3899,2.3501-19.9299,19.55-19.22,30.4099-32.05,34.5698-.3499.1201-.72.2202-1.0798.3301-3.1626.9324-6.1772,1.3604-9.0129,1.3604-4.7056,0-8.9194-1.1775-12.5071-3.1804-4.6001-2.5398-8.1902-6.45-10.48-10.97-4.5-8.8398-4.05-20.04,3.3699-28.0498,3.3601-3.6201,8.1401-6.5901,14.53-8.4001,14.4099-5.75,19.1001-1.73,30.3699-5.0601,6.8201-2.45,14.2202-7.2,21.1201-13.3699,9.8701-8.8301,18.6799-20.5801,23.21-32.71.01-.05.04-.1001.0601-.1602,2.5601-6.9399,3.72-14.01,2.8701-20.73-.0103-.0601-.02-.1299-.03-.1899-.4202-3.1799-1.3101-6.28-2.7102-9.25-8.3127-24.8521-8.3628-65.0046-41.9607-65.0081-1.2815-.0002-2.6077.0581-3.9893.178-37.96,4.8401-76.8098,15.3801-112.53,29.4001-38.6599,14.9199-62.3198,45.7-81.3499,80.26-3.5503,6.438-7.9961,9.0022-12.5886,9.0022-7.1917,0-14.7444-6.2852-19.7915-13.8223-5.8599-8.76-10.9099-18.75-10.3999-29.27.51-10.5701,6.55-20.0801,13.46-28.1001,38.53-44.6599,102.78-59.0598,157.8101-70.74,36.3699-7.73,102.1399-16.9399,87.1799-71.9399-17.6101-64.7098-106.6499-38.79-155.2-62.7799-43.5583-11.7699-47.5999-61.4244-1.9746-61.4244,2.7144,0,5.5964.1749,8.6646.5444,17.0901,4.0801,30.76,16.3998,45.1401,26.51,17.6199,12.4098,37.3298,21.8101,57.98,27.92,11.2041,3.5446,27.2986,8.9291,41.1548,8.9291,13.3511,0,24.6238-4.9952,27.4551-21.4493,4.48-12.5997,8.9302-25.7297,7.53-39.0398-4.05-38.28-46.3401-62.37-73.6299-83.1-6.6201-5.03-13.53-10.4399-16.5601-18.1801-3.02-7.74-.24-18.37,7.7-20.8099,1.1348-.3474,2.2966-.5071,3.4609-.5071,3.8638,0,7.7583,1.7573,10.8091,4.2471,3.97,3.24,6.8401,7.6,9.9299,11.6901,22.2351,29.4958,58.6072,46.6627,95.3181,46.6627,3.0295,0,6.0554-.1167,9.082-.353,2.6499-.2097,5.3499-.5198,7.74-1.6798,15.4299-7.48,16.5598-39.2599,15.76-53.4202-1.1899-21.1798-7.71-41.8497-15.74-61.3397-15.7-38.13-38.5701-73.2903-63.4202-106.02-14.4399-19.01-29.6799-40.25-47.6499-56.1403-7.96-7.0298-16.8501-13.3397-22.55-22.3098-12.7581-20.0125,2.5825-46.1057,25.2148-46.1057,1.5466,0,3.1272.1218,4.7351.3757,25.8901,4.48,37.9001,31.17,47.6899,52.7798,12.9014,36.2177,136.4895,201.2451,199.3823,201.2451,17.7864,0,30.7158-13.1949,34.9177-46.2351,2.5601-20.1198-4.3999-40.4498-8.48-60.0897-2.3398-11.2301-13.3999-51.6901,8.1001-51.8301.0322-.0001.0649-.0002.0972-.0002,3.4871,0,6.9329,1.0609,10.1929,2.2103,1.7898.62,3.6099,1.2999,5.02,2.5599,1.24,1.11,2.0798,2.6,2.7698,4.11,1.8601,4.09,2.8201,8.5298,3.4602,12.98,2.73,19.13-.3101,38.5-1.4402,57.65-.7898,13.52-1.5598,28.33,3.3801,41.22,4.3401,11.3401,13.96,18.16,26.02,19.29,4.7981.4464,9.082.6754,12.9077.6754,29.7642,0,31.7998-13.8569,32.7122-46.9354,1.4255-14.0337,2.3225-47.8009,22.5549-47.8009.7732,0,1.5742.0493,2.405.1509,7.1602.88,13.5103,6.53,15.2102,13.54,3.0398,12.59-7.6101,23.9399-11.78,36.2-9.0337,39.7203,6.0322,53.9049,28.0103,53.9049,22.2046,0,51.4646-14.4769,70.0596-31.7249,67.4402-68.47,72.0303-172.84,101.4402-259.98,2.9346-18.4093,17.0476-33.2731,32.1982-33.2731M890.2643,0c-11.1396,0-22.0669,4.9814-30.769,14.0266-7.6882,7.991-13.0022,18.5378-15.0459,29.8157-8.5066,25.4111-15.032,52.4203-21.345,78.5518-15.3054,63.3521-31.1296,128.8562-76.2283,174.806-17.2036,15.8518-43.0757,27.7778-60.3101,27.7778-6.2805,0-10.6936-1.5397-13.1169-4.5758-4.1672-5.2214-4.6755-16.6599-1.4138-31.4565,1.032-2.8037,2.6575-5.8972,4.3716-9.1586,4.822-9.1752,10.823-20.5941,7.5378-34.1997-3.0647-12.639-14.2119-22.5642-27.1113-24.1497-1.3877-.1698-2.769-.2554-4.1128-.2554-8.207,0-23.1086,3.2904-30.7004,25.3265-3.6345,10.5498-4.6599,22.342-5.4087,30.9525-.1304,1.5004-.25,2.8826-.3743,4.1069-.0347.342-.0569.6852-.0662,1.0288-.3491,12.6484-.8943,24.4078-3.6968,29.3108-.627,1.0968-2.2922,4.0106-15.021,4.0106-3.3164,0-7.2229-.207-11.6106-.6152-4.8586-.4552-11.2825-2.6219-14.2417-10.3541-3.9458-10.2957-3.1665-23.6327-2.4792-35.3997.2693-4.5618.6479-9.1003,1.0493-13.9056,1.2546-15.033,2.5522-30.5778.2744-46.5386-.6096-4.2382-1.7444-10.5726-4.5762-16.7983-1.0725-2.348-2.8684-5.7842-6.1758-8.745-3.5986-3.2157-7.6086-4.6072-9.7673-5.355-4.4119-1.553-9.2556-2.984-14.7832-2.984l-.1841.0004c-8.1208.053-15.22,3.3885-19.9934,9.3928-10.8103,13.5969-6.9226,36.0837-2.4302,56.0938.2773,1.2343.5203,2.3134.7048,3.199.9492,4.5695,2.0461,9.1681,3.1069,13.6152,3.5269,14.7838,6.8579,28.7478,5.1904,41.8516-2.1025,16.532-6.2622,24.6206-9.3816,28.4952-3.1077,3.86-6.5911,5.507-11.6479,5.507-6.4121,0-21.0811-3.0405-47.2803-23.4049-18.1421-14.1017-39.1169-34.4673-60.657-58.8953-42.3486-48.0264-73.1531-95.3152-78.2568-109.6428-.1304-.3656-.2756-.7256-.4358-1.0792l-.0994-.2191c-10.4861-23.1476-24.8474-54.8495-57.9558-60.5784-.0676-.0117-.135-.0228-.2026-.0337-2.2991-.3629-4.6272-.5471-6.9197-.5471-15.8171,0-30.4968,8.8503-38.3103,23.0974-7.8474,14.3093-7.365,30.9575,1.2903,44.5343,5.5925,8.8007,13.2515,15.2474,20.0088,20.9352,1.7778,1.4965,3.457,2.9099,5.0791,4.3423,14.8357,13.1188,27.989,30.5574,40.709,47.422,1.6995,2.2529,3.385,4.4878,5.0601,6.693,28.7112,37.8154,48.2927,70.5076,61.6228,102.8818,9.0984,22.0824,13.7712,40.1283,14.7075,56.7948.1848,3.2704.6182,14.7767-1.5486,25.7075-1.917,9.6697-4.8899,13.5381-6.2651,14.2908-.2993.0894-1.0337.2192-2.8132.3601-2.6228.205-5.3118.3093-7.9771.3093-32.7925,0-65.0325-15.7448-84.1387-41.0902-.5281-.6992-1.0405-1.3948-1.5535-2.0908-2.8474-3.8623-6.0747-8.2401-10.7039-12.0182-5.8472-4.7722-12.8298-7.4005-19.6611-7.4005-2.5881,0-5.1316.377-7.5598,1.1204-6.8376,2.1014-12.4019,6.9922-15.6814,13.776-3.7822,7.8234-4.1418,17.3596-.9622,25.5094,4.5588,11.6454,14.1382,18.924,21.1326,24.2384,4.2739,3.2466,8.7639,6.473,13.5176,9.8885,24.3186,17.474,51.8818,37.2793,54.6602,63.5372,1.0342,9.8328-2.314,20.2634-6.7988,32.8766-.2678.7532-.4707,1.5281-.6062,2.316-.9578,5.5658-2.5715,9.8234-13.658,9.8234-10.887,0-24.7842-4.417-34.9316-7.6422l-2.0005-.6348c-.0833-.0264-.1667-.0518-.2505-.0767-19.5188-5.7754-37.6504-14.5033-53.8909-25.9414-2.7761-1.9519-5.51-3.9794-8.4043-6.126-12.3547-9.162-25.1296-18.6361-41.5461-22.5554-.52-.1239-1.0466-.2184-1.5776-.2821-3.5544-.4281-7.0327-.645-10.3379-.645-12.6523,0-23.2283,3.0596-31.4333,9.094-8.1792,6.0154-13.4099,14.7992-14.7285,24.7336-1.5229,11.4745,2.1094,23.403,10.228,33.5878,7.9006,9.9111,19.2661,17.2067,32.9338,21.1547,19.3259,9.1656,42.9014,11.5028,65.7168,13.765,19.0789,1.8916,38.8071,3.8474,53.7156,9.8369,14.8687,5.9731,23.2676,15.1357,27.2334,29.7085,2.7288,10.0322,2.1423,18.0166-1.7935,24.4082-10.4758,17.0127-44.4441,23.9465-66.9216,28.5347-2.7356.5583-5.3694,1.0962-7.8667,1.6267-24.1772,5.1318-57.2939,12.1609-87.1938,23.625-33.9182,13.0044-59.5322,29.9038-78.3057,51.6641-10.7507,12.4775-16.2583,24.4377-16.8438,36.5708-.7566,15.606,6.9128,29.0068,12.7476,37.7288,8.4036,12.5493,20.1509,20.0381,31.428,20.0381,5.9351,0,17.0549-2.1101,24.8479-16.2417,22.2278-40.3677,44.3967-62.4841,74.1309-73.9595.0249-.0095.0496-.0193.0745-.0288,35.9998-14.1296,73.6445-23.9846,108.8877-28.5066.8691-.0691,1.7146-.1038,2.5166-.1038,13.0144.0012,17.325,9.1096,23.6699,36.4792,1.4783,6.3765,3.0066,12.9697,5.0137,18.97.1743.5212.3794,1.032.6138,1.5293.7546,1.6003,1.2573,3.3206,1.4941,5.1128.0132.1006.0276.2012.043.3015.4744,4.0574-.2239,8.6885-2.0762,13.77-.0642.1633-.1252.3267-.1829.4905-3.5178,9.2825-10.5593,19.0972-19.3491,26.9609-5.5146,4.9312-11.229,8.6426-16.1387,10.4883-2.8425.7915-4.9656.8345-8.1101.8979-5.4597.1104-12.2263.2476-22.4341,4.2141-8.2468,2.4526-15.0615,6.5347-20.2639,12.1394-10.9595,11.8308-13.1482,29.0686-5.5852,43.925,3.6426,7.1907,9.2366,13.0291,16.1648,16.8611,5.8826,3.2769,12.375,4.9382,19.2986,4.9382,4.261,0,8.6257-.6501,12.9731-1.9321.0413-.0122.083-.0247.1243-.0374l.2136-.0632c.4077-.1196.8145-.2432,1.2097-.376,11.5527-3.7834,16.7371-11.3826,21.7502-18.7319,3.6218-5.3098,7.7271-11.3281,15.676-19.1252.032-.0315.064-.0632.0955-.095.6877-.6875,1.3396-1.3394,1.9946-1.9675.2166-.1985.428-.4041.6333-.6157.5706-.5537,1.1111-1.0757,1.635-1.5576l.1448-.1333c.5901-.5457,1.1885-1.0986,1.7949-1.6523,3.873-3.4905,7.5012-6.2542,11.0901-8.4485.6707-.4131,1.2334-.7451,1.7639-1.0413.0725-.0405.1445-.0815.2163-.1233.2937-.1711.7185-.3945,1.168-.6313.3298-.1748.6055-.3179.8459-.4397,10.9333-3.7581,21.6523-7.1667,26.9294-7.1665.0813,0,.1753.001.2676.0034.031.0007.0623.0012.0933.002,1.1687.0408,1.48.2488,1.907.5339.0151.0103.0303.0205.0457.0303,2.0073,1.3298,5.1213,5.0281,8.7266,9.3105l.8601,1.021c3.9058,4.6189,8.1631,9.5796,13.7207,15.3135,7.033,11.6794,9.2983,24.9124,6.9248,40.4026-5.7078,37.3835-36.7729,77.3804-61.8286,104.3518-24.7104,26.5872-50.6211,48.0818-66.7117,59.3933l-1.6819,1.0969c-10.9309,7.124-22.2341,14.4907-31.3169,25.4209-.2429.2922-.4736.5942-.6919.9053-9.4248,13.4292-13.7888,26.5811-12.9731,39.0938.0051.1062.0112.2109.0186.3123,1.1895,16.55,11.7451,30.2888,28.2363,36.7512,6.6047,2.5881,13.793,3.9004,21.3657,3.9004,8.8455,0,17.6316-1.7795,26.1143-5.2888,12.7539-5.2791,24.0442-14.2817,32.7168-26.075,12.6504-12.999,24.6628-28.062,36.6995-46.0154,12.8362-19.1387,23.8408-38.6475,35.8735-60.3337l2.2273-4.0166c12.0806-21.7905,24.5686-44.3167,38.4175-64.5906,1.8684-2.3267,3.7769-4.821,5.79-7.4529,2.7791-3.6326,5.6526-7.3887,8.6682-11.0237,3.072-3.6958,12.4473-14.9741,21.0435-17.7615.0422-.0137.0842-.0276.1262-.0417-1.3645.4521-2.8059.6924-4.2832.7039,1.4287-.0112,2.8474-.2415,4.2065-.6821.0652-.021.1301-.0417.1948-.0618,1.9587-.6753,3.7437-1.7771,5.2258-3.2266-1.5024,1.4702-3.2793,2.5605-5.2141,3.2229,1.2446-.3845,2.4102-.5718,3.5554-.5718,1.3979,0,2.7974.2825,4.2793.8635.0569.0225.114.0444.1711.0659.749.3005,1.5354.6902,2.3394,1.1597.2803.1638.5662.3179.8574.4617.2957.1462.5901.2939.8845.4409.5676.2844,1.1345.5676,1.7051.8438,32.8677,16.2917,62.167,25.7251,89.5674,28.8376.3179.0396.6357.0776.9539.1111.2559.032.4861.0549.6934.0732,6.1948.6531,12.4009.9839,18.4485.9839,4.5684,0,9.1558-.1887,13.647-.5615,7.562.0361,18.835,2.1587,30.1169,19.3589,12.7822,19.4661,20.0051,49.7805,24.8701,74.0166.0222.1106.0457.2207.0706.3306,1.2688,6.3127,2.4219,12.4409,3.5374,18.3699,1.8826,10.0039,3.6621,19.4595,5.5364,27.1917.032.1487.0637.2883.0945.4175,2.4551,12.9792,1.8821,27.1553,1.0823,40.5718-.1252,2.1465-.2576,4.2764-.3901,6.406-.8047,12.9485-1.637,26.335-.6316,39.575.0054.0981.0117.1948.019.2888,1.4636,18.8035,6.5625,34.4004,15.5886,47.6824.0291.0427.0583.0857.0879.1282.3677.5278.7344,1.0203,1.1121,1.4927.0083.0107.0168.0217.0251.0327,6.5964,8.5491,15.738,14.7485,26.436,17.9275,5.1609,1.5479,10.5635,2.3379,16.0239,2.3379,6.5859,0,12.9795-1.136,19.0034-3.3757,8.5549-3.1536,15.981-8.4971,21.439-15.4395,2.9963-3.7859,5.4048-8.0527,7.1594-12.6814,4.1763-10.9316,4.4458-23.2034.825-37.5151l-.0007.0002c-.022-.0867-.0447-.1729-.0681-.259-2.0769-8.115-5.0376-15.7266-7.9019-23.0901l-.0942-.2422c-.1135-.2922-.2368-.5803-.3699-.864-3.7581-8.0225-11.364-30.6814-19.8845-63.2175-14.1355-54.0371-22.6743-103.6282-22.8433-132.6682,0-.0312,0-.0625-.0002-.0938-.0823-14.6501,1.9287-20.3274,2.8308-22.1294,5.1309-2.2126,10.4006-4.3926,15.5176-6.5095,4.1228-1.7058,8.3857-3.4692,12.5938-5.2561,9.1958-3.8916,16.2219-7.085,22.7651-10.3474,9.9365-4.9451,18.5398-9.9802,26.2832-15.3843,3.3154-2.158,6.1428-4.3442,8.6438-6.2778,2.7678-2.1404,6.5586-5.0715,7.8291-5.0715.1467,0,.5781.0337,1.4182.3445,11.9604,4.4519,31.4585,26.7114,36.1455,39.0142,3.9924,10.4653,11.3562,21.5991,18.4778,32.3665,5.3679,8.1162,10.917,16.5059,13.8743,23.0645,4.8997,11.822,13.3511,21.6011,23.8203,27.5547,7.2781,4.1479,15.3047,6.344,23.2004,6.344,8.0017,0,15.5811-2.2542,21.938-6.5212.2546-.1658.5037-.3391.7471-.5205,7.6284-5.3975,13.033-13.4714,15.6609-23.3982.0408-.1421.0793-.2847.1157-.4282l.0005.0002c1.0586-4.1814,1.634-8.6665,1.7117-13.3376.0137-.3003.0166-.5583.0166-.7681,0-.5422-.0339-1.1045-.0981-1.6558-.0176-.1558-.0376-.3113-.0603-.4663-1.8062-12.3105-6.3223-23.6321-13.8049-34.6064-.0229-.0342-.0461-.0684-.0693-.1025-8.3281-12.1824-19.1089-22.1631-29.5344-31.8152-1.5024-1.3911-3.0078-2.7847-4.5073-4.1865-.0859-.0845-.1729-.168-.261-.2502-8.5264-7.9612-15.3311-14.8303-20.8259-22.4768-.3167-.4407-.6589-.863-1.0247-1.2639-.7864-.8623-1.5884-1.738-2.4021-2.6265-4.416-4.8223-8.9827-9.8088-13.2544-15.0325-.032-.0393-.0642-.0781-.0964-.1169-6.5925-8.0845-10.9575-14.998-13.3425-21.1331-.2832-.7341-.5393-1.4629-.7676-2.1836,1.0271-1.4841,2.2473-3.25,3.6155-5.2339,3.0012-4.3523,9.0417-13.1277,15.7747-23.0037,23.7109-34.7786,25.2192-37.9604,26.0293-39.6702.4985-1.0518.8772-1.72,1.1309-2.1248,1.2458-.2097,3.4734-.3816,4.7847-.4827.1167-.009.2329-.0193.3491-.0312,3.4995-.3582,7.0557-.5398,10.5698-.5398,24.3008.0012,49.1907,8.4768,76.0908,25.9106,28.6367,18.554,55.05,44.3767,78.354,67.1597l.9136.8933c14.2634,13.9509,29.0151,28.3799,42.4583,38.8149,16.5151,12.8198,30.0779,18.7905,42.6819,18.7905,11.884,0,22.2568-5.1907,30.8298-15.4285.8875-1.0596,1.613-2.2446,2.1531-3.5166,6.1619-14.5117,5.0635-29.9412-3.1741-44.6301-.0757-.1382-.1533-.2747-.2332-.4102-11.4922-20.2131-36.3789-39.8088-78.28-61.6379-.2292-.1267-.4578-.2478-.6907-.366-25.7424-13.366-54.6045-25.8892-80.0713-36.939-10.21-4.4297-19.8535-8.614-28.8582-12.6526-15.2554-6.8362-34.0161-15.605-43.7966-22.8086-.0691-.0508-.1384-.1011-.2085-.1504-.1479-.1062-.2961-.2251-.4465-.3416-.0325-.0251-.0718-.0552-.1042-.0801-.5625-.4275-1.0627-.8279-1.5291-1.2231-.0508-.043-.1016-.0854-.1526-.1277-13.3174-10.9707-29.6956-32.8523-22.0398-49.4617.4492-.3008,1.0742-.5916,2.0037-.8335.0806-.0178.1611-.0364.2415-.0557,1.2795-.3071,2.8611-.4626,4.7009-.4626,5.3311.0002,11.937,1.3372,16.4424,2.3428.0649.0144.1301.0286.1956.0422.0356.0076.071.0154.1064.0227,3.2241.7227,6.6133,1.5615,9.8921,2.3726,5.8286,1.4424,11.8523,2.9326,17.6772,3.9688.2429.0498.4851.093.7275.1299,5.1194.8872,9.5576,1.3186,13.5596,1.3186,3.4939,0,6.6428-.3188,9.627-.9749.146-.032.291-.0664.4358-.103.105-.0249.2048-.0488.302-.0728,1.8618-.4358,3.7-1.0388,5.4656-1.793.2578-.1099.512-.2275.7622-.3528.45-.2249.8975-.4807,1.3286-.7581,7.4219-4.6282,12.5603-10.1277,15.2729-16.3474,4.272-9.8247,2.1885-20.4321-5.5671-28.3889-.0435-.0444-.0872-.0889-.1313-.1328-6.519-6.6404-16.3389-10.6753-26.9683-11.0752-.0889-.0034-.1777-.0059-.2666-.0073-.4636-.0144-.9287-.0215-1.396-.0215-6.9504,0-13.8176,1.6001-19.9724,4.6406-2.0413.5386-4.1067.9761-6.1575,1.3035-3.3081.5266-6.6624.7939-9.9641.7939-.7336,0-1.4751-.0134-2.2039-.0396-.0203-.001-.0408-.0015-.0608-.0022-4.8794-.155-9.6685-.8862-14.2358-2.1736-.1235-.0369-.2468-.0718-.3701-.1052-2.3125-.6582-4.5742-1.4695-6.7544-2.4219.2749-.7139.8816-1.9375,2.2134-3.7163.021-.0286.042-.0569.063-.0852.0417-.0547.1018-.1294.1611-.2046.0286-.0364.0588-.075.0867-.1113,2.301-2.9783,7.033-7.9519,16.5098-14.7346.0823-.0588.1687-.1218.2546-.1848,5.9414-4.228,11.8611-7.8127,14.3757-9.3176,17.7759-6.5767,38.1799-13.1758,65.9026-21.3184.1133-.031.2383-.0667.3733-.1074,11.6663-3.4243,23.7468-6.8694,35.4312-10.2014,21.2444-6.0579,43.209-12.3218,64.2488-18.8972.075-.0227.1421-.0435.2002-.062.0146-.0044.0293-.009.0442-.0137,25.3477-7.9269,45.5125-15.088,63.397-22.5155,17.085-5.682,40.9656-15.7123,53.5857-37.1287.0674-.114.1328-.229.197-.345,1.6562-3.0024,3.0291-6.0944,4.0808-9.1898,3.9324-11.4001,3.8088-23.502-.3494-34.083-6.4927-16.5398-21.7791-27.2299-38.9421-27.2299-1.1145,0-2.2461.0453-3.3628.1344-9.2283.7274-18.1626,4.3762-26.5403,10.8439-.4729.365-.9219.76-1.3442,1.1824l-.4302.4324c-.2009.2026-.3999.4044-.603.6022-.0439.0431-.0876.0862-.1311.1296-12.4224,12.4333-23.1714,21.9546-33.8276,29.9637-.0569.0428-.1133.0859-.1694.1295-9.7905,7.3287-19.1692,13.1265-28.655,17.7141-.1304.0577-.2598.1176-.3884.1794-14.0032,6.7295-27.8408,10.6072-42.2854,11.8478-10.1887.2587-23.822,2.5917-39.2786,5.3835-1.8826.3405-3.793.6882-5.7312,1.041-14.4778,2.6356-30.8779,5.6213-46.9138,7.5721-.2471.0256-.4937.0577-.7393.0962-11.96,1.4407-22.2808,2.1414-31.5374,2.1414-33.2456,0-44.8152-9.3649-49.3928-15.8179.9399-.7764,2.4023-1.8218,4.6414-3.1019.0547-.0312.1089-.0629.1631-.0947,2.7229-1.5509,5.7202-2.9655,8.3684-4.2151.8906-.4204,1.7366-.8198,2.5208-1.199,8.5544-3.4933,13.6033-4.2029,19.4358-5.0222,6.2976-.8849,13.4355-1.8877,24.0898-5.9865,3.6594-1.4136,5.0581-2.1846,7.4136-3.5366,2.1338-1.225,6.1057-3.505,17.7104-9.2031,2.0222-.9943,3.8423-1.8793,5.4895-2.6801,12.4768-6.0658,18.7395-9.1106,23.0266-17.8058.1423-.2885.2747-.5817.3965-.8792,1.2761-3.1115,2.1704-6.2694,2.6584-9.3862.0269-.1708.051-.3414.073-.5123l.0007-.0055c1.126-7.7704-.2458-15.1926-3.9678-21.4849-.1604-.2806-.3298-.5549-.5076-.8225-5.4707-8.5917-14.9036-13.8884-25.3191-14.1942-.3081-.0096-.6401-.0146-.9734-.0146-6.4468,0-12.8215,1.9229-18.4817,5.5679-7.9561,4.4385-11.7429,10.0646-15.0938,15.0426-1.1121,1.6522-2.1667,3.2189-3.4268,4.8372-5.1521,5.3839-11.6875,10.4945-18.9409,14.808-13.1274,7.7944-26.9541,12.0898-38.9255,12.0898-1.6421,0-3.2595-.0836-4.8074-.2482-7.1858-.7585-13.3074-3.3177-18.2202-7.611-1.3088-1.6254-2.481-3.0679-3.5642-4.3867-2.5781-3.1812-5.0132-6.1863-7.1602-9.0116-1.9272-2.5248-3.4329-4.6683-4.6213-6.578-4.4067-7.0638-3.9866-9.9299-3.1174-12.2131.0254-.0619.0505-.1239.0754-.186,1.0408-2.6243,3.9744-7.1265,12.0391-13.672.2205-.179.4353-.3644.6445-.5564,12.2869-11.2782,21.293-24.7095,30.0027-37.6982,7.2661-10.8364,14.1294-21.0715,22.5059-29.6132.938-.9584,1.9097-1.9207,2.9387-2.9392,7.4883-7.4128,16.8074-16.6384,18.4565-30.431,1.0723-8.8302-1.9414-18.0072-8.272-25.153-6.7461-7.615-16.5295-12.1613-26.1707-12.1613-3.8352,0-7.5642.6973-11.0833,2.072-1.2144.4744-2.356,1.116-3.3928,1.9064-9.5544,7.2838-16.2659,15.9244-20.5173,26.4154-2.8064,6.9041-4.2163,13.646-5.5798,20.1659-1.3669,6.5359-2.6582,12.7096-5.2974,18.6438-4.1877,9.4321-13.8049,23.2076-48.301,38.116-4.1179-18.2257-.6404-43.6506,10.4014-75.8406,12.6707-36.9391,32.6042-75.7571,50.1917-110.0055,9.3682-18.2432,17.4751-34.0304,23.4194-47.4508,1.9475-3.5898,4.2341-7.6044,6.6492-11.8446,19.2161-33.7373,48.2559-84.7216,21.4167-121.9353-.105-.1456-.2129-.2891-.3235-.4304-8.9302-11.4291-20.6865-17.7233-33.103-17.7233h0Z" />
        </g>
        <g>
          <path class="cls-5"
            d="M784.1816,666.0125c-8.4581,71.9919-59.4762,139.1686-128.9613,159.8355-23.4982,6.9972-49.0527,8.7285-72.5147,1.587-41.6224-12.6599-73.2-54.3906-66.708-95.2917,1.8034-11.3795,6.5285-22.6868,14.8241-33.2908,13.9044-17.7996,35.491-29.125,46.6179-48.7639,8.0612-14.283,9.5942-31.1809,12.0288-47.4115.0178-.036.0178-.0721.0178-.1082,3.2643-21.5146,8.8189-43.498,22.3805-60.5222,19.8374-24.8689,55.1658-34.8777,86.1124-27.5199,18.3044,4.3463,34.8775,14.1568,48.3852,27.3035,9.3237,9.0891,17.1863,19.7653,23.1376,31.3251,14.5716,28.2593,18.3946,61.2616,14.6797,92.8571Z" />
          <path class="cls-4"
            d="M614.7445,836.5219c-11.6611,0-22.8682-1.5918-33.3496-4.7822-21.4092-6.5117-40.4951-20.2695-53.7432-38.7373-13.6602-19.0439-19.377-40.9082-16.0986-61.5645,2.0127-12.6982,7.3027-24.5938,15.7246-35.3574,6.2461-7.9971,13.9307-14.7002,21.3613-21.1816,9.7324-8.4902,18.9258-16.5098,24.8857-27.0283,6.623-11.7363,8.6416-25.9307,10.5947-39.6582.2949-2.0732.5898-4.1436.8984-6.2031.0059-.0352.0107-.0713.0176-.1074,0-.0029.001-.0059.001-.0078,2.9141-19.2031,8.1973-43.6787,23.3105-62.6514,20.3154-25.4678,56.752-37.1553,90.6729-29.0938,18.3828,4.3652,35.8408,14.2061,50.4834,28.457,9.6875,9.4443,17.7617,20.374,24,32.4893,14.0479,27.2441,19.2861,60.248,15.1484,95.4424-4.25,36.1719-19.3574,72.1953-42.5391,101.4355-24.1191,30.4209-55.1055,51.9258-89.6094,62.1885-14.2295,4.2373-28.2959,6.3604-41.7588,6.3604ZM593.8881,603.5453c-.2939,1.9707-.5762,3.9512-.8584,5.9346-2.0703,14.5527-4.2109,29.6006-11.6709,42.8203-6.7207,11.8613-16.9297,20.7676-26.8037,29.3809-7.1123,6.2041-14.4678,12.6201-20.1875,19.9424-7.4697,9.5479-12.1543,20.0527-13.9258,31.2236-5.9229,37.3184,22.5957,77.8184,63.5732,90.2822,20.8867,6.3594,45.0664,5.8066,69.9209-1.5938,65.5527-19.4971,117.2734-83.667,125.7764-156.0488h.001c3.9277-33.4082-.9863-64.6221-14.2109-90.2686-5.7939-11.2539-13.29-21.4023-22.2793-30.165-13.4746-13.1152-29.4805-22.1582-46.2842-26.1484-30.5947-7.2705-63.3701,3.1543-81.5547,25.9482-13.7422,17.251-18.6738,40.1562-21.4248,58.2275-.0156.1572-.04.3125-.0713.4648ZM584.9858,602.5619v.0078-.0078ZM585.4047,600.7426v.001-.001ZM585.4106,600.7318c-.001.001-.001.0029-.002.0039.001-.002.001-.0029.002-.0039ZM585.4154,600.722c-.001.002-.002.0029-.0029.0049.001-.002.002-.0029.0029-.0049ZM585.4213,600.7084c-.001.0029-.0029.0059-.0039.0088.001-.0029.0029-.0059.0039-.0088Z" />
        </g>
      </g>
      <circle class="cls-3" cx="386.7637" cy="639.808" r="27.3512" />
      <circle class="cls-3" cx="520.4151" cy="453.7755" r="24.2088" />
      <circle class="cls-3" cx="360.0989" cy="827.5695" r="18.1988" />
      <circle class="cls-3" cx="406.6092" cy="487.8982" r="6.4305" />
      <circle class="cls-3" cx="152.5086" cy="549.4448" r="6.4305" />
      <circle class="cls-3" cx="858.7436" cy="649.9841" r="6.4305" />
      <circle class="cls-3" cx="656.7601" cy="1057.7781" r="6.4305" />
      <circle class="cls-3" cx="726.463" cy="420.8899" r="14.6473" />
      <circle class="cls-3" cx="1047.813" cy="563.908" r="14.6473" />
      <circle class="cls-3" cx="538.2878" cy="217.1593" r="9.8546" />
      <circle class="cls-3" cx="262.0739" cy="140.5695" r="14.6473" />
      <circle class="cls-3" cx="863.3273" cy="147.345" r="9.4363" />
      <circle class="cls-3" cx="711.8157" cy="902.2128" r="9.0784" />
      <circle class="cls-3" cx="895.7302" cy="989.536" r="9.0784" />
      <circle class="cls-3" cx="604.2961" cy="849.8451" r="9.0784" />
      <circle class="cls-3" cx="227.952" cy="1147.1559" r="9.0784" />
      <circle class="cls-3" cx="798.7463" cy="816.4317" r="11.1378" />
      <circle class="cls-3" cx="847.428" cy="522.3189" r="19.6024" />
      <circle class="cls-3" cx="1107.2913" cy="860.9829" r="11.1378" />
      <circle class="cls-3" cx="448.4804" cy="860.9829" r="11.1378" />
      <circle class="cls-3" cx="787.6085" cy="501.6688" r="11.1378" />
      <circle class="cls-3" cx="476.7373" cy="493.0877" r="8.5811" />
      <circle class="cls-3" cx="819.1834" cy="581.2087" r="8.5811" />
      <circle class="cls-3" cx="468.1562" cy="688.0511" r="8.5811" />
      <circle class="cls-3" cx="122.7695" cy="718.4459" r="8.5811" />
      <circle class="cls-3" cx="888.3659" cy="601.6551" r="7.3643" />
      <circle class="cls-3" cx="604.2961" cy="369.8372" r="7.3643" />
      <circle class="cls-3" cx="428.008" cy="777.6146" r="11.1378" />
      <circle class="cls-3" cx="296.3274" cy="605.9501" r="11.1378" />
      <circle class="cls-3" cx="638.4573" cy="950.3111" r="11.1378" />
      <circle class="cls-3" cx="55.4652" cy="777.6146" r="11.1378" />
      <circle class="cls-3" cx="638.4573" cy="464.7609" r="11.1378" />
      <circle class="cls-3" cx="407.7724" cy="409.7521" r="16.5074" />
      <circle class="cls-3" cx="697.2576" cy="481.4676" r="5.5689" />
      <circle class="cls-3" cx="400.1787" cy="539.0134" r="5.5689" />
      <circle class="cls-3" cx="558.2188" cy="890.2562" r="5.5689" />
      <circle class="cls-3" cx="497.5178" cy="382.4609" r="11.1378" />
      <circle class="cls-3" cx="339.6324" cy="493.0877" r="20.4664" />
      <circle class="cls-3" cx="406.6092" cy="319.8263" r="11.1378" />
      <circle class="cls-3" cx="519.7934" cy="594.2908" r="23.2871" />
      <circle class="cls-3" cx="838.9635" cy="738.226" r="19.7801" />
      <circle class="cls-3" cx="359.4126" cy="728.2948" r="19.7801" />
      <circle class="cls-3" cx="702.8265" cy="361.0688" r="19.7801" />
      <circle class="cls-3" cx="519.7934" cy="858.9235" r="22.2756" />
      <circle class="cls-3" cx="888.3659" cy="55.6505" r="22.2756" />
      <circle class="cls-3" cx="702.8265" cy="1209.4187" r="22.2756" />
    </g>
  </g>
</svg>
