<?xml version="1.0" encoding="UTF-8"?>
<svg id="Capa_2" xmlns="http://www.w3.org/2000/svg" width="100" height="100"
  viewBox="0 0 1047.4928 347.4995">
  <defs>
    <style>
      .cls-1 {
      fill: rgba(112, 86, 155, 0.2);
      }

      .cls-2 {
      fill: rgba(96, 69, 147, 0.25);
      }

      .cls-3 {
      fill: rgba(71, 50, 124, 0.3);
      }

      .cls-4 {
      fill: rgba(164, 134, 206, 0.15);
      }

      .cls-5 {
      fill: rgba(133, 102, 178, 0.2);
      }
    </style>
  </defs>
  <g id="Capa_1-2" data-name="Capa_1">
    <g>
      <g>
        <path class="cls-4"
          d="M520.9674,342.4998c-5.6465,0-11.3633-.1702-16.9902-.5059-65.6904-3.9187-111.7324-28.1953-165.0449-56.3054-10.2988-5.4299-20.9482-11.0449-32.0811-16.6973-32.4844-16.5078-73.0508-35.5688-127.6406-51.7852-44.0459-13.0913-91.0068-22.498-143.5664-28.7581-6.9414-.8301-22.3477-5.959-28.2393-14.5823-2.8057-4.1062-2.6582-7.8157-2.041-10.2043,3.9678-15.3049,24.6416-15.3049,31.4355-15.3049,1.2998,0,2.5117.0183,3.5967.0352.5879.009,1.1377.0173,1.6416.0217.7871.0061,1.5811.0093,2.3711.0093,16.1807,0,33.0879-1.3101,50.252-3.8938,31.4609-4.7334,64.3418-13.6396,103.4785-28.0286,32.2412-11.8567,64.3105-25.8718,95.3242-39.4258,35.7451-15.6211,72.707-31.7744,110.3145-44.8057,52.9512-18.3491,99.6211-27.2688,142.6768-27.2688,10.2979,0,20.5566.5178,30.4922,1.5396,73.1914,7.5295,139.9346,42.562,204.4814,76.4409l4.6396,2.4348c14.6514,7.6824,30.9805,15.0437,48.5312,21.8787,38.0029,14.822,75.7549,25.2246,114.3066,35.446l4.4277,1.1724c26.0449,6.8943,48.5381,12.8481,64.0781,19.0403,13.1514,5.2395,27.8418,12.9133,24.6914,25.8533-4.6436,19.1011-45.2285,29.5208-129.2295,49.4338-48.6943,11.5432-109.2949,25.9092-169.0977,45.7002-17.8701,5.9138-35.3379,12.3083-52.2295,18.4924-56.2842,20.605-109.4473,40.0674-170.5791,40.0674Z" />
        <path class="cls-1"
          d="M546.4547,10c9.9763-.0002,19.9702.4839,29.98,1.5132,73.97,7.6099,141.47,43.7898,207.3101,78.3298,15.8301,8.3,32.3501,15.6101,49.04,22.1101,39.6899,15.48,80.3301,26.47,114.8401,35.6199,54.3499,14.4001,93.46,24.28,89.6199,40.05-7.04,28.96-150.0601,43.5901-295.04,91.5701-76.6211,25.3564-142.5679,58.3066-221.2375,58.3066-5.5022,0-11.0576-.1609-16.6924-.4968-77.1101-4.5999-126.26-37.49-195.1599-72.47-35.4402-18.01-76.1001-36.5598-128.48-52.1199-40.2401-11.96-87.3901-22.1401-144.4001-28.9299-8.5298-1.02-28.51-8.9802-26.0298-18.5701,2.73-10.5317,17.0569-11.5566,26.5944-11.5566,1.9906,0,3.7709.0447,5.1954.0566.8038.0063,1.6105.0095,2.4143.0095,17.0658,0,34.1205-1.4092,50.9957-3.9495,35.76-5.3801,70.5699-15.8201,104.4601-28.28,69.53-25.5701,135.51-59.9299,205.5498-84.2,45.4094-15.7356,92.9517-26.9922,141.04-26.9932M546.4595,0v10l-.0017-10c-43.6277.0007-90.8333,9.0107-144.3176,27.5444-37.7922,13.0957-74.8455,29.2888-110.679,44.9487-30.9468,13.5244-62.947,27.5093-95.0479,39.3147-38.8108,14.2688-71.3798,23.095-102.4966,27.7766-16.9192,2.5469-33.5758,3.8381-49.5078,3.8381-.7777,0-1.5581-.0029-2.3358-.009-.4856-.0042-1.0222-.0125-1.5967-.0212-1.1095-.0171-2.3484-.0359-3.6772-.0359-4.8956,0-12.1697.2356-18.7887,2.2705-11.7982,3.6272-16.0208,11.1255-17.4858,16.7771-1.2411,4.7991-.2635,9.8694,2.7511,14.282,7.1957,10.5325,24.8312,15.8965,31.7715,16.7263,52.2788,6.2263,98.9674,15.5769,142.7386,28.5864,54.208,16.1033,94.5171,35.0444,126.7986,51.4492,11.1016,5.636,21.7327,11.2417,32.0139,16.6626,53.8257,28.3809,100.3113,52.8916,167.0808,56.8745,5.7253.3416,11.542.5144,17.2878.5144,62.0183,0,115.5852-19.6101,172.2974-40.3718,16.8562-6.1709,34.2861-12.5515,52.082-18.4409,59.5964-19.7229,120.0803-34.061,168.6802-45.582,88.3159-20.9358,127.5867-31.1189,132.9351-53.1196,1.0388-4.2659,1.4419-12.6052-7.5396-20.4868-4.4976-3.9468-10.9031-7.5024-20.1584-11.1902-15.8201-6.3035-38.4473-12.2932-64.6472-19.2283l-4.4304-1.1733c-38.407-10.1831-76.01-20.5435-113.7678-35.2698-17.3848-6.7708-33.5427-14.0542-48.0298-21.6501l-4.6379-2.4338C718.7852,44.4539,651.608,9.1941,577.4581,1.5657c-10.1045-1.0391-20.5339-1.5657-30.9985-1.5657h0Z" />
      </g>
      <g>
        <path class="cls-2"
          d="M480.773,280.8735c-20.3965,0-40.8008-5.4314-60.6445-16.1436-12.7676-6.8867-36.5312-19.7046-50.0469-48.4849-1.6201-3.4475-3.0293-6.9897-4.1895-10.5291-8.8115-26.6726-3.458-50.5769-.7471-59.6165,1.6494-5.5015,17.5449-54.1343,67.1611-67.5752,7.8857-2.1367,16.0439-3.22,24.248-3.22,23.4727,0,47.5068,9.1045,64.291,24.3545,2.2783,2.0706,4.8262,5.4172,7.7891,10.231,6.5156,10.5405,14.9482,27.8328,27.7109,54.0078,11.9824,24.5623,14.8721,33.2102,14.7275,44.0664-.2832,22.4307-12.7021,38.9907-18.0283,45.0693-16.8652,19.2612-38.4502,23.3911-51.3477,25.8586-6.8594,1.3149-13.8994,1.9814-20.9238,1.9814Z" />
        <path class="cls-3"
          d="M456.555,72.3916v5.8254c22.7673,0,46.0693,8.8215,62.3313,23.5967,2.0725,1.8838,4.4497,5.0249,7.2734,9.6123,6.4338,10.408,14.8354,27.6375,27.5693,53.751,12.4922,25.6094,14.5598,33.135,14.4307,42.7527-.2698,21.459-12.1926,37.3486-17.3079,43.186-16.2034,18.5063-37.1731,22.5183-49.7039,24.916-6.679,1.28-13.5342,1.9292-20.375,1.9292-19.9082,0-39.8464-5.314-59.2627-15.7952-12.4712-6.7268-35.6848-19.2483-48.7935-47.1602-1.5674-3.3354-2.9321-6.7661-4.0608-10.21-8.55-25.8794-3.3528-49.084-.7212-57.8599,1.6016-5.3423,17.0366-52.571,65.1335-65.6001,7.6367-2.0693,15.5386-3.1187,23.4861-3.1187l.0005-5.8254M456.5543,72.3916c-8.1768,0-16.5735,1.0356-25.0095,3.3215-51.5701,13.97-67.73,64.6799-69.1899,69.5498-1.9102,6.3701-8.9102,32.0601.77,61.3601,1.1699,3.5701,2.5999,7.2,4.3198,10.8601,13.9202,29.6399,38.23,42.7598,51.3,49.8098,7.9116,4.2708,31.3164,16.4934,62.0283,16.4934,6.8252,0,14.0151-.6042,21.4717-2.0334,12.7-2.4299,35.47-6.7898,52.99-26.7998,4.1799-4.77,18.4399-22.29,18.75-46.9502.1501-11.1799-2.6299-19.98-15.02-45.3799-12.8101-26.27-21.26-43.5999-27.8499-54.26-3.0901-5.02-5.78-8.5601-8.3101-10.8599-15.7788-14.3359-39.8726-25.1118-66.2505-25.1116h0Z" />
      </g>
      <circle class="cls-5" cx="160.8585" cy="165.3305" r="12.861" />
      <circle class="cls-5" cx="286.6906" cy="135.9939" r="18.1988" />
      <circle class="cls-5" cx="664.52" cy="154.1927" r="18.1988" />
      <circle class="cls-5" cx="230.1721" cy="189.3153" r="6.4305" />
      <circle class="cls-5" cx="473.7634" cy="47.5356" r="6.4305" />
      <circle class="cls-5" cx="822.74" cy="153.7284" r="6.4305" />
      <circle class="cls-5" cx="810.2504" cy="199.1922" r="14.6473" />
      <circle class="cls-5" cx="751.6263" cy="237.561" r="9.0784" />
      <circle class="cls-5" cx="712.042" cy="263.3248" r="9.0784" />
      <circle class="cls-5" cx="639.4659" cy="82.0132" r="11.1378" />
      <circle class="cls-5" cx="395.6939" cy="277.9721" r="11.1378" />
      <circle class="cls-5" cx="942.7374" cy="172.3915" r="11.1378" />
      <circle class="cls-5" cx="93.9982" cy="172.3915" r="8.5811" />
      <circle class="cls-5" cx="496.6504" cy="309.3519" r="7.3643" />
      <circle class="cls-5" cx="550.6504" cy="53.9661" r="11.1378" />
      <circle class="cls-5" cx="879.6954" cy="183.2819" r="11.1378" />
      <circle class="cls-5" cx="550.6504" cy="289.3553" r="5.5689" />
      <circle class="cls-5" cx="631.8035" cy="277.9721" r="5.5689" />
      <circle class="cls-5" cx="585.1282" cy="103.6115" r="11.1378" />
      <circle class="cls-5" cx="304.8894" cy="207.3905" r="23.2871" />
      <circle class="cls-5" cx="745.4933" cy="128.4608" r="19.7801" />
      <circle class="cls-5" cx="353.1993" cy="84.2803" r="14.8606" />
      <circle class="cls-5" cx="618.5416" cy="225.9895" r="22.2756" />
    </g>
  </g>
</svg>
