<?xml version="1.0" encoding="UTF-8"?>
<svg id="Capa_2" xmlns="http://www.w3.org/2000/svg" width="100" height="100"
  viewBox="0 0 879.908 717.606">
  <defs>
    <style>
      .cls-1 {
      fill: rgba(191, 52, 65, 0.25);
      }

      .cls-2 {
      fill: rgba(186, 12, 28, 0.3);
      }

      .cls-3 {
      fill: rgba(229, 94, 108, 0.15);
      }

      .cls-4 {
      fill: rgba(178, 47, 63, 0.25);
      }

      .cls-5 {
      fill: rgba(165, 7, 27, 0.3);
      }
    </style>
  </defs>
  <g id="Capa_1-2" data-name="Capa_1">
    <g>
      <g>
        <path class="cls-3"
          d="M471.4896,327.1976c-.6799,8.67.97,24.44,5.3701,27.22,13.5599,8.58,29.5399-4.88,46.72,2.25,13.53,5.62,12.45,9.84,30.6399,18.35,11.42,5.34,17.1201,8.01,24.51,8.24,16.22.51,18.16-10.18,37.78-13.31,5.91-.94,22.97-3.66,37.79,5.07,7.8999,4.65,11.02,10.12,17.36,9.31,7.16-.91,7.7799-8.46,16.34-10.3,7.9299-1.7,11.66,3.86,17.37.99,4.77-2.4,3.85-7.13,8.17-11.8,6.85-7.41,19.22-6.37,25.53-5.84,14.8199,1.2401,17.1199,7.26,36.76,13.59,10.6799,3.44,19.77,6.37,30.6399,5.42,23.24-2.02,36.77-20.18,37.79-19.01.77.89-6.1699,12.2401-17.59,20.93-7.25,5.53-16.3099,9.9901-26.33,10.02-10,.03-22.3801-4.35-24.51-5.1-9.4001-3.33-11.8901-5.97-21.4301-8.21-8.1901-1.92-15.4501-3.63-21.4601,0-6.2799,3.79-3.98,9.04-10.21,13.34-7.27,5-12.76-.51-23.49,4.02-2.03.85-11.02,4.65-13.28,12.29-2.5499,8.63,4.8801,17.46,10.2101,23.79,13.4301,15.94,30.2699,22.35,35.75,24.25,24.7799,8.62,43.7599,4.02,43.91,5.89.1799,2.13-17.6401,7.67-44.42,1.35-8.8199-2.08-32.02-8.16-42.9-22.47-9.6599-12.72-8.97-7.75-19.3999-21.79-1.7001-2.28-10.1602-26.29-29.1101-27.36-5.36-.3-9.04-5.41-28.76.81-10.74,3.39-18.51,6.88-23.96,9.38-4.73,2.17-7.72,3.59-9.4,3.56-16.15-.33-15.62-8.03-43.0699-17.83-10.75-3.85-28.1101-10.05-35.74-2.59-1.0701,1.05-17.8201,8.64-19.15,21.78-1.7301,17.02,12.47,20.04,15.0599,25.02.53,1.02,1.15,1.96,1.8601,2.84,7.1399,8.95,23.22,11.07,47.1599,14.22,21.72,2.86,23.25.03,34.73,4.04,4.6801,1.64,21.72,7.84,34.72,24.08,11.73,14.64,11.51,26.61,20.4301,28.16,6.0699,1.05,8.58,6.99,20.17,4.28,1.9399-.46,11.4399-5.61,28.59-3.07,16.63,2.46,19.61,2.21,32.17,4.34,6.75,1.15,15.8099,4.88,30.3899,1.79,25.02-5.3,38.6501-30.1,39.8301-28.89,1.53,1.57-18.05,35.58-49.03,39.83-10.95,1.5-23.3-.73-30.63-2.05-16.42-2.95-23.24-7.29-35.75-5.33-7.37,1.15-19.08,4.86-19.4,10.05-.5,7.86,25.3201,15.41,30.6401,16.96,14.4099,4.22,18.0199,2.6,32.6799,5.83,13.6899,3.02,28.85,6.37,40.86,16.41,20.58,17.21,23.2899,46.88,20.41,48.15-3.03,1.33-7.24-32.81-35.49-46.58-7.49-3.65-21.3301-5.08-36.76-7.91-28.0901-5.16-27.9-2.94-42.1301-8.17-3.3398-1.23-22.5399-3.2599-35.75-21.81-8.7599-12.31-5.48-16.35-15.3099-30.06-4.22-5.88-12.7999-17.85-27.58-24.51-9.17-4.14-10.4399-1.6-39.8301-6.2-15.26-2.39-22.8999-3.59-29.6199-6.26-17.78-7.09-25.27-17.52-28.5901-15.12-3.83,2.77,7.96,15.27,6.13,33.78-1.7899,18.03-14.5199,21.84-12.26,36.91,1.12,7.43,4.3199,7.18,8.4301,22.25,3.3,12.09,2.73,17.76,2.29,20.49-1.0901,6.84-3.4102,8.1-5.3601,14.69-3.53,11.99-.29,22.92.77,26.47,5.8301,19.61,23.37,27.93,22.21,29.5-1.21,1.63-21.72-5.72-30.6399-23.75-1.1801-2.39-5.5601-11.52-4.5901-22.98.5801-6.86,2.47-7.25,3.8301-16.85,1.01-7.15,2.05-14.51-.77-22.4901-2.6001-7.34-5.42-6.56-7.66-13.5099-2.5199-7.82-.9401-14.95.77-22.21,2.9301-12.47,5.98-12.35,7.66-20.54,2.76-13.46-2.4-28.85-12.26-38.44-3.1801-3.1-11.6001-11.3-20.6801-9.7-7.4401,1.32-7.64,7.86-18.38,12.76-5.24,2.4-10.1399,2.88-19.9199,3.83-9.5901.94-11.42.08-20.6801.77-12.65.94-19.0699,1.28-22.98,4.14-13.08,9.56-12.4801,31.14-9.1901,43.35,2.8101,10.41,6.76,10.95,7.66,20.68.9801,10.45-3.2999,12.79-4.59,26.95-.8301,9.05-1.64,17.92,3.0601,26.83,6.6199,12.55,19.96,17.22,22.98,18.28,6.49,2.27,6.9099.66,18.3799,3.38,10.5601,2.5,16.2001,3.84,22.2101,8.05,2.5699,1.79,12.14,8.7,15.3199,21.45,2.6001,10.39-.4299,19.11-1.53,22.14-5.2999,14.62-15.03,15.09-16.8499,25.35-2.6101,14.7,15,27.16,13.0199,29.1-1.7001,1.68-16.59-5.77-21.4501-19.91-.7899-2.33-3.3499-10.74,0-19.92,4.4701-12.24,14.2401-11.6,16.8601-21.45,2.73-10.28-4.48-23.97-13.79-27.57-5.74-2.21-7.8,1.13-19.9199,0-3.6201-.34-10.9601-1.02-18.3801-4.6-12.9399-6.23-17.73-17.23-19.9099-16.02-1.76.97,1.86,7.71,3.0601,19.85.5399,5.5,1.26,13.59-1.53,22.98-2.8101,9.42-7.8,15.6-10.73,19.15-6.52,7.92-13.3301,12.21-18.3801,15.32-10.2899,6.35-13.96,5.94-21.45,9.96-20.1799,10.82-26.25,31.36-27.5701,30.64-1.49-.82,4.2001-28.07,25.28-41.36,8.7001-5.49,13.04-4.2,23.74-12.26,6.2001-4.67,14.49-11.08,18.3801-22.21,2.8199-8.05,2.2-15.29,1.5399-22.98-.65-7.57-1.84-9.47-3.83-19.09-3.66-17.64-5.97-28.73-3.0701-41.23,2.41-10.38,6.0701-11.66,5.3601-19.34-.92-10.13-8.4102-20.39-14.55-19.95-4.28.3-4.2,5.55-12.25,12.29-1.98,1.66-9.22,7.71-19.15,9.19-10.84,1.61-15.27-3.65-20.6801,0-4.21,2.84-5.1899,8.49-6.1299,13.93-1.5,8.65,1.28,10.02,0,18.24-1.3701,8.84-5.8101,15.22-7.66,17.62-4.4,5.71-6.39,4.87-9.1901,9.25-6.48,10.11-1,22.61-2.3,22.92-1.5299.36-11.46-16.51-5.3599-28.34,2.6699-5.19,6.1299-4.95,10.76-12.86,2.58-4.4,6.28-10.72,3.7899-16.25-1.7599-3.91-6.75-7.72-10.72-6.7-7.58,1.94-2.76,19.23-14.5599,30.45-7.24,6.88-12.24,3.39-20.6801,10.78-12.03,10.53-11.72,26.2401-13.02,25.98-1.62-.32-4.18-25.46,9.9601-37.53,8.3499-7.12,15.3199-3.54,22.21-11.54,7.09-8.22,1.79-14.38,8.5599-26.06,7.7301-13.32,22.2101-18.36,24.38-19.08,9.02-3,10.99-.22,23.74-3.83,5.7-1.61,12.29-3.54,19.15-8.46,8.4701-6.07,12.63-13.31,16.09-19.31,4.15-7.22,9.5801-16.66,9.95-30,.1702-5.99.55-19.39-7.6499-27.76-.88-.89-.62-.46-9.96-8.64-3.5-3.06-5.54-4.88-6.8101-6.04-1.47-1.37-1.9099-1.86-2.38-2.45-5.9301-7.32-4-11.48-7.66-13.77-6.2999-3.93-21.28,2.58-27.58,13.62-5.08,8.91-.38,13.56-6.13,23.92-2.88,5.2-6.8101,8.49-14.55,14.86-11.4299,9.4-14.8099,9.48-21.45,15.04-16.05,13.45-18.21,31.41-19.9099,30.83-1.8701-.64-1.1602-22.99,13.0199-38.7.89-.99.28-.23,17.75-16.21,10.03-9.17,12.5-11.49,14.4601-15.98.6799-1.54,5.7899-13.65,0-22.31-6.6201-9.92-23.3801-9.16-32.97-6.37-5.1001,1.47-4.7001,2.52-25.2801,16.62-14.53,9.96-16.8,10.86-20.68,15.58-6.34,7.7-8.75,15.55-10.73,21.96-5.01,16.26-.34,20.85-6.89,31.4-3.27,5.27-5.43,6.14-11.49,15.29-6.21,9.38-9.54,14.41-10.72,21.48-1.08,6.46.87,7.28,3.06,22.78,1.69,11.96,2.61,18.43,1.53,26.4-.61,4.53-2.11,15.64-9.95,25.04-12.17,14.58-32.72,16.81-33.71,14.63-1.07-2.37,21.71-7.97,29.11-27.58,3.4-9,2.74-18.79,2.3-25.27-.81-12.02-3.63-13.84-3.83-25.39-.11-6.04-.25-14.57,3.83-23.67,4.35-9.72,8.51-8.91,13.79-19.31,2.94-5.81,8.16-16.12,3.83-25.16-3.93-8.19-13.44-10.62-15.32-11.1-12.21-3.13-23.07,3.44-27.58,6.26-16.99,10.61-13.22,21.62-30.64,36.94-10.74,9.45-21.61,13.56-31.4,17.27-19.67,7.44-38.62,9.12-39.06,7.39-.53-2.04,24.56-8.39,49.78-24.66,7.63-4.92,13.7-9.73,19.15-16.56,2.89-3.62,2.89-4.41,9.44-13.81,7.21-10.38,10.89-15.6201,14.31-17.7401,4.87-3.02,6.34-1.46,20.68-4.13,7.81-1.45,15.68-2.91,24.51-6.59,7.79-3.24,12.79-6.74,21.44-12.78,7.5-5.24,13.46-9.47,19.66-16.84,6.86-8.14,8.22-13.21,8.68-15.69.39-2.04,1.2401-6.87-.5099-12.39-1.48-4.72-3.4-5.3-7.14-11.24-5.12-8.1-3.81-10.59-8.17-17.36-1.61-2.49-3.29-4.47-10.73-11.23-13.79-12.54-20.63-19.09-25.53-19.92-2.23-.38-15.87-2.69-24.51,6.13-5.82,5.94-6.46,13.95-6.64,16.19-.67,8.33,2.9,10.2,2.55,18.02-.42,9.77-6.41,16.83-8.17,18.9-9.67,11.4-23.34,12.5-26.55,12.76-15.68,1.27-28.46-6.86-28.08-8.17.39-1.37,15.12,5.38,32.69,0,4.75-1.45,12.51-3.95,16.84-11.23,3.88-6.54,3.23-13.94,3.06-15.83-.67-7.62-3.79-8.3-3.57-14.45.07-2,.46-3.56,6.12-15.17,5.5-11.25,6.61-12.8,6.13-15.83-.47-2.95-3.03-5.71-8.17-11.23-5.86-6.31-7.26-6.35-11.23-11.24-2.64-3.23-5.32-6.58-7.15-11.7401-.96-2.71-2.97-8.34-1.53-14.81.78-3.56,1.85-3.95,5.1-11.23,1.6-3.58,2.51-6.1,4.08-10.47,6.02-16.6801,8.13-29.27,9.2-29.11,1.15.18,1.5,15.16-3.06,32.34-3.59,13.49-6.25,13.46-6.13,19.75.34,18.8,24.36,32.89,32.17,37.47,14.01,8.22,15.3,4.43,29.11,12.27,15.29,8.68,24.75,19.61,36.7599,33.74,19.54,22.96,16.38,27.19,26.04,31.75,10.0299,4.74,12.1-.43,52.85-2.67,16.65-.91,23.53-.44,29.11-6.14,6.4-6.52,2.4401-12.33,10.7201-22.94,5.6799-7.27,8.8799-6.28,16.0898-15.82,4.7101-6.24,4.6602-8.41,8.6802-11.24,6.5698-4.61,10.45-1.44,16.3398-5.61,5.73-4.06,8.73-11.79,8.17-18.35-.2599-3.03-1.3099-6.28-8.17-14.85-10.74-13.42-13.98-12.72-24.51-25.02-5.9399-6.93-8.4299-11.27-15.3199-14.81-3.13-1.6-7.98-4.09-12.7599-2.55-4.55,1.47-6.0901,5.62-11.2401,15.83-6.38,12.67-9.5699,19-13.7899,24-2.8101,3.34-8.3501,9.76-17.8701,13.79-3.8199,1.61-15.4199,5.86-28.08,2.08-10.3199-3.08-9.88-8.07-19.92-10.32-10.44-2.34-12.54,2.7-21.96,0-8.35-2.4-14.02-8.47-19.4-14.23-6.53-6.99-5.49-8.64-10.21-12.77-11.25-9.81-26.05-8.24-26.05-8.68.08-.6,27.04-3.97,37.79,10.22,2.77,3.65,3.59,7.31,8.68,11.23,6.52,5.01,13.6,5.49,15.83,5.62,3.25.18,11.6.63,13.28-3.07,1.67-3.7-5.4301-6.91-8.6801-16.85-1.89-5.76-1.43-10.9901-.5099-21.44.91-10.4,2.44-11.89,1.53-17.37-.69-4.17-2.49-8.78-7.66-15.3101-12.62-15.95-28.6-22.21-28.6-22.47.19-.35,43.25,12.37,45.96,35.74.55,4.77-.91,7.06-1.02,26.04-.05,8.0699.19,12.54,2.04,17.8799.6,1.71,2.91,8.01,8.68,14.29,3.7699,4.11,11.0199,12.01,22.47,12.77,8.87.59,15.4801-3.42,17.36-4.6,6.52-4.07,9.75-9.69,13.28-15.83,3.37-5.86,2.48-6.29,6.64-14.29,3.0499-5.87,5.66-10.91,10.21-16.34,6.86-8.2,10.37-8.06,11.75-13.28.9601-3.65-.3099-5.43-3.0699-15.32-1.16-4.16-3.74-13.42-4.5901-20.94-.99-8.66.3-15.21,1.7001-22.29,3.25-16.51,8.34-21.22,8.51-35.75.08-6.64-.9301-10.32-3.41-12.93-2.54-2.7-6.12-3.39-13.27-4.77-5.4099-1.05-9.86-1.91-15.3199-1.36-6.65.66-9.55,3.5-16,5.45-15.5599,4.6801-23.35,7.02-30.3,5.44-9.13-2.0699-17.5699-8.78-22.13-16.34-3.58-5.95-2.84-9.25-7.83-15.32-5.94-7.23-12.39-9.12-11.91-10.21.59-1.36,11.46-.59,17.36,6.47,3.8199,4.56,1.8799,7.37,5.45,13.61,3.8,6.67,10.7701,11.83,18.0401,13.62,5.98,1.48,11.0199.19,21.1099-2.38,9.26-2.36,10.4601-4.13,20.0801-6.13,7.02-1.46,10.52-2.19,14.98-1.7,4.26.47,6.47,1.58,17.02,3.4,3.3999.59,6.33,1.02,8.85-.68,2.49-1.67,3.25-4.53,3.41-5.1.34-1.27.52-3.01-1.02-8.51-.96-3.41-1.89-5.81-2.39-7.15-.37-1.01-2.9301-7.9-3.74-12.26-1.6-8.56,1.85-16.05,3.4-19.4,3.36-7.28,8.1-11.57,11.58-14.64,3.9401-3.5,7.33-5.44,13.9501-9.19,12.4299-7.04,14.1199-6.06,19.4099-10.22,9.8701-7.76,12.27-17.6801,12.9301-17.36.84.41-1.84,16.63-13.9501,25.19-6.83,4.83-9.83,2.39-18.0499,8.17-8.4701,5.96-12.5599,13.67-14.29,17.03-2.9301,5.66-6.0299,11.67-5.11,19.06.85,6.82,4.24,7.67,6.8101,15.32,2.5,7.43,1.6499,13.59,0,24.51-1.47,9.74-2.8201,10.86-7.1501,27.91-4.1199,16.25-4.8198,22.81-5.1099,26.56-.23,3.1-1.54,21.92,3.0699,23.15,1.6801.44,2.4701-1.9,7.15-4.43,5.36-2.9,7.6799-1.63,13.61-3.74,6.34-2.26,10.4-6.09,12.6-8.17,4.5-4.26,6.76-8.4,9.1899-12.94,5.8301-10.89,5.7201-16.81,10.8901-28.2599,1.3199-2.92,2.33-5.97,3.75-8.85,1.5599-3.17,2.4199-4.39,2.3799-6.46-.0499-2.78-1.6299-4.17-3.0599-6.81-1.84-3.4-2.02-6.29-2.39-11.92-.35-5.47-.72-11.3,2.39-17.7,2.5699-5.29,6.3099-8.48,8.17-9.87,1.4299-1.08,4.4299-3.29,8.85-4.43,5.64-1.45,6.91.57,10.5499-1.02,4.8501-2.11,3.74-6.17,8.5701-8.85,5.28-2.94,11.6-.87,14.24,0,4.7,1.54,9.27,4.66,8.85,5.79-.5599,1.53-9.2799-3.59-18.0399,0-5.53,2.26-5.4102,5.67-11.92,8.17-5.88,2.25-7.4301.02-11.91,2.04-8.7,3.93-10.87,15.99-11.23,18.04-.52,2.88-2.13,11.86,2.72,18.04,1.8501,2.37,3.3401,2.65,6.13,6.47,3.37,4.63,2.99,6.69,5.1,7.49,3.7,1.41,9.1201-3.24,11.92-6.81,2.0499-2.61,2.1801-3.99,4.14-8.17,3.05-6.51,5.37-11.98,10.1599-15.32,6.1001-4.25,12.3801-4.35,17.02-4.42,7.54-.12,15.72,1.92,15.66,3.4-.12,2.67-26.5699-2.14-34.73,10.56-3.8099,5.93-.76,11.23-6.4701,17.67-3.1699,3.58-6.8999,5.09-12.9299,7.52-11.37,4.58-13.4199,1.97-18.38,5.44-2.34,1.64-3.7,3.49-11.24,22.81-5.23,13.41-5.17,14.03-7.15,17.7-2.79,5.19-6.6199,12.3-13.95,18.39-9.52,7.9-15.0901,5.88-18.73,12.59-3.98,7.35-.74,16.06,0,18.05,3.08,8.26,9.4199,12.29,11.58,13.61,2.5599,1.58,10.15,5.69,18.7201,4.09,7.0199-1.31,9.5299-5.48,18.8699-14.3,20.53-19.37,25.79-15.62,31.8501-27.23,3.53-6.75,4.3799-13.04,10.8999-20.09,2.9401-3.1801,5.5-5.95,9.8701-7.83,4.1199-1.77,6.1499-1.16,8.1699-3.4,2.5601-2.84.5901-5.24,3.0601-10.22,1.51-3.03,2.4299-2.5,6.1299-7.48,3.04-4.09,4.5601-6.1299,5.1101-9.2.8-4.48-.97-8.25-2.05-10.55-3.12-6.66-8.0701-9.58-7.8301-9.87.3201-.38,9.76,3.1,13.28,12.59.25.67,3.16,8.87-.6799,16-1.97,3.67-3.88,3.64-6.13,8.17-.42.85-4.16,8.41-1.36,11.24,2.05,2.07,6.59.61,9.53-.34,3.25-1.05,6.4199-2.77,11.24-6.81,4.1799-3.51,7-6.6,10.21-10.21,10-11.27,12.74-15.31,12.9399-15.17.47.34-10,29.98-33.71,38.28-13.71,4.8-21.71-1.09-30.63,6.52-7.87,6.7-4.0099,13.29-12.2599,25.86-4.1001,6.24-6.6001,6.97-26.55,22.51-24.53,19.12-26.0601,22.15-26.5601,25.37-2.36,15.36,19.5901,30.29,22.47,32.25,6.47,4.4,5.1101,1.65,30.6401,12.33,14.9399,6.25,20.1499,9.18,29.6199,9.28,3.02.03,10.26-.18,18.3801-3.7,3.1399-1.36,17.97-9.28,21.96-12.47,15.3199-12.26,27.49-47.61,30.6399-58.51.7101-2.49,3.6801-17.7599,19.4001-30.64,6.8099-5.58,8.8298-9.9,21.45-18.89,9.6699-6.9,12.47-14.43,16.34-20.43,1.12-1.74,4.9601-12.76-.51-26.55-2.62-6.6-5.98-6.16-13.2799-15.82-2.1201-2.81-9.5-12.57-12.25-24.42-4.3301-18.61,3.8699-37.54,7.1399-37.24,4.1899.4-4.11,31.96,14.3,50.11,6.96,6.85,12.47,6.61,17.36,15.14,5.84,10.17,4.24,21.38,3.0699,29.59-.86,5.97-2.5599,17.92-11.24,28.43-6.95,8.43-10.6899,6.62-22.46,15.81-5.66,4.41-18.52,15.54-26.5601,33.38-3.51,7.8-8.28,18.4-6.1299,31.66,1.58,9.65-4.4001,21.83,3.58,22.47,5.67.44,23.71,4.82,39.3199-8.17,8.3101-6.93,23.01-15.41,37.79-16.35,15.45-.97,31.9299.69,33.7,0,20.9301-8.17-10.22-32.17,15.8301-62.8,1.8799-2.22,12.2-5.99,28.59-13.79,24.24-11.54,29.37-14.9301,35.24-19.92,2.63-2.24,7.51-15.37,8.17-31.14.8099-19.68-18.1901-33.46-17.3601-34.2,1.0801-.95,35.3701,20.94,32.6801,48.49-1.48,15.05-13.41,26-17.37,29.62-5.8201,5.34-8.11,5.23-32.6799,18.67-19.99,10.94-23.5901,13.82-25.53,18.9-1.72,4.53-11.1201,6.26-8.6801,24.73,2.7201,20.55,12.7001,25.27,15.83,26.55,5.0701,2.08,13.26-4.32,29.79-14.64,3.74-2.33,13.9301-10.33,32-12.59,7.3501-.93,21.91-1.24,34.72,3.4,13.03,4.72,10.49,5.34,22.98,11.58,12.78,6.38,24.7301,10.07,37.9601,9.87,33.98-.53,55.63-17,56-16.09.58,1.45-53.42,39.42-90.9,21.53-9.38-4.47-14.02-10.68-29.6-15.43-7.76-2.37-24.26-7.17-40.86-.91-9.91,3.75-8.62,7.19-22.47,16.34-9.77,6.47-28.26,18.69-49.02,16.82-11.23-1.02-10.3501-5-27.5801-7.74-9-1.43-19.08-3.03-30.6399,0-7.0901,1.86-14.01,6.46-27.5701,15.58-20.39,13.72-21.72,17.23-29.62,18.24-11.4401,1.46-13.63-5.29-26.5499-4.47-12.6901.8101-27.8501,8.42-28.6001,17.89Z" />
        <path class="cls-4"
          d="M360.1371,5c.0114,0,.0221.0025.0326.0075.84.4101-1.84,16.63-13.9501,25.19-6.83,4.8301-9.83,2.39-18.0499,8.1701-8.4701,5.9599-12.5599,13.67-14.29,17.0299-2.9301,5.66-6.0299,11.67-5.11,19.06.85,6.8201,4.24,7.67,6.8101,15.3201,2.5,7.4299,1.6499,13.59,0,24.51-1.47,9.74-2.8201,10.8599-7.1501,27.9099-4.1199,16.25-4.8198,22.81-5.1099,26.56-.23,3.1001-1.54,21.9201,3.0699,23.1501.1382.0362.2705.0536.3993.0536,1.4371,0,2.4558-2.1619,6.7507-4.4836,5.36-2.9001,7.6799-1.63,13.61-3.74,6.34-2.26,10.4-6.0901,12.6-8.1701,4.5-4.26,6.76-8.3999,9.1899-12.94,5.8301-10.8899,5.7201-16.81,10.8901-28.2599,1.3199-2.9201,2.33-5.9701,3.75-8.8501,1.5599-3.1699,2.4199-4.39,2.3799-6.46-.0499-2.7799-1.6299-4.17-3.0599-6.81-1.84-3.3999-2.02-6.29-2.39-11.92-.35-5.4699-.72-11.2999,2.39-17.7,2.5699-5.29,6.3099-8.48,8.17-9.87,1.4299-1.0799,4.4299-3.2899,8.85-4.43,1.7029-.4378,3.0074-.5593,4.0991-.5593,1.3607,0,2.3907.1887,3.4492.1887.9049,0,1.8306-.1379,3.0016-.6494,4.8501-2.11,3.74-6.17,8.5701-8.85,2.0354-1.1334,4.226-1.5223,6.3-1.5223,3.3063,0,6.3176.9877,7.9399,1.5223,4.7,1.54,9.27,4.6601,8.85,5.79-.0764.2089-.3054.2939-.6655.2939-1.563,0-5.6033-1.5992-10.4305-1.5992-2.2042,0-4.5726.3335-6.9438,1.3053-5.53,2.26-5.4102,5.6701-11.92,8.1701-2.5765.9859-4.3219,1.1116-5.8464,1.1116-.5217,0-1.0176-.0147-1.5121-.0147-1.3584,0-2.7064.111-4.5515.943-8.7,3.93-10.87,15.99-11.23,18.04-.52,2.88-2.13,11.8601,2.72,18.0401,1.8501,2.37,3.3401,2.6499,6.13,6.4699,3.37,4.63,2.99,6.69,5.1,7.49.4647.1771.957.2587,1.4675.2587,3.5531,0,8.0043-3.9471,10.4525-7.0687,2.0499-2.61,2.1801-3.99,4.14-8.17,3.05-6.51,5.37-11.9799,10.1599-15.32,6.1001-4.25,12.3801-4.3499,17.02-4.4199.2131-.0034.4272-.0051.6411-.0051,7.3552,0,15.0771,1.9668,15.0189,3.4051-.12,2.67-26.5699-2.14-34.73,10.56-3.8099,5.93-.76,11.23-6.4701,17.67-3.1699,3.58-6.8999,5.0899-12.9299,7.52-11.37,4.5799-13.4199,1.9699-18.38,5.44-2.34,1.6399-3.7,3.49-11.24,22.81-5.23,13.4099-5.17,14.0299-7.15,17.6999-2.79,5.19-6.6199,12.3001-13.95,18.39-9.52,7.9001-15.0901,5.88-18.73,12.5901-3.98,7.3499-.74,16.06,0,18.05,3.08,8.26,9.4199,12.2899,11.58,13.6099,2.155,1.3301,7.8757,4.4534,14.7437,4.4534,1.2908,0,2.6206-.1101,3.9764-.3633,7.0199-1.31,9.5299-5.4801,18.8699-14.3001,20.53-19.37,25.79-15.62,31.8501-27.23,3.53-6.75,4.3799-13.0399,10.8999-20.0899,2.9401-3.1801,5.5-5.95,9.8701-7.83,4.1199-1.7701,6.1499-1.1601,8.1699-3.4001,2.5601-2.8399.5901-5.24,3.0601-10.2199,1.51-3.0301,2.4299-2.5,6.1299-7.4801,3.04-4.0899,4.5601-6.1299,5.1101-9.1999.8-4.4801-.97-8.25-2.05-10.5501-3.12-6.66-8.0701-9.5799-7.8301-9.87.0156-.0184.0527-.0278.1095-.0278,1.1129,0,9.8214,3.5884,13.1705,12.6179.25.6699,3.16,8.8699-.6799,16-1.97,3.6699-3.88,3.64-6.13,8.1699-.42.8501-4.16,8.4101-1.36,11.24.764.7715,1.8739,1.0526,3.1179,1.0526,2.0939,0,4.5677-.7966,6.4121-1.3925,3.25-1.05,6.4199-2.7701,11.24-6.81,4.1799-3.51,7-6.6001,10.21-10.2101,9.8334-11.0822,12.6466-15.1734,12.9279-15.1734.0048,0,.0088.0012.0121.0035.47.3399-10,29.9799-33.71,38.2799-13.71,4.8001-21.71-1.0899-30.63,6.52-7.87,6.7001-4.0099,13.29-12.2599,25.86-4.1001,6.24-6.6001,6.9701-26.55,22.51-24.53,19.12-26.0601,22.1501-26.5601,25.37-2.36,15.36,19.5901,30.2901,22.47,32.25,6.47,4.4001,5.1101,1.6501,30.6401,12.3301,14.9399,6.25,20.1499,9.1799,29.6199,9.2799.1445.0014.2987.0023.4622.0023,3.2528,0,10.1864-.3507,17.918-3.7022,3.1399-1.3601,17.97-9.2801,21.96-12.4701,15.3199-12.26,27.49-47.6099,30.6399-58.51.7101-2.49,3.6801-17.7599,19.4001-30.6399,6.8099-5.58,8.8298-9.9001,21.45-18.89,9.6699-6.9001,12.47-14.43,16.34-20.43,1.12-1.74,4.9601-12.76-.51-26.55-2.62-6.6001-5.98-6.1601-13.2799-15.82-2.1201-2.81-9.5-12.57-12.25-24.4201-4.296-18.4635,3.7419-37.2435,7.0621-37.2435.0264,0,.052.0012.0778.0035,4.1899.4001-4.11,31.9601,14.3,50.11,6.96,6.8501,12.47,6.6101,17.36,15.14,5.84,10.17,4.24,21.38,3.0699,29.5901-.86,5.9699-2.5599,17.9199-11.24,28.43-6.95,8.4299-10.6899,6.62-22.46,15.81-5.66,4.4099-18.52,15.5399-26.5601,33.38-3.51,7.7999-8.28,18.3999-6.1299,31.6599,1.58,9.6501-4.4001,21.83,3.58,22.4701,2.3757.1844,6.925,1.0606,12.5555,1.0606,7.8073,0,17.6951-1.6836,26.7644-9.2307,8.3101-6.93,23.01-15.41,37.79-16.35,3.6776-.2309,7.4148-.3127,10.9969-.3127,8.7292,0,16.5438.486,20.3726.486,1.2004,0,2.0085-.0477,2.3304-.1732,20.9301-8.1699-10.22-32.1699,15.83-62.7999,1.8799-2.2201,12.2-5.99,28.5901-13.79,24.24-11.5401,29.3699-14.9301,35.24-19.9201,2.6299-2.24,7.51-15.37,8.1699-31.14.8101-19.68-18.1899-33.4599-17.3601-34.1999.0227-.0199.0601-.0298.1111-.0298,2.3887,0,35.2026,21.5466,32.5691,48.5198-1.48,15.0499-13.4102,26-17.3701,29.62-5.8201,5.3399-8.1099,5.2299-32.6799,18.6699-19.99,10.94-23.5901,13.82-25.53,18.9001-1.72,4.5299-11.1201,6.26-8.6799,24.7299,2.72,20.55,12.7,25.2701,15.8298,26.55.6438.2641,1.3381.3915,2.093.3915,5.1914,0,13.2656-6.0216,27.697-15.0314,3.74-2.33,13.9302-10.33,32-12.5901,2.5127-.3179,5.8682-.5633,9.708-.5633,7.3926,0,16.5813.9097,25.012,3.9634,13.03,4.7199,10.49,5.3399,22.98,11.5799,12.4502,6.2153,24.1128,9.8777,36.9382,9.8777.3401,0,.6804-.0026,1.022-.0077,33.0654-.5156,54.4556-16.1263,55.9241-16.1263.0408,0,.0659.0119.0759.0364.4697,1.1745-34.8735,26.3112-68.238,26.3112-7.8264,0-15.5408-1.3822-22.6621-4.7813-9.3799-4.4699-14.02-10.68-29.5999-15.43-4.9377-1.508-13.4163-3.9998-23.2053-4.0002-5.5955-.0002-11.6172.8135-17.6548,3.0904-9.9099,3.75-8.6199,7.19-22.47,16.3399-9.0879,6.0183-25.7227,17.0124-44.709,17.0124-1.4253,0-2.8616-.0618-4.311-.1924-11.2299-1.0199-10.35-5-27.58-7.74-5.241-.8327-10.8499-1.723-16.9023-1.7232-4.3409-.0001-8.9094.4577-13.7375,1.7232-7.0901,1.86-14.01,6.4601-27.5701,15.5801-20.39,13.7199-21.72,17.2299-29.62,18.24-1.1228.1433-2.1575.2076-3.121.2076-8.2877,0-11.3793-4.747-21.2988-4.747-.677,0-1.3857.0221-2.1301.0693-12.6901.8101-27.8501,8.4201-28.6001,17.89-.6799,8.6701.97,24.44,5.3701,27.22,3.5258,2.2309,7.2166,2.972,11.0481,2.972,7.573,0,15.7019-2.8932,24.2202-2.8932,3.7472,0,7.5677.5594,11.4517,2.1713,13.53,5.62,12.45,9.84,30.6399,18.35,11.42,5.34,17.1201,8.01,24.51,8.24.3762.0118.746.0176,1.1072.0176,15.2135,0,17.5079-10.2703,36.6729-13.3276,2.5596-.4071,7.2117-1.1482,12.8665-1.1482,7.4017,0,16.5221,1.2692,24.9235,6.2182,7.3701,4.3381,10.5808,9.3904,16.1262,9.3904.3987,0,.8086-.0261,1.2339-.0804,7.1599-.91,7.7798-8.46,16.3398-10.3,1.0906-.2338,2.1016-.3303,3.0493-.3303,4.4822,0,7.5476,2.1584,10.896,2.1584,1.092,0,2.2136-.2294,3.4248-.8381,4.77-2.4,3.8499-7.13,8.1699-11.8,4.7488-5.1368,12.1519-6.2131,18.3481-6.2131,2.7419,0,5.2461.2105,7.1819.3731,14.8201,1.24,17.1199,7.26,36.76,13.59,9.2942,2.9937,17.385,5.6012,26.4919,5.6012,1.3579,0,2.7375-.0579,4.1479-.1812,22.5151-1.957,35.9167-19.0641,37.6584-19.0641.0559,0,.0999.0176.1316.0541.77.89-6.1699,12.24-17.5898,20.93-7.25,5.53-16.3101,9.99-26.3301,10.02-.0334,0-.0688.0001-.1025.0001-9.9822,0-22.2847-4.3527-24.4075-5.1002-9.4001-3.33-11.8901-5.97-21.4299-8.21-4.6865-1.0986-9.0684-2.1285-13.0859-2.1285-3.0034,0-5.8032.5756-8.3743,2.1285-6.2798,3.79-3.98,9.04-10.21,13.34-2.7356,1.8814-5.2197,2.2748-7.8254,2.2748-1.8713,0-3.8052-.2028-5.9409-.2028-2.7935,0-5.9312.3469-9.7236,1.948-2.03.85-11.02,4.65-13.28,12.29-2.5498,8.63,4.8801,17.46,10.2102,23.79,13.4299,15.94,30.2698,22.35,35.75,24.25,13.8115,4.8045,25.8218,5.5021,33.7737,5.5021,3.2532,0,5.8274-.1168,7.5676-.1168,1.6377,0,2.5364.1033,2.5686.5046.1184,1.4025-7.5681,4.2836-20.4768,4.2836-6.696,0-14.7964-.7749-23.9431-2.9335-8.8201-2.08-32.02-8.16-42.9001-22.47-9.6599-12.72-8.97-7.75-19.3999-21.79-1.7-2.28-10.1602-26.29-29.11-27.36-3.3539-.1877-6.0503-2.2588-12.4301-2.2588-3.8159,0-8.9495.7408-16.33,3.0688-10.74,3.39-18.51,6.88-23.96,9.38-4.6809,2.1475-7.6577,3.5604-9.3473,3.5604-.0178,0-.0353-.0001-.0527-.0004-16.15-.33-15.62-8.03-43.0699-17.83-7.0802-2.5357-17.0292-6.0909-25.1757-6.0912-4.2224-.0002-7.9597.9546-10.5643,3.5012-1.0701,1.05-17.8201,8.64-19.15,21.78-1.7301,17.02,12.47,20.04,15.0599,25.02.53,1.02,1.15,1.96,1.8601,2.84,7.1399,8.95,23.22,11.07,47.1599,14.22,21.72,2.86,23.25.03,34.73,4.04,4.6801,1.64,21.72,7.84,34.72,24.08,11.73,14.64,11.51,26.61,20.4301,28.16,4.96.858,7.5444,4.9818,14.647,4.9818,1.5894,0,3.4036-.2062,5.5229-.7017,1.5596-.3698,8.0046-3.7705,19.3823-3.7705,2.7754,0,5.8445.2024,9.2078.7005,16.6299,2.46,19.6099,2.21,32.1699,4.34,4.8538.827,10.9023,2.9879,19.3379,2.9879,3.2961,0,6.9558-.3298,11.052-1.1979,24.4246-5.1738,37.9951-28.9328,39.7249-28.9328.0422,0,.0771.014.1052.0428,1.53,1.57-18.05,35.58-49.03,39.83-2.5798.3534-5.2373.4998-7.8884.4998-8.6021,0-17.1384-1.5408-22.7415-2.5497-13.5618-2.4365-20.5757-5.8212-29.6545-5.8215-1.9136,0-3.9177.1503-6.0955.4915-7.3701,1.15-19.0801,4.86-19.4001,10.05-.5,7.86,25.3201,15.41,30.6401,16.96,14.4099,4.22,18.02,2.6,32.6799,5.83,13.6899,3.02,28.8501,6.37,40.8601,16.41,20.5798,17.21,23.2898,46.88,20.4099,48.15-.0574.0253-.116.0378-.1743.0378-3.0247,0-7.6018-33.1091-35.3157-46.6177-7.49-3.65-21.3301-5.08-36.76-7.91-28.0901-5.16-27.8999-2.94-42.1301-8.17-3.3398-1.23-22.5398-3.26-35.7499-21.81-8.7599-12.31-5.48-16.35-15.3099-30.06-4.22-5.88-12.7999-17.85-27.58-24.51-9.17-4.14-10.4399-1.6-39.8301-6.2-15.26-2.39-22.8999-3.59-29.6199-6.26-16.0046-6.382-23.6721-15.4703-27.4653-15.4713-.4207-.0001-.7932.1116-1.1248.3513-3.83,2.77,7.96,15.27,6.13,33.78-1.7899,18.03-14.5199,21.84-12.26,36.91,1.12,7.43,4.3199,7.18,8.4301,22.25,3.3,12.09,2.73,17.76,2.29,20.49-1.0901,6.84-3.4102,8.1-5.3601,14.69-3.53,11.9901-.29,22.92.77,26.47,5.8301,19.61,23.37,27.93,22.21,29.5-.1089.1467-.3743.2206-.7731.2206-4.0338,0-21.7494-7.5627-29.8668-23.9706-1.1801-2.39-5.5601-11.52-4.5901-22.98.5801-6.86,2.47-7.25,3.8301-16.85,1.01-7.15,2.05-14.51-.77-22.49-2.6001-7.34-5.42-6.56-7.66-13.51-2.5199-7.82-.9401-14.95.77-22.21,2.9301-12.47,5.98-12.35,7.66-20.54,2.76-13.46-2.4-28.85-12.26-38.44-2.902-2.8289-10.1677-9.9046-18.3163-9.9048-.781,0-1.5696.0649-2.3638.2048-7.4401,1.32-7.64,7.86-18.38,12.76-5.24,2.4-10.1399,2.88-19.9199,3.83-4.2887.4203-7.0265.4808-9.5699.4808-1.0243,0-2.0171-.0098-3.0674-.0098-2.1735,0-4.5917.0419-8.0427.299-12.65.94-19.0699,1.28-22.98,4.14-13.08,9.56-12.4801,31.14-9.1901,43.35,2.8101,10.41,6.76,10.95,7.66,20.68.9801,10.45-3.2999,12.79-4.59,26.95-.8301,9.05-1.64,17.92,3.0601,26.83,6.6199,12.55,19.96,17.22,22.98,18.28,6.49,2.27,6.9099.66,18.3799,3.38,10.5601,2.5,16.2001,3.84,22.2101,8.05,2.5699,1.79,12.14,8.7,15.3199,21.45,2.6001,10.39-.4299,19.11-1.53,22.14-5.2999,14.62-15.03,15.09-16.8499,25.35-2.6101,14.7,15,27.16,13.0199,29.1-.1583.1565-.4314.2338-.7998.2338-3.5872,0-16.2429-7.3208-20.6503-20.1438-.7899-2.33-3.3499-10.74,0-19.92,4.4701-12.24,14.2401-11.6,16.8601-21.45,2.73-10.28-4.48-23.97-13.79-27.57-1.4935-.575-2.7384-.7743-3.9757-.7744-2.7928-.0001-5.5497,1.015-11.0541,1.015-1.4288,0-3.0422-.0684-4.8901-.2407-3.6201-.34-10.9601-1.02-18.3801-4.6-12.2749-5.9099-17.2162-16.112-19.5525-16.1121-.1266,0-.2455.0299-.3574.0921-1.76.97,1.86,7.71,3.0601,19.85.5399,5.5,1.26,13.59-1.53,22.98-2.8101,9.42-7.8,15.6-10.73,19.15-6.52,7.92-13.3301,12.21-18.3801,15.32-10.2899,6.35-13.96,5.94-21.45,9.96-19.8339,10.6344-26.0377,30.6584-27.4979,30.6584-.0254,0-.0494-.0061-.0721-.0184-1.49-.82,4.2001-28.07,25.28-41.36,8.7001-5.49,13.04-4.2,23.74-12.26,6.2001-4.67,14.49-11.08,18.3801-22.21,2.8199-8.05,2.2-15.29,1.5399-22.98-.65-7.57-1.84-9.47-3.83-19.09-3.66-17.64-5.97-28.73-3.0701-41.23,2.41-10.38,6.0701-11.66,5.3601-19.34-.901-9.9192-8.1018-19.963-14.1656-19.9637-.1289,0-.2567.0045-.3844.0137-4.28.3-4.2,5.55-12.25,12.29-1.98,1.66-9.22,7.71-19.15,9.19-1.5125.2246-2.9005.3156-4.1835.3156-5.4398,0-8.9977-1.6339-12.2025-1.6341-1.4565-.0001-2.8395.3372-4.2941,1.3185-4.21,2.84-5.1899,8.49-6.1299,13.93-1.5,8.65,1.28,10.02,0,18.24-1.3701,8.84-5.8101,15.22-7.66,17.62-4.4,5.71-6.39,4.87-9.1901,9.25-6.48,10.11-1,22.61-2.3,22.92-.016.0038-.0331.0057-.051.0057-1.6858,0-11.3448-16.6398-5.3088-28.3456,2.6699-5.19,6.1299-4.95,10.76-12.86,2.58-4.4,6.28-10.72,3.7899-16.25-1.5632-3.473-5.6757-6.8671-9.3574-6.8676-.4633,0-.9189.0536-1.3625.1676-7.58,1.94-2.76,19.23-14.5599,30.45-7.24,6.88-12.24,3.39-20.6801,10.78-11.9309,10.4432-11.7245,25.9832-12.9884,25.9832-.0105,0-.0209-.001-.0316-.0032-1.62-.32-4.1801-25.46,9.9601-37.53,8.3499-7.12,15.3199-3.54,22.21-11.54,7.09-8.22,1.79-14.38,8.5599-26.06,7.7301-13.32,22.2101-18.36,24.38-19.08,9.02-3,10.99-.22,23.74-3.83,5.7-1.61,12.29-3.54,19.15-8.46,8.4701-6.07,12.63-13.31,16.09-19.31,4.15-7.22,9.5801-16.66,9.95-30,.1702-5.99.55-19.39-7.6499-27.76-.88-.89-.62-.46-9.96-8.64-3.5-3.06-5.54-4.88-6.8101-6.04-1.47-1.37-1.9099-1.86-2.38-2.45-5.9301-7.3199-4-11.48-7.66-13.77-1.2566-.7839-2.859-1.1524-4.6686-1.1525-7.2625-.0002-17.868,5.9346-22.9114,14.7725-5.08,8.91-.38,13.56-6.13,23.92-2.88,5.2-6.8101,8.49-14.55,14.86-11.4299,9.4-14.8099,9.48-21.45,15.04-15.7963,13.2374-18.1382,30.8437-19.829,30.8437-.0271,0-.0541-.0045-.0809-.0137-1.8701-.64-1.1602-22.99,13.0199-38.7.89-.99.28-.23,17.75-16.21,10.03-9.17,12.5-11.49,14.4601-15.98.6799-1.54,5.7899-13.65,0-22.31-4.1052-6.1516-12.1119-8.1962-19.8878-8.1966-4.7635-.0002-9.4391.7667-13.0822,1.8266-5.1001,1.47-4.7001,2.52-25.2802,16.62-14.5299,9.96-16.7999,10.86-20.6799,15.58-6.3401,7.7-8.75,15.55-10.73,21.96-5.01,16.26-.3401,20.85-6.89,31.4-3.27,5.27-5.4301,6.14-11.49,15.29-6.2101,9.38-9.54,14.41-10.7201,21.48-1.08,6.46.87,7.28,3.0601,22.78,1.6899,11.96,2.61,18.43,1.53,26.4-.61,4.53-2.11,15.64-9.9501,25.04-9.6364,11.5446-24.5273,15.3465-30.8011,15.3465-1.6495,0-2.7028-.2626-2.9088-.7165-1.0701-2.37,21.71-7.97,29.11-27.58,3.4-9,2.74-18.79,2.3-25.27-.8101-12.02-3.63-13.84-3.8301-25.39-.11-6.04-.25-14.57,3.8301-23.67,4.35-9.72,8.51-8.91,13.7899-19.31,2.9401-5.81,8.16-16.12,3.8301-25.16-3.9301-8.19-13.4401-10.62-15.3201-11.1-2.2595-.5792-4.474-.8262-6.6095-.8264-9.4037-.0004-17.295,4.7883-20.9705,7.0864-16.99,10.61-13.22,21.62-30.64,36.94-10.74,9.45-21.61,13.56-31.4,17.27-15.0526,5.6935-29.6849,8.0142-35.9216,8.0142-1.9131,0-3.035-.2181-3.1383-.6242-.53-2.04,24.5599-8.39,49.7799-24.66,7.63-4.92,13.7001-9.73,19.15-16.56,2.89-3.62,2.89-4.41,9.4401-13.81,7.21-10.38,10.89-15.62,14.3099-17.74,4.87-3.02,6.3401-1.46,20.6801-4.13,7.8099-1.45,15.6799-2.91,24.51-6.59,7.7899-3.24,12.7899-6.74,21.4399-12.78,7.5-5.24,13.4601-9.47,19.66-16.84,6.86-8.14,8.22-13.21,8.6799-15.69.39-2.04,1.2401-6.87-.5099-12.39-1.4801-4.72-3.4-5.3-7.14-11.24-5.12-8.1-3.8101-10.59-8.17-17.36-1.61-2.49-3.29-4.47-10.73-11.23-13.79-12.54-20.63-19.0899-25.53-19.92-.8326-.1419-3.2578-.5529-6.418-.553-5.303-.0002-12.6783,1.1565-18.092,6.683-5.8199,5.94-6.46,13.95-6.64,16.19-.6699,8.33,2.9,10.2,2.55,18.02-.42,9.77-6.41,16.83-8.17,18.9-9.6699,11.4-23.34,12.5-26.5499,12.76-1.1294.0914-2.2439.1342-3.3394.1342-14.1136,0-25.0933-7.0885-24.7407-8.3042.0374-.1312.2067-.1879.4968-.1879,1.8501,0,8.6339,2.3023,17.7328,2.3023,4.3811,0,9.2969-.5333,14.4604-2.1144,4.75-1.45,12.51-3.95,16.84-11.23,3.88-6.54,3.23-13.94,3.0601-15.83-.67-7.62-3.79-8.3-3.5701-14.45.0701-2,.46-3.56,6.12-15.1699,5.5-11.25,6.61-12.8,6.13-15.8301-.47-2.95-3.03-5.71-8.1699-11.2299-5.8601-6.31-7.26-6.3501-11.2301-11.24-2.64-3.2301-5.3199-6.58-7.1499-11.7401-.9601-2.7099-2.9701-8.3399-1.53-14.81.78-3.56,1.85-3.9499,5.1-11.23,1.6-3.58,2.51-6.0999,4.08-10.4699,5.9822-16.5753,8.1034-29.1116,9.1797-29.1116.0068,0,.0137.0005.0204.0015,1.15.18,1.5,15.1601-3.0601,32.3401-3.59,13.4899-6.25,13.4599-6.13,19.75.3401,18.7999,24.36,32.89,32.17,37.4699,14.01,8.2201,15.3,4.43,29.11,12.27,15.29,8.68,24.75,19.61,36.76,33.74,19.54,22.96,16.38,27.19,26.04,31.75,2.9672,1.4023,5.2384,1.9373,8.0199,1.9373,6.6207,0,16.1354-3.03,44.8301-4.6073,16.65-.91,23.53-.44,29.11-6.14,6.4-6.52,2.4401-12.33,10.7201-22.94,5.6799-7.27,8.8799-6.28,16.0898-15.82,4.7101-6.24,4.6602-8.4099,8.6802-11.24,6.5698-4.6099,10.45-1.44,16.3398-5.6099,5.73-4.06,8.73-11.79,8.17-18.3501-.2599-3.0299-1.3099-6.2799-8.17-14.85-10.74-13.4199-13.98-12.7199-24.51-25.02-5.9399-6.93-8.4299-11.2699-15.3199-14.81-2.4386-1.2465-5.9222-3.0333-9.6023-3.0336-1.0435,0-2.1018.1434-3.1576.4836-4.55,1.4701-6.0901,5.62-11.2401,15.8301-6.38,12.6699-9.5699,19-13.7899,24-2.8101,3.3399-8.3501,9.76-17.8701,13.7899-2.7043,1.1398-9.3091,3.603-17.4276,3.603-3.3491,0-6.955-.4189-10.6523-1.5229-10.3199-3.0801-9.88-8.0701-19.92-10.3201-2.0792-.466-3.8278-.6393-5.3691-.6393-4.4718,0-7.2009,1.4586-11.2074,1.4586-1.5464,0-3.2826-.2171-5.3834-.8193-8.35-2.4-14.02-8.4699-19.4-14.2299-6.53-6.99-5.49-8.6401-10.21-12.7701-11.25-9.81-26.05-8.2399-26.05-8.6799.0284-.2133,3.4557-.7768,8.3417-.7768,8.8593,0,22.5197,1.8507,29.4484,10.9966,2.77,3.65,3.59,7.31,8.6799,11.2301,6.52,5.01,13.6001,5.49,15.8301,5.62.8837.0489,2.1448.1179,3.546.1179,3.7521,0,8.5107-.494,9.734-3.1879,1.6699-3.7001-5.4301-6.91-8.6801-16.85-1.89-5.76-1.4301-10.9901-.51-21.44.91-10.4001,2.4401-11.89,1.53-17.37-.6901-4.1701-2.49-8.7801-7.66-15.3101-12.62-15.9499-28.6-22.2099-28.6-22.47.0026-.0047.0128-.007.0305-.007,1.3036,0,43.2557,12.6894,45.9294,35.747.55,4.7701-.9099,7.06-1.02,26.0401-.0499,8.0699.1901,12.54,2.04,17.8799.6,1.71,2.91,8.01,8.6801,14.2901,3.7699,4.1099,11.0199,12.01,22.47,12.7699.6014.04,1.1935.0589,1.7734.0589,7.9723,0,13.8341-3.5589,15.5865-4.6589,6.52-4.07,9.75-9.69,13.28-15.83,3.37-5.86,2.48-6.29,6.64-14.29,3.0499-5.8699,5.66-10.9099,10.21-16.34,6.86-8.1999,10.37-8.06,11.75-13.2799.9601-3.6501-.3099-5.43-3.0699-15.3201-1.16-4.1599-3.74-13.4199-4.5901-20.94-.99-8.6599.3-15.21,1.7001-22.2899,3.25-16.51,8.34-21.2201,8.51-35.75.08-6.64-.9301-10.32-3.41-12.93-2.54-2.7-6.12-3.39-13.27-4.77-4.2463-.8242-7.9017-1.5313-11.918-1.5314-1.1005,0-2.2277.0531-3.402.1714-6.65.6599-9.55,3.5-16,5.4499-12.2844,3.6949-19.7269,5.9314-25.7356,5.9314-1.6022,0-3.1014-.1588-4.5645-.4914-9.13-2.0699-17.5699-8.7799-22.13-16.3399-3.58-5.9501-2.84-9.25-7.83-15.3201-5.9401-7.2299-12.39-9.1199-11.91-10.21.1508-.3475.9725-.5559,2.2111-.5559,3.6089,0,10.7563,1.7698,15.1489,7.026,3.8199,4.56,1.88,7.37,5.45,13.6099,3.8,6.67,10.7701,11.8301,18.0402,13.62,1.7323.4287,3.3865.6251,5.1066.6251,4.2179,0,8.8361-1.1795,16.0033-3.0051,9.26-2.36,10.4601-4.13,20.0801-6.13,5.5479-1.1537,8.8979-1.8518,12.26-1.8518.8922,0,1.7847.0491,2.72.1519,4.26.4699,6.47,1.5799,17.02,3.3999,1.6047.2785,3.1052.5215,4.5068.5215,1.5681,0,3.0126-.3037,4.3431-1.2014,2.49-1.6699,3.25-4.53,3.41-5.0999.34-1.27.52-3.01-1.02-8.51-.96-3.4101-1.89-5.81-2.39-7.1501-.37-1.01-2.9301-7.8999-3.74-12.26-1.6-8.56,1.85-16.05,3.4-19.3999,3.36-7.2801,8.1-11.57,11.58-14.64,3.9401-3.5,7.33-5.4401,13.9501-9.1901,12.4299-7.0399,14.1199-6.0599,19.4099-10.2199,9.7141-7.6373,12.1924-17.3677,12.8975-17.3677M360.1371,0c-3.3577,0-4.6427,2.7428-5.4929,4.5579-1.3546,2.8919-4.1736,8.9093-10.4949,13.8791-2.2373,1.7594-3.5699,2.3425-6.2249,3.504-2.6755,1.1706-6.3398,2.7738-12.5588,6.2959-6.4911,3.6769-10.4089,5.8962-14.8065,9.8027-3.3257,2.9338-8.9133,7.8631-12.7992,16.2829-1.696,3.6653-5.673,12.2595-3.7753,22.4137.7087,3.8147,2.5201,9.1417,3.9148,12.9378l.0454.1235.1503.402c.5181,1.3806,1.3008,3.4669,2.1216,6.3829.5945,2.1231,1.2511,4.8579,1.0087,5.8409-.4128,1.4482-1.0342,2.036-1.3706,2.2617-.2781.1875-.65.354-1.5582.354-.991,0-2.2402-.2028-3.652-.4478-5.4156-.9342-8.4904-1.6565-10.9609-2.2367-2.2625-.5314-4.0496-.9512-6.3657-1.2067-1.1147-.1225-2.1832-.182-3.2682-.182-3.8702,0-7.6007.7758-13.2474,1.9501-5.6599,1.1767-8.7188,2.3188-11.6769,3.4234-2.3162.8648-4.7113,1.7592-8.6505,2.7631l-.0637.0162c-6.7,1.7066-11.1263,2.834-14.7048,2.834-1.3451,0-2.5859-.1521-3.9054-.4786-6.0029-1.478-11.848-5.89-14.8969-11.2415-1.2938-2.2614-1.6238-3.8206-2.0057-5.626-.5304-2.5068-1.1313-5.3481-3.9559-8.7197-5.0602-6.0552-13.3876-8.8152-18.9817-8.8152-3.4847,0-5.772,1.2-6.7983,3.5666-.7924,1.7993-.7236,4.5047,1.8789,6.6243.6046.4925,1.2953.9302,2.1698,1.4845,2.1742,1.378,5.46,3.4606,8.5852,7.2646,2.382,2.8974,3.1212,4.9044,4.0571,7.4453.76,2.0635,1.6215,4.4025,3.3519,7.2785,5.5613,9.2198,15.2579,16.3598,25.3087,18.6383,1.8201.4138,3.6755.6152,5.6699.6152,6.7516,0,14.4393-2.3124,27.1759-6.1433,2.853-.8626,5.0645-1.8674,7.0154-2.754,2.691-1.2228,4.8168-2.1888,8.0381-2.5085.9839-.099,1.9327-.1469,2.9084-.1469,3.5471,0,6.9847.6673,10.9652,1.4398,6.5125,1.2569,9.2041,1.8242,10.5808,3.2876,1.0663,1.1223,2.1285,3.1055,2.0521,9.4438-.0897,7.6775-1.6881,12.2956-3.7114,18.1423-1.5402,4.4503-3.2858,9.4941-4.7047,16.7021-1.3969,7.0641-2.8422,14.3731-1.7618,23.8235.896,7.9262,3.5908,17.5891,4.7416,21.7153.7332,2.627,1.3633,4.6941,1.8696,6.3551,1.4019,4.5981,1.5013,5.1322,1.1809,6.35-.3534,1.3366-.7064,1.7042-3.0015,3.6476-1.8956,1.6053-4.4918,3.8038-7.7479,7.6958-4.8766,5.8201-7.7375,11.3261-10.7665,17.1555l-.0454.0874c-2.1804,4.1932-3.0858,6.5113-3.8134,8.3739-.701,1.7949-1.2075,3.0918-2.7241,5.7289-3.4304,5.9667-6.1376,10.6755-11.5934,14.0812-5.1373,3.2248-9.8707,3.9003-12.9388,3.9003-.4784,0-.9635-.0161-1.4417-.0479-9.455-.6275-15.5033-7.2212-19.1172-11.1608-4.5577-4.9608-6.7471-10.002-7.6466-12.5657-1.549-4.471-1.808-8.1322-1.7582-16.1935.0607-10.4411.5337-15.6841.8467-19.1535.2655-2.9424.4408-4.8862.1405-7.4902-1.3135-11.3276-10.0719-21.5298-26.0321-30.3264-10.3224-5.6893-22.4692-9.848-24.8644-9.848h-2.9563l-1.4553,2.5974-.6189,1.1254v1.2842c0,3.1506,2.4899,4.3741,3.6864,4.9621,10.5146,5.1667,19.2596,12.101,25.9926,20.6104,5.0055,6.3222,6.1696,10.1314,6.6481,13.0239.4012,2.4158.193,3.6281-.3102,6.5568-.3708,2.1587-.8789,5.1153-1.2678,9.5611-.9479,10.7665-1.4701,16.6986.7401,23.4347,1.8976,5.8035,4.9696,9.7087,7.0023,12.2928.2155.2738.4563.5801.6901.884-.8611.1624-2.141.3022-3.9955.3022-1.2789,0-2.4769-.0663-3.2695-.1102-5.0813-.2962-9.4802-1.8416-13.0601-4.5923-2.6759-2.0609-3.7615-3.9125-5.136-6.2566-.7549-1.2876-1.5356-2.619-2.6075-4.0315-8.5515-11.2879-24.6165-12.9739-33.4313-12.9739-2.3009,0-4.63.1209-6.5581.3405-2.1655.2466-6.1965.7057-6.7395,4.7747l-.0441.3293v.3322c0,2.3294,1.703,4.8172,4.9576,5.0646.271.0206.6693.0359,1.1796.0521,3.3928.1075,13.7177.4349,21.6267,7.3317,1.8151,1.5882,2.4481,2.5836,3.4968,4.2327,1.2329,1.9389,2.7675,4.352,6.3455,8.1822,5.6213,6.0182,11.9929,12.8399,21.6726,15.622,2.381.6826,4.5925,1.0139,6.7646,1.0139,2.4663,0,4.5089-.428,6.311-.8055,1.6726-.3505,3.1172-.653,4.8962-.653,1.3213,0,2.7198.1695,4.2758.5182,4.0566.9091,5.7382,2.2322,8.0654,4.0634,2.4916,1.9605,5.5924,4.4004,11.5181,6.1689,3.8486,1.149,7.9138,1.7317,12.0824,1.7317,8.6046,0,15.8291-2.5033,19.3695-3.9954,10.8464-4.5914,17.0886-12.0103,19.7542-15.1783,4.6007-5.451,7.8855-11.9742,14.4297-24.9704.6244-1.2376,1.1973-2.3895,1.729-3.4585,3.4823-7.0019,4.675-9.2461,6.5826-9.8626.5031-.162,1.0342-.2414,1.6198-.2413,2.4647.0001,5.2614,1.4297,7.3033,2.4734,4.538,2.3316,6.7466,5.0351,10.4055,9.514,1.0026,1.2271,2.1388,2.6179,3.4178,4.1101,5.1508,6.0167,8.6301,9.0583,11.995,11.9998,3.58,3.1294,6.9612,6.0852,12.4075,12.8905,6.7756,8.4646,6.9661,10.6842,7.0919,12.1531.4447,5.2094-2.1117,11.0322-6.0789,13.8432-1.8368,1.3002-3.191,1.4632-5.4347,1.7329-2.8927.3477-6.4926.7806-10.8864,3.8636-3.3357,2.3484-4.6953,4.5478-6.2697,7.0945-.8812,1.4253-1.8798,3.0408-3.5294,5.2263-3.479,4.6032-5.7899,6.3693-8.2366,8.2392-2.3569,1.8013-4.7941,3.6639-7.8026,7.5148-4.9978,6.4042-6.1649,11.3968-7.1025,15.4086-.7272,3.1108-1.1661,4.9885-3.2457,7.1071-3.3379,3.4097-7.4265,3.7592-19.8488,4.3508-1.8395.0876-3.8221.182-5.9658.2992-18.1033.9952-28.6864,2.5634-35.6893,3.6012-3.9124.5797-6.7391.9987-8.8679.9987-2.0662,0-3.6058-.3815-5.8837-1.458-3.8781-1.8306-4.7277-3.1743-7.8889-8.1741-2.8712-4.5413-7.2104-11.4041-16.4796-22.2958-11.6495-13.7059-21.7122-25.5448-38.0992-34.8477-7.3043-4.1467-11.5964-5.343-15.3833-6.3986-3.6431-1.0154-7.0842-1.9746-13.6649-5.8356-7.2753-4.2664-29.4117-17.2474-29.7012-33.2478-.0415-2.1785.2913-2.9232,1.3939-5.3906,1.0964-2.4532,2.7531-6.1605,4.5688-12.9832,2.4949-9.3995,3.4282-17.4752,3.7721-22.5953.7186-10.7001-.6194-12.7511-1.1908-13.6268-.8234-1.2622-2.1283-2.1165-3.58-2.3438l-.3843-.0601-.4092-.0015c-3.9823,0-5.2302,3.8846-5.7,5.3469-.4266,1.3278-.9178,3.1434-1.5396,5.4422-1.3839,5.1159-3.4753,12.8472-6.6433,21.6251-1.4944,4.1594-2.3949,6.6658-3.9418,10.1272-1.3323,2.9842-2.2498,4.6945-2.9871,6.0687-1.0283,1.9166-1.8405,3.4305-2.4323,6.1313-1.7426,7.8295.6624,14.6176,1.6893,17.5164,2.1774,6.1398,5.4077,10.0922,8.0034,13.268,2.3369,2.8785,3.976,4.3406,5.7113,5.8883,1.4611,1.3032,3.1171,2.7802,5.7264,5.59,3.8705,4.1566,6.6636,7.1564,6.8959,8.6141.1475.9307-.395,2.1273-3.5099,8.4299-.6342,1.283-1.3557,2.7433-2.1742,4.4175-5.8521,12.0035-6.5167,14.0961-6.6251,17.1909-.1533,4.2864.9531,6.7867,1.9293,8.9927.7521,1.6996,1.4016,3.1677,1.6569,6.0703.5702,6.3392-.9794,10.4808-2.3794,12.8408-3.4342,5.7737-10.048,7.7927-13.9996,8.999-4.1112,1.2589-8.484,1.8965-13.0006,1.8965-5.7482,0-10.4868-1.0021-13.6224-1.6653-1.814-.3837-3.0125-.6371-4.1104-.6371-3.1147,0-4.8052,2.0581-5.3062,3.8207-.2705.9322-.5125,2.8373.9884,4.8353,2.6517,3.5302,14.464,9.8362,28.5616,9.8362,1.2494,0,2.5087-.0507,3.7427-.1506,15.6671-1.269,24.9391-8.5906,29.9596-14.5093,5.8765-6.9115,9.0243-14.2877,9.3524-21.9196.2065-4.6134-.7114-7.5874-1.5212-10.2113-.7327-2.3741-1.3115-4.2493-1.0403-7.6226.4507-5.6082,2.2094-10.0111,5.2275-13.0916,4.1962-4.2835,10.2124-5.1825,14.5205-5.1823,2.7499.0001,4.8787.3628,5.5782.482,3.0649.5193,10.0939,6.925,19.8221,15.7909l3.1838,2.8993c7.3947,6.7188,8.6713,8.3528,9.8951,10.2457,1.7732,2.7535,2.3955,4.5568,3.1833,6.84.9373,2.7163,1.9998,5.7952,4.9589,10.4767,1.6113,2.5591,2.9142,4.2088,3.9609,5.5344,1.4242,1.8034,2.0137,2.5497,2.6346,4.5301,1.418,4.4728.6566,8.4557.3699,9.9552-.6958,3.7508-3.2484,8.2524-7.5923,13.4067-5.9137,7.0299-11.8392,11.1698-18.7003,15.9634l-.1003.0701c-8.4701,5.9143-13.1357,9.1722-20.3961,12.192-8.339,3.4753-15.6982,4.8417-23.4895,6.2881-5.6368,1.0496-9.202,1.4226-11.8052,1.6948-4.204.4399-6.7416.7053-10.6102,3.1044-4.371,2.7094-8.1842,8.1994-15.7815,19.1368-3.1986,4.5905-4.8474,7.1414-6.0515,9.004-1.2295,1.9022-1.8467,2.8569-3.1895,4.5389-4.5551,5.7084-9.7559,10.1923-17.9521,15.4774-15.3075,9.8752-30.7456,16.0721-39.9696,19.7746-2.9523,1.1851-5.2843,2.121-6.9653,2.9109-1.5222.7153-6.1547,2.892-4.9747,7.4339,1.1106,4.3669,6.0995,4.3669,7.9777,4.3669,6.2899,0,21.5179-2.2205,37.6906-8.3376l.0533-.0201c10.067-3.815,21.4773-8.1389,32.8807-18.1727,8.8734-7.8038,12.6525-14.5782,15.9867-20.5552,3.4225-6.1351,6.1256-10.981,13.9988-15.8976,3.0299-1.8945,10.1199-6.3276,18.3219-6.3273,1.8286.0001,3.6346.2255,5.3682.6698,3.4135.8715,9.5117,3.1226,12.0536,8.4197,3.2634,6.8133-1.146,15.5272-3.7806,20.7336-2.261,4.4536-4.2139,6.4658-6.2814,8.5963-2.3665,2.4385-5.0486,5.2021-7.6139,10.9344-4.5504,10.1493-4.3789,19.5698-4.2654,25.8035.1149,6.6311,1.0526,10.4536,1.9595,14.1501.785,3.199,1.5262,6.2207,1.881,11.4849.4105,6.0446,1.0305,15.1752-1.9886,23.1669-4.5004,11.9262-15.6486,17.9862-22.3093,21.6069-1.6295.8857-2.9167,1.5854-3.9246,2.2747-4.3618,2.983-3.2122,6.5123-2.7559,7.5228,1.6617,3.6591,6.0303,3.6591,7.4659,3.6591,8.1724,0,24.1414-4.5652,34.6396-17.1425,8.7697-10.5145,10.4386-22.9103,11.0668-27.5768,1.1696-8.6308.2139-15.3945-1.5212-27.6735l-.0132-.0931c-.932-6.5965-1.8175-10.5922-2.464-13.5096-.8364-3.7742-1.089-4.9135-.6154-7.7464,1.0051-6.0219,3.9969-10.5409,9.9576-19.5443,3.1295-4.7252,5.1187-7.0726,6.8735-9.1438,1.5469-1.8255,3.0079-3.5497,4.6959-6.2701,4.2529-6.8503,4.5386-11.8759,4.8409-17.1966.2286-4.0219.4877-8.5805,2.5789-15.3674l.0209-.0679c1.9221-6.2227,4.1006-13.2755,9.7906-20.1861,2.4517-2.9825,3.9329-4.0209,11.3885-9.036,2.1884-1.4721,4.9119-3.3041,8.2585-5.5981,7.7893-5.3367,12.6266-8.8406,15.8275-11.1591,5.2681-3.816,5.7219-4.121,8.0104-4.7806,3.5679-1.038,7.8269-1.6313,11.6971-1.631,4.386.0002,12.2617.7764,15.7291,5.9721,3.4795,5.2043,1.376,13.458-.4152,17.5151-1.4812,3.3928-3.2029,5.1147-13.2598,14.3091-9.2126,8.4269-13.397,12.198-15.4077,14.0103-1.8932,1.7062-2.0911,1.8846-2.6869,2.5473-13.9819,15.4906-16.1248,36.65-14.6207,42.4578.7539,2.9111,2.642,3.9534,3.7003,4.3156.5491.1878,1.1207.283,1.6998.283,3.9409,0,5.2157-3.3906,6.5651-6.9802,2.1532-5.7272,6.161-16.3875,16.4755-25.0312,2.6299-2.2021,4.6562-3.4269,7.2218-4.9777,3.3503-2.025,7.5199-4.5452,14.1925-10.0328,7.702-6.3387,12.3501-10.164,15.7482-16.2993,3.5245-6.3506,3.7617-11.1486,3.9523-15.0038.16-3.2391.2756-5.5795,2.1473-8.8622,4.119-7.2181,13.0917-12.2491,18.5675-12.2489,1.2544,0,1.8323.276,2.0225.3947.0399.0249.0575.0403.0575.0406.1598.2079.4683,1.1789.6935,1.888.7798,2.4546,1.958,6.1641,5.6703,10.7466.6173.775,1.2125,1.4285,2.8562,2.9603l.0183.0171.0186.0169c1.5072,1.3767,3.7614,3.3761,6.8912,6.1125,5.5233,4.8374,7.7151,6.6865,8.7684,7.5751.7231.6101.7385.6256.927.8162,6.6978,6.8367,6.3666,18.4982,6.2074,24.1025-.3348,12.0757-5.2947,20.7047-9.28,27.6382l-.0349.0607c-3.3158,5.75-7.074,12.2672-14.6395,17.689-6.3075,4.5236-12.5671,6.2917-17.5966,7.7123-6.0645,1.717-9.3339,1.8482-12.4956,1.975-3.1777.1276-6.4636.2595-11.4634,1.9222-4.2848,1.4218-18.9143,7.164-27.1265,21.3148-3.832,6.6111-4.3555,11.8143-4.7759,15.9951-.3939,3.915-.6317,6.2781-3.2457,9.309-2.6458,3.0719-5.0597,3.7242-8.7137,4.7118-3.6385.9833-8.167,2.207-12.9543,6.2892-14.1707,12.0961-13.8766,34.8659-12.1804,41.3519.7318,2.7987,2.2445,4.4433,4.4956,4.8879l.4799.0948.5208.0032c4.3853,0,5.2606-4.1243,5.8397-6.8535,1.0226-4.8189,2.926-13.7886,10.4418-20.3674,3.4108-2.9862,5.9755-3.7141,8.9452-4.557,3.4703-.985,7.4039-2.1013,11.886-6.3607,7.465-7.0981,9.2612-16.0554,10.5726-22.5958.4648-2.3179,1.1594-5.7819,1.8661-6.6455.0118-.0005.0249-.0009.0396-.0009,1.3243.0001,3.8893,1.9011,4.798,3.9197,1.4326,3.1816-1.5621,8.2892-3.5437,11.6688-2.0846,3.5615-3.7458,5.0271-5.5045,6.5787-1.7446,1.5392-3.722,3.2839-5.3884,6.5231-5.5941,10.8488-.6401,24.3228,3.1694,30.5734,1.6014,2.6278,3.5078,5.0596,6.5856,5.0596.4001,0,.8-.046,1.1884-.1367,2.0538-.4896,4.3258-2.3761,4.0441-6.0987-.0564-.7445-.1956-1.5552-.3718-2.5817-.6967-4.0587-1.8628-10.8517,1.7001-16.4105.8981-1.405,1.5116-1.8663,2.734-2.7858,1.5039-1.1309,3.5635-2.68,6.207-6.1105,2.5966-3.3685,7.1726-10.4348,8.6405-19.9061.7366-4.7306.3214-7.6515-.0449-10.2285-.3381-2.3788-.6052-4.2576.0304-7.923.7638-4.4208,1.5531-8.9889,3.9996-10.6393.5776-.3898.9719-.4635,1.4974-.4635.8693.0001,2.0728.2543,3.4663.5488,2.2883.4834,5.1364,1.0851,8.7366,1.0851,1.611,0,3.2655-.1243,4.9178-.3698,7.5367-1.1233,14.8126-4.59,21.6281-10.3043,4.3544-3.6458,6.6832-7.0109,8.2241-9.2377.467-.6747,1.0288-1.4866,1.3777-1.8777,2.4431.3849,8.2362,6.9166,9.0063,15.3962.2877,3.1125-.3107,4.4383-1.6218,7.3433-1.1115,2.4626-2.4948,5.5274-3.6293,10.4136-3.1437,13.551-.6887,25.3826,3.0273,43.2919l.0175.0847c.7479,3.6157,1.3978,6.2179,1.92,8.3088.9016,3.6101,1.4459,5.7892,1.824,10.1932.6383,7.436,1.1895,13.8581-1.277,20.8993-3.4696,9.9266-11.0989,15.6732-16.6696,19.8692-5.5872,4.2086-9.1685,5.5731-12.9602,7.0178-3.1074,1.184-6.3209,2.4082-10.4399,5.0075-21.4696,13.5356-27.9998,39.2347-27.8307,44.9254.0919,3.0941,1.799,4.488,2.8083,5.0435.7672.4197,1.6217.638,2.4828.638,3.3464,0,4.7125-2.5453,6.4418-5.7678,3.1614-5.8912,9.74-18.1499,23.4188-25.4841,2.7832-1.4938,4.9298-2.2905,7.4152-3.2128,3.6671-1.3608,7.8235-2.9033,14.2979-6.8987,4.9376-3.0407,12.405-7.6395,19.6146-16.3972,2.7559-3.3392,8.4988-10.2975,11.6611-20.8986,3.126-10.5207,2.2426-19.5206,1.7147-24.8978-.2063-2.0873-.4818-4.0315-.7882-5.8189,2.7977,2.4441,6.2507,4.9399,10.493,6.9825,8.2023,3.9574,16.202,4.7087,20.0465,5.0698,1.9313.18,3.6826.2657,5.3927.2657,3.5923,0,6.1127-.3831,8.1381-.691,1.191-.181,2.1318-.324,2.9158-.324.538,0,1.1741.0534,2.1793.4405,7.1268,2.7557,12.7587,14.0724,10.7542,21.6205-.803,3.0185-2.505,4.4583-5.6951,6.9479-3.6705,2.8647-8.2388,6.4299-11.0291,14.0702-3.5715,9.7872-1.5571,18.762-.0386,23.2407,5.021,14.6091,19.288,23.5382,25.3854,23.5382,2.1628,0,3.5398-.912,4.3141-1.6771.7775-.7617,3.1375-3.6405.2261-8.0805-.7142-1.0892-1.7268-2.311-2.8992-3.7259-4.0945-4.9409-10.2819-12.4077-8.9381-19.9761.5775-3.2558,2.1627-4.9137,5.4071-8.062,3.6113-3.5044,8.1056-7.8657,11.2205-16.458,3.1228-8.601,3.6881-17.0323,1.6798-25.058-2.39-9.5828-8.5388-18.228-17.3129-24.3391-6.7938-4.759-13.2385-6.2848-23.9158-8.8126-6.0554-1.436-9.3296-1.7443-11.7205-1.9693-2.2449-.2114-3.4814-.3278-6.1604-1.2648-11.9951-4.2101-17.6096-10.9663-20.2084-15.8932-4.011-7.6035-3.3124-15.2206-2.5035-24.0405.5474-6.008,1.6807-9.7127,2.6804-12.9811,1.301-4.2528,2.5298-8.2698,1.9087-14.8925-.5929-6.4098-2.4158-9.6965-4.1786-12.8749-1.3022-2.3478-2.5322-4.5654-3.6324-8.6412-2.9553-10.9686-3.4474-30.1453,7.3132-38.0102,2.5627-1.8745,8.5876-2.3188,18.5692-3.0551l1.8309-.1354c3.3649-.2507,5.6759-.2853,7.6722-.2853.5201,0,1.026.0024,1.5287.0049.5123.0024,1.0215.0049,1.5387.0049,2.9464,0,5.7843-.0858,10.0577-.5047,9.9928-.9706,15.4998-1.5056,21.5143-4.2603,6.1974-2.8275,9.4967-6.2548,11.9056-8.7573,2.2224-2.3087,3.2064-3.2601,5.2656-3.6255.4802-.0846.9834-.128,1.4904-.128,6.1216.0002,12.4456,6.1647,14.8262,8.4853,8.8751,8.6322,13.2346,22.236,10.8521,33.8553-.6285,3.0641-1.4399,4.5993-2.5627,6.724-1.4866,2.8128-3.3365,6.3133-5.0667,13.6766-1.718,7.294-3.6659,15.564-.6616,24.8873,1.4159,4.3928,3.1841,6.5406,4.6049,8.2665,1.1725,1.4241,2.0985,2.549,3.1011,5.3795,2.411,6.8221,1.4987,13.281.5326,20.1193-.6293,4.4419-1.3473,6.605-2.0417,8.6971-.7302,2.2-1.4854,4.4749-1.8199,8.4328-.7238,8.5492,1.036,17.4068,5.089,25.6151,8.7343,17.6546,28.0361,26.7568,34.3501,26.7568,2.7188,0,4.1666-1.4035,4.7877-2.2402.4735-.6408,2.6146-3.9785-1.0811-7.6581-.7018-.6988-1.6149-1.4502-2.7709-2.4016-4.854-3.9947-13.889-11.4305-17.58-23.8454-.9634-3.2259-3.8893-13.0255-.7662-23.6331.7156-2.4186,1.4767-3.9711,2.2825-5.6149,1.2185-2.4858,2.4786-5.0562,3.2188-9.7003.5989-3.7165,1.0028-10.112-2.4041-22.5936-2.3674-8.6801-4.5189-12.7201-6.09-15.67-1.1816-2.2184-1.8324-3.4405-2.2196-6.0087-.9185-6.1248,1.2084-9.574,4.4276-14.7948,3.0753-4.9874,6.9027-11.1943,7.8638-20.876,1.0557-10.6766-1.8981-19.4146-4.3412-25.6401,4.5468,3.2014,11.0714,7.5807,19.9739,11.1306,7.2599,2.8846,15.0929,4.1113,30.6981,6.5554,13.1355,2.0559,20.826,2.7128,25.915,3.1475,6.3643.5436,8.2852.7077,12.6312,2.6698,13.5427,6.1025,21.3612,16.9965,25.5616,22.8492,4.6624,6.5027,6.067,10.4899,7.5541,14.7113,1.526,4.332,3.1039,8.8114,7.7579,15.3514,12.4059,17.4208,29.774,21.5828,36.3124,23.1497.6873.1647,1.5422.3696,1.7922.4566,9.1067,3.3469,12.9036,3.8499,20.4685,4.8516,4.8416.6412,11.4722,1.5193,22.4773,3.541,4.0383.7406,7.9158,1.3777,11.6653,1.9939,10.1484,1.6675,18.9128,3.1077,23.8076,5.493,18.5129,9.0237,25.7617,27.7395,29.6558,37.7944,2.1758,5.6175,3.6133,9.3287,7.8503,9.3287.7559,0,1.4917-.1549,2.1868-.4606,2.0837-.9189,3.3494-2.8793,3.7668-5.8286.6138-4.3384-.3284-13.0016-3.8169-22.5756-2.9004-7.96-8.5798-19.3067-19.1648-28.1586-12.957-10.8315-28.9131-14.3514-42.9907-17.457-6.6804-1.472-11.2393-1.985-15.2615-2.4376-5.0491-.5682-9.4097-1.059-17.0901-3.3083-20.6125-6.0054-25.6794-10.5037-26.8083-11.8663,1.6296-1.6232,7.5845-4.2582,14.9338-5.405,1.855-.2906,3.5957-.4316,5.3245-.4316,4.7917,0,9.1448,1.1227,14.6558,2.5438,3.9724,1.0244,8.4749,2.1854,14.115,3.1987,5.8325,1.0505,14.5952,2.6286,23.6255,2.6286,3.0398,0,5.9224-.1838,8.5669-.546,30.3491-4.1634,50.2908-34.1378,52.9294-41.8167.6296-1.8327.9678-4.4406-.9973-6.4568-.9775-1.0021-2.2859-1.5531-3.6858-1.5531-2.7581,0-4.1262,1.6688-6.8521,4.9934-5.0071,6.1074-16.7329,20.4095-33.9089,24.048-3.4587.733-6.7349,1.0893-10.0159,1.0893-5.499,0-9.9192-1.0232-13.8191-1.9258-1.6318-.3777-3.1733-.7346-4.679-.991-6.7871-1.1511-10.8774-1.626-15.6135-2.1759-4.1821-.4857-8.9224-1.0361-16.6646-2.1813-3.3792-.5005-6.7236-.7544-9.9395-.7544-10.1946,0-16.9177,2.5367-19.7888,3.62-.2971.1121-.6606.2493-.8196.3022-1.5757.364-3.0259.55-4.2969.55-2.9138,0-4.6609-.9608-6.8728-2.1772-1.9075-1.049-4.0693-2.2379-6.922-2.7313-2.38-.4135-3.6455-2.5967-6.6543-8.7302-2.3914-4.8747-5.3674-10.9415-10.726-17.6293-9.2561-11.5631-22.04-20.4411-36.9684-25.6724-7.1853-2.5098-11.0027-2.6185-16.7812-2.783-4.3149-.1228-9.6849-.2756-18.9496-1.4955-22.0712-2.9041-38.0178-5.0023-43.9041-12.3809-.5322-.6597-.962-1.3157-1.3318-2.0273-1.286-2.4726-3.5665-4.1602-5.981-5.9467-4.6614-3.4492-9.4814-7.0159-8.5416-16.2623.8683-8.5781,11.2748-14.7083,15.1923-17.0161,1.2531-.7381,1.8821-1.1087,2.4855-1.7006,1.403-1.3718,3.7811-2.0704,7.0623-2.0701,7.3009.0004,17.0432,3.4896,23.49,5.7983,12.1357,4.3327,18.4583,8.1589,23.5386,11.2335,6.1693,3.7335,11.0421,6.6826,21.115,6.8883l.1549.0015c2.6895,0,5.525-1.3024,10.6724-3.6671l.7598-.3488c6.0081-2.756,13.2653-5.9637,23.3801-9.1564,6.0518-1.9089,10.9015-2.837,14.825-2.837,3.1194,0,5.1163.602,7.0476,1.1841,1.5646.4716,3.1824.9594,5.1029,1.067,13.1588.7429,20.7806,16.3271,23.65,22.194.771,1.576,1.1956,2.4442,1.731,3.1625,5.6975,7.6695,8.3474,10.0485,10.9099,12.3491,2.1335,1.9154,4.1487,3.7245,8.5166,9.4763,8.199,10.7836,24.0132,19.1899,45.7344,24.3124,8.6233,2.035,17.0652,3.0671,25.0908,3.0671,8.7483,0,20.2639-1.4142,23.9272-5.4,1.1194-1.218,1.6636-2.7466,1.5317-4.3043-.1519-1.8911-1.5017-4.3285-4.801-4.9069-.7073-.124-1.5298-.1769-2.7498-.1769-.7681,0-1.6914.0212-2.7581.0463-1.4014.033-2.9897.0704-4.8096.0704-11.5146,0-22.0249-1.7089-32.1309-5.2245-7.6016-2.6354-22.0632-9.0928-33.5691-22.7492-4.6533-5.5265-11.0278-13.0968-9.2388-19.1515,1.0303-3.4835,4.7297-6.7139,10.416-9.0948,3.2578-1.3753,5.7664-1.56,7.7925-1.56.9744,0,1.9143.0485,2.9097.0997.9822.0507,1.9978.1031,3.0315.1031,2.8264,0,6.5925-.3586,10.6587-3.1552,4.2693-2.9467,5.738-6.4,6.8103-8.9214.8977-2.1107,1.3484-3.1702,3.1497-4.2574,1.5925-.9618,3.4319-1.4093,5.791-1.4093,3.4277,0,7.5452.9651,11.9045,1.9872,5.2061,1.2224,8.0002,2.515,11.5378,4.1516,2.5144,1.1633,5.3645,2.4818,9.4036,3.9127,5.7402,2.0218,16.696,5.3871,26.0771,5.3871h.1201c9.7622-.0294,19.9104-3.8485,29.3447-11.0446,10.4436-7.947,19.1047-19.472,19.5835-24.0814.1589-1.5295-.283-2.984-1.2446-4.0955-.9907-1.1375-2.4128-1.7827-3.9128-1.7827-2.2881,0-3.6992,1.2478-6.2612,3.5129-5.2124,4.6088-16.0588,14.1992-31.8301,15.57-1.2336.1078-2.4827.1624-3.7151.1624-8.3171,0-16.0232-2.4821-24.946-5.3562-8.1416-2.624-13.0959-5.1557-17.467-7.3895-5.926-3.0282-11.0439-5.6434-20.4219-6.4281-1.9631-.1648-4.6489-.3904-7.5989-.3904-9.8149,0-17.2236,2.6307-22.0198,7.8189-2.4878,2.6895-3.613,5.3166-4.5173,7.4276-.9644,2.2513-1.2854,2.8257-2.2283,3.3001-.5339.2684-.895.3047-1.1775.3047-.7927,0-1.8892-.3411-3.1587-.736-2.0376-.6338-4.5732-1.4225-7.7373-1.4225-1.3528,0-2.7314.1484-4.0974.4413-5.8779,1.2635-9.0684,4.6234-11.3979,7.0767-1.9297,2.0323-2.8533,2.9398-4.5242,3.1521-.2144.0274-.4104.0405-.6035.0405-1.7019,0-3.3259-1.2155-6.2859-3.5448-2.0208-1.5905-4.3115-3.3931-7.304-5.1545-7.7825-4.5844-17.0219-6.9093-27.4598-6.9093-6.0436,0-10.9872.7865-13.6431,1.2089-10.3811,1.6561-16.4683,5.3442-21.3593,8.3078-4.7517,2.879-8.1848,4.9592-14.537,4.9592-.3098,0-.6267-.0049-.9493-.0152-6.3522-.1976-11.4128-2.5641-22.501-7.7488l-.049-.0229c-8.9077-4.1674-12.7754-7.1234-16.5157-9.9822-3.694-2.8232-7.1829-5.4897-14.3241-8.456-4.1412-1.7186-8.5139-2.5538-13.3698-2.5538-4.8282,0-9.3394.8076-13.7018,1.5887-3.7476.6708-7.2872,1.3046-10.5184,1.3046-3.2844,0-5.9097-.6733-8.2465-2.1172-1.9282-2.1456-3.8805-13.8387-3.1869-22.6839.4636-5.8543,12.5426-12.5639,23.934-13.291.6171-.0393,1.2271-.0592,1.8115-.0592,4.2411,0,6.8416,1.0153,9.8525,2.1908,3.0688,1.1981,6.5471,2.5561,11.4463,2.5561,1.2028,0,2.4658-.0834,3.7539-.2478,6.4718-.8275,9.6561-3.1773,16.6332-8.3259,3.4685-2.5597,8.2189-6.0651,15.1451-10.7255,13.6221-9.1618,19.9041-13.2805,26.0475-14.8921,4.0038-1.0494,8.0826-1.5597,12.4688-1.5595,5.6627.0001,10.9779.8446,16.1179,1.6613,8.4297,1.3405,12.0959,2.9565,15.3306,4.3822,3.3159,1.4615,6.4478,2.8421,12.5815,3.3992,1.5691.1413,3.1704.2128,4.7634.2128,20.5254,0,38.0532-11.6077,47.4697-17.8437,6.6543-4.396,10.1187-7.6562,12.6482-10.0368,2.8118-2.6462,4.3606-4.1039,8.8306-5.7954,4.8672-1.8354,10.2134-2.7669,15.885-2.7667,9.3625.0005,17.7258,2.5547,21.7451,3.7822,9.2893,2.8321,14.3777,6.2086,19.2986,9.4739,2.9121,1.9325,5.9236,3.9306,9.6108,5.6878,7.3218,3.4949,15.6709,5.2676,24.813,5.2676,17.9963,0,35.8826-6.8477,47.718-12.5923,11.0652-5.3708,22.5579-12.72,24.5942-15.7274,1.0017-1.4793,1.2087-3.2462.5684-4.8479-.7949-1.9454-2.6414-3.1799-4.7183-3.1799-1.5481,0-2.5593.5587-5.0029,1.9085-6.8389,3.7778-25.0054,13.8131-50.9995,14.2184-.314.0048-.6292.0072-.9438.0072-11.0469,0-21.7502-2.884-34.7048-9.3513-4.7761-2.3861-7.1892-3.8708-9.3179-5.1807-3.4084-2.0972-5.8713-3.6125-14.1926-6.6267-9.7256-3.5228-19.8958-4.2624-26.7148-4.2624-4.604,0-8.1619.3278-10.3354.6028-17.2063,2.1521-27.6292,9.0777-32.6384,12.4059-.5349.3555-.9934.6613-1.3779.9009-2.9878,1.8653-5.7354,3.6226-8.1592,5.1732-7.6357,4.884-14.23,9.102-16.894,9.102-.1421,0-.1951-.0173-.1956-.0174-8.5483-3.4957-11.6626-14.2085-12.7705-22.5802-1.4622-11.0671,1.7544-14.2823,4.5923-17.119,1.4568-1.4561,2.9631-2.9618,3.8052-5.1801,1.2468-3.265,3.5759-5.5182,23.2561-16.2887,8.7351-4.7781,14.6042-7.8163,18.8896-10.0347,7.8848-4.0817,10.5408-5.4566,14.7703-9.3371,4.272-3.9054,17.2935-15.8086,18.9658-32.8149,1.2085-12.3786-3.9565-25.3179-14.9365-37.4222-4.8582-5.3553-9.6855-9.2687-12.8796-11.6085-6.7961-4.9784-8.7771-4.9784-9.729-4.9784-1.2666,0-2.4795.4534-3.4146,1.2766-1.0535.9391-1.6714,2.2577-1.7197,3.6391-.0835,2.3849,1.1953,3.6969,3.314,5.8707,4.3745,4.4879,14.6187,14.9979,14.0737,28.2376-.6096,14.5662-4.9204,25.6992-6.5176,27.6251-5.4526,4.6235-10.4302,7.8831-34.0461,19.1262-6.0852,2.896-11.3779,5.2543-15.6306,7.1493-8.7288,3.8895-12.7126,5.6647-14.6257,7.9241-15.6848,18.4424-12.5247,35.4562-10.4335,46.7147,1.8723,10.0795,1.8544,12.4677-2.9373,14.4721-.1919.0089-.5001.0174-.974.0174-1.4362,0-3.5981-.0773-6.1014-.1668-3.9788-.1421-8.9304-.3192-14.2711-.3192-4.1527,0-7.8524.1055-11.3102.3224-15.7201.9999-31.3201,9.6956-40.6791,17.5002-6.5247,5.4297-14.2333,8.0707-23.5621,8.0707-3.6812,0-6.9497-.4185-9.3363-.724-.9158-.1172-1.7261-.2209-2.4453-.2883-.1534-1.3682.1556-4.1438.3711-6.0778.4203-3.7733.8967-8.0501.2094-12.2485-1.9086-11.77,2.3407-21.2127,5.7552-28.8001,7.2227-16.0267,18.8094-26.6073,25.0734-31.4878,4.854-3.79,8.187-5.5447,11.1274-7.0928,4.078-2.1471,7.6-4.0013,12.1174-9.4806,9.5452-11.5578,11.4216-24.5842,12.3234-30.8445l.0077-.0533c1.2007-8.4256,3.0117-21.1345-3.683-32.7929-3.5403-6.1755-7.4747-8.6395-11.2797-11.0223-2.311-1.4473-4.494-2.8145-6.9089-5.1913-10.975-10.8199-11.2004-27.7799-11.3352-37.9131-.0371-2.7953-.0664-5.0032-.2909-6.7932-.6926-5.5239-3.8722-6.6425-5.7061-6.8177-.1969-.018-.3726-.0261-.553-.0261-2.135,0-4.089,1.0976-5.8079,3.2625-5.012,6.3119-9.9285,23.7638-6.1241,40.1141,1.9785,8.5262,6.3904,17.368,13.1121,26.2768,3.6249,4.7967,6.4226,7.3645,8.4653,9.2394,2.1792,2.0001,3.1738,2.9129,4.1752,5.4356,4.4302,11.1684,1.8262,20.3072.9099,22.0656-.8718,1.3566-1.6909,2.7787-2.4833,4.1548-2.8435,4.9372-5.7837,10.0424-12.5135,14.8447-8.2842,5.9011-12.2311,9.9121-15.7134,13.451-1.9738,2.0058-3.6783,3.7379-6.0015,5.6414-10.5352,8.6319-17.5625,19.5841-20.8865,32.5522-.0625.2439-.1118.4402-.153.5841-3.4264,11.8571-15.3182,45.0637-28.9556,55.9772-3.4476,2.7563-17.6782,10.4235-20.8234,11.786-6.2739,2.7195-12.1257,3.2902-15.9304,3.2902l-.4135-.0021c-7.0322-.0742-11.2737-1.8845-21.5208-6.2581-1.8798-.8022-3.936-1.6799-6.2183-2.6346-13.0104-5.4427-19.1976-7.4671-22.8945-8.6766-3.5002-1.1452-4.2286-1.3835-6.8635-3.1754-10.743-7.3111-21.7257-18.3354-20.3397-27.3562.2562-1.6497,3.3912-5.5829,24.6919-22.1858,5.3708-4.1835,9.4264-7.2549,12.6852-9.7228,8.8385-6.6935,11.506-8.7137,14.9697-13.9851,4.3729-6.6628,5.7053-11.8452,6.7759-16.0093,1.0437-4.0601,1.6187-6.2966,4.5465-8.7892,3.6041-3.0748,6.7831-3.0991,12.05-3.1392,4.5267-.0345,10.1605-.0774,16.991-2.4688,25.4542-8.9107,36.5554-38.9845,37.0116-42.116.2866-1.9662-.4701-3.8109-2.0239-4.9347l-1.3114-.9483-1.6306-.0035c-2.4889,0-3.5859,1.3566-5.4034,3.6042-1.6453,2.0346-5.069,6.2682-11.2644,13.2507-3.218,3.619-5.7986,6.4358-9.6853,9.6995-4.4983,3.7702-7.0762,5.0781-9.5618,5.8812-1.114.36-2.6752.8645-3.9308,1.0642.2114-1.158.7657-2.9377,1.7791-4.9887.8446-1.7005,1.5214-2.3821,2.458-3.3254,1.0422-1.0497,2.3394-2.356,3.5962-4.6975,4.8599-9.0237,1.3726-19.0046.959-20.1129-4.0752-10.9869-14.5587-15.8697-17.855-15.8697-1.5347,0-2.9694.6598-3.9365,1.8101-1.4896,1.8005-1.7953,4.7661.4535,7.01.2495.2488.5115.4776.8431.7672,1.2914,1.1276,3.9788,3.4742,5.8326,7.4316.9196,1.9582,2.1764,4.6346,1.6558,7.55-.3254,1.8165-1.2639,3.145-4.1816,7.0701-1.5731,2.1175-2.4932,3.0235-3.3048,3.8228-1.0581,1.042-2.1522,2.1195-3.3065,4.4359-1.6218,3.2699-1.8435,5.8554-1.99,7.5662-.1132,1.3188-.1429,1.352-.3087,1.5359-.1636.1814-.2076.2303-1.6603.5973-1.1746.2968-2.7834.7034-4.7697,1.5568-5.3459,2.2998-8.5078,5.7197-11.5653,9.0269-5.0717,5.484-7.1829,10.6879-9.0457,15.2793-.8265,2.0373-1.6073,3.9616-2.616,5.8905-2.5542,4.8934-4.5646,6.1619-9.4215,9.2261-4.7719,3.0108-11.3074,7.1341-21.4292,16.6841-2.1692,2.0485-3.9559,3.8293-5.5321,5.4005-5.3672,5.3495-7.0811,6.9229-10.8236,7.6213-.9896.1847-2.0189.2784-3.0593.2784-5.5144,0-10.3112-2.5932-12.1176-3.7081-4.6311-2.8301-7.8281-6.5615-9.5211-11.1019-2.6335-7.0824-1.6104-11.4805-.2882-13.9224,1.0784-1.9876,2.1663-2.5292,5.4426-3.9406,3.0087-1.2962,7.1294-3.0714,12.0835-7.1827,8.0945-6.7248,12.347-14.6355,15.1611-19.8702,1.4733-2.7307,1.985-4.0811,3.6808-8.5555.8386-2.2126,1.9871-5.243,3.7234-9.6949,6.3535-16.28,8.11-19.5923,9.4513-20.5323,1.4415-1.0085,2.2008-1.1135,4.455-1.4253,2.7672-.3827,6.5569-.9068,12.9237-3.4714,6.2961-2.5374,10.8447-4.3705,14.8052-8.8432,4.1948-4.731,4.8087-9.1347,5.302-12.6731.3175-2.2763.5468-3.9209,1.6312-5.6089,4.1616-6.4769,16.6316-6.9208,24.0822-7.186,2.0508-.0731,3.8219-.1361,5.2079-.3113,5.4275-.686,6.1637-4.1034,6.2283-5.5409.0624-1.5361-.5096-3.0012-1.6099-4.1469-3.5311-3.6774-14.4823-4.4827-18.4039-4.4827-.2406,0-.4814.0019-.7211.0056-4.9496.0747-12.4363.1877-19.7982,5.3168-5.5782,3.8898-8.3268,9.7874-11.2367,16.0314l-.5928,1.2698c-.6686,1.4258-1.1418,2.556-1.5221,3.4641-.7384,1.7633-1.0441,2.4932-2.0223,3.7387-1.996,2.5448-4.4138,4.3652-5.7889,4.9535-.6033-1.2378-1.514-3.0936-3.2563-5.4875-1.9386-2.6542-3.4109-3.94-4.5938-4.9732-.6896-.6022-1.145-1-1.6376-1.631-3.4813-4.4359-2.1713-11.6909-1.7408-14.075.4772-2.7169,2.478-11.7112,8.3679-14.3717,1.0332-.4659,1.6312-.4996,2.4932-.4996.2196,0,.4397.0034.6626.0067.2782.004.5602.008.8495.008,1.9114,0,4.3129-.1713,7.6333-1.4419,4.4-1.6898,6.5482-3.8046,8.2744-5.504,1.2285-1.2095,2.0402-2.0086,3.7504-2.7075,1.5345-.6288,3.1857-.9337,5.0522-.9337,2.4955,0,4.8192.5475,6.6865.9874,1.4504.3418,2.5961.6118,3.7441.6118,2.9878,0,4.7281-1.8469,5.3608-3.5754.5198-1.3979.4307-2.9701-.2599-4.4031-1.8171-3.7704-8.4666-6.788-11.7288-7.8568-1.7386-.5731-5.3735-1.7708-9.4967-1.7708-3.2279,0-6.1659.7246-8.7325,2.1538-3.5593,1.9749-5.0306,4.5241-6.1049,6.3854-.8518,1.4758-1.0885,1.8398-2.0273,2.2481-.4974.2173-.7404.2344-1.007.2344-.285,0-.6555-.0314-1.0848-.0676-.6372-.054-1.4302-.1211-2.3643-.1211-1.7198,0-3.468.2345-5.3441.7167-5.5033,1.4195-9.2194,4.2261-10.6184,5.2826-2.8409,2.1228-6.8419,5.8867-9.6541,11.675-3.6896,7.5926-3.2421,14.5854-2.8824,20.2042l.0071.1099c.3905,5.9428.6263,9.5299,2.9752,13.8705.4951.9138.9775,1.6633,1.4033,2.3245.8981,1.3951,1.0461,1.7029,1.0549,2.1957.0076.3924-.1417.7513-1.0654,2.5672-.2429.4775-.5105,1.0038-.8015,1.5953-.8938,1.8125-1.6176,3.6282-2.3175,5.3841-.5042,1.2647-.9803,2.4593-1.5024,3.6142-2.4384,5.4002-3.7351,9.5453-4.9891,13.554-1.4778,4.724-2.754,8.8039-5.7528,14.4054-2.2637,4.2291-4.2183,7.8811-8.2194,11.6688-2.0475,1.9359-5.4781,5.1797-10.8414,7.0914-2.1064.7495-3.6429.9766-5.2698,1.2169-2.4506.362-5.2281.7724-9.0409,2.8353-1.0959.5925-2.0183,1.1784-2.7998,1.7274-.4113-3.1034-.6006-8.3159-.0543-15.6801.2021-2.6143.6786-8.7732,4.9703-25.701,1.7826-7.0195,3.0327-11.2322,4.0371-14.6172,1.3862-4.6718,2.3021-7.7581,3.2102-13.7754,1.6477-10.9048,2.7362-18.1095-.205-26.8507-1.3469-4.0087-2.9138-6.463-4.1729-8.4353-1.3446-2.1062-2.0853-3.2665-2.4146-5.9086-.7305-5.8679,1.8533-10.8589,4.5886-16.1431,1.3915-2.7022,5.0745-9.8547,12.7269-15.2393,3.5702-2.5105,5.7727-3.1074,8.3231-3.7986,2.6943-.7301,5.748-1.5578,9.7366-4.3784,12.3229-8.7105,16.5664-24.4706,16.1788-29.2734-.2325-2.8802-2.121-4.1009-2.9221-4.492l-1.0382-.5069-1.188-.0075h0Z" />
      </g>
      <g>
        <path class="cls-2"
          d="M420.4795,395.3076c-5.33,2.8701-11.6299,3.04-17.61,3.97-9.4301,1.48-14.2899,8.68-23.2899,11.85-8.1101,2.86-21.26,1.76-29.2001-1.54-7.0699-2.93-11.71-10.17-13.12-17.7-.64-3.41-.8201-6.83-.6-10.21,1.37-20.66,17.9301-39.7401,38.0599-44.23,16.1301-3.6,33.8901,1.72,45.6001,13.39.22.21.4299.43.6399.65,1.04,1.08,2.03,2.21,2.9601,3.39,4.25,5.4,7.23,11.81,7.67,18.62.5599,8.6-3.51,17.7401-11.1101,21.81Z" />
        <path class="cls-5"
          d="M384.9286,336.3358c13.0488-.0002,26.1169,5.2592,35.3911,14.5018.22.21.4299.43.6399.65,1.04,1.08,2.03,2.21,2.9601,3.39,4.25,5.4,7.23,11.81,7.67,18.62.5599,8.6-3.51,17.7401-11.1101,21.81-5.33,2.8701-11.6299,3.04-17.61,3.97-9.4301,1.48-14.2899,8.68-23.2899,11.85-3.2111,1.1324-7.2128,1.644-11.3678,1.644-6.3391,0-13.036-1.1906-17.8323-3.184-7.0699-2.93-11.71-10.17-13.12-17.7-.64-3.41-.8201-6.83-.6-10.21,1.37-20.66,17.9301-39.7401,38.0599-44.23,3.3552-.7488,6.7819-1.1117,10.209-1.1118M384.9295,333.3358h-.0001c-3.6891,0-7.344.3984-10.8633,1.1838-21.5754,4.8124-38.9438,25.0006-40.3999,46.9595-.2416,3.7087-.0245,7.3956.6449,10.9619,1.7197,9.1842,7.4369,16.8168,14.9199,19.918,5.1404,2.1364,12.2371,3.4126,18.981,3.4126,4.7229,0,8.9988-.6276,12.3655-1.8148,4.3041-1.516,7.6318-3.7977,10.8501-6.0042,3.8999-2.674,7.2679-4.9832,11.9071-5.7113,1.274-.1981,2.6121-.3667,3.906-.5297,4.9243-.6202,10.0162-1.2615,14.6613-3.7627,8.2546-4.4205,13.3533-14.3264,12.6814-24.6464-.4479-6.9318-3.3202-13.9452-8.3063-20.2805-.9734-1.235-2.035-2.4509-3.1566-3.6155-.2251-.2359-.4597-.4803-.7045-.7152-9.8041-9.7589-23.4656-15.3556-37.4865-15.3556h0Z" />
      </g>
      <path class="cls-1"
        d="M594.4794,468.6765c.1534-2.2591-1.423-4.5044-3.5745-4.8511-2.6238-.4227-5.2365,2.1177-5.1063,4.8511.1025,2.1524,1.9019,4.3416,4.3417,4.3404,2.4147-.0011,4.1902-2.1471,4.3391-4.3404Z" />
      <path class="cls-1"
        d="M488.7818,372.4674c-.7144-4.657-5.4343-8.1678-10.2126-7.6596-4.3489.4626-7.3342,4.1041-8.1702,7.6596-.0823.3501-1.3003,5.931,2.5532,9.1915,3.3647,2.8469,8.2573,1.9461,11.2339,0,2.5815-1.6879,5.217-5.1399,4.5957-9.1915Z" />
      <path class="cls-1"
        d="M642.2287,274.4249c2.5847-2.4617,2.1235-6.7832,0-9.1915-2.7688-3.1399-8.4858-3.1654-10.7292,0-1.925,2.7163-.7788,7.0576,2.0334,9.1915,2.3416,1.7766,6.2463,2.3328,8.6958,0Z" />
      <path class="cls-1"
        d="M334.098,255.5312c2.5847-2.4617,2.1235-6.7832,0-9.1915-2.7688-3.1399-8.4858-3.1654-10.7292,0-1.925,2.7163-.7788,7.0576,2.0334,9.1915,2.3416,1.7766,6.2463,2.3328,8.6958,0Z" />
      <path class="cls-1"
        d="M400.4415,310.6802c-.3899-6.2569-7.0066-10.4617-12.7659-10.2128-5.7065.2466-8.9771,4.7971-9.1917,5.1064-2.6616,3.8361-3.3943,9.8756,0,13.7872,3.6052,4.1547,9.5735,3.2668,10.7234,3.0638,5.0483-.891,11.6394-5.2426,11.2341-11.7447Z" />
      <path class="cls-1"
        d="M405.8121,434.8368c-.1949-3.1285-3.5033-5.2308-6.3829-5.1064-2.8533.1233-4.4885,2.3985-4.5958,2.5532-1.3308,1.918-1.6971,4.9378,0,6.8936,1.8026,2.0773,4.7867,1.6334,5.3617,1.5319,2.5242-.4455,5.8197-2.6213,5.6171-5.8723Z" />
      <path class="cls-1"
        d="M352.2237,574.9355c-.1949-3.1285-3.5033-5.2308-6.3829-5.1064-2.8533.1233-4.4885,2.3985-4.5958,2.5532-1.3308,1.918-1.6971,4.9378,0,6.8936,1.8026,2.0773,4.7867,1.6334,5.3617,1.5319,2.5242-.4455,5.8197-2.6213,5.6171-5.8723Z" />
      <path class="cls-1"
        d="M342.6247,508.4211c-.1949-3.1285-3.5033-5.2308-6.3829-5.1064-2.8533.1233-4.4885,2.3985-4.5958,2.5532-1.3308,1.918-1.6971,4.9378,0,6.8936,1.8026,2.0773,4.7867,1.6334,5.3617,1.5319,2.5242-.4455,5.8197-2.6213,5.6171-5.8723Z" />
      <path class="cls-1"
        d="M500.9922,288.2069c-.1949-3.1285-3.5033-5.2308-6.3829-5.1064-2.8533.1233-4.4885,2.3985-4.5958,2.5532-1.3308,1.918-1.6971,4.9378,0,6.8936,1.8026,2.0773,4.7867,1.6334,5.3617,1.5319,2.5242-.4455,5.8197-2.6213,5.6171-5.8723Z" />
      <path class="cls-1"
        d="M165.5028,456.6747c-.1949-3.1285-3.5033-5.2308-6.3829-5.1064-2.8533.1233-4.4885,2.3985-4.5958,2.5532-1.3308,1.918-1.6971,4.9378,0,6.8936,1.8026,2.0773,4.7867,1.6334,5.3617,1.5319,2.5242-.4455,5.8197-2.6213,5.6171-5.8723Z" />
      <path class="cls-1"
        d="M364.6968,443.9568c1.3108-3.1723-.812-8.0093-4.5957-10.2128-3.8127-2.2205-9.3921-1.8131-12.2554,2.0425-2.2261,2.9976-2.2454,7.3187,0,10.7234,7.9131,3.7625,15.2268,1.3777,16.8511-2.5532Z" />
      <path class="cls-1"
        d="M219.5798,401.8696c1.3108-3.1723-.812-8.0093-4.5957-10.2128-3.8127-2.2205-9.3921-1.8131-12.2554,2.0425-2.2261,2.9976-2.2454,7.3187,0,10.7234,7.9131,3.7625,15.2268,1.3777,16.8511-2.5532Z" />
      <path class="cls-1"
        d="M215.448,285.6796c.7136-1.7271-.4421-4.3606-2.5021-5.5602-2.0758-1.2089-5.1134-.9871-6.6723,1.112-1.212,1.632-1.2225,3.9846,0,5.8382,4.3082,2.0484,8.29.7501,9.1744-1.39Z" />
      <path class="cls-1"
        d="M320.7818,397.4887c2.7314-4.3516.644-11.1389-4.085-14.0168-3.0005-1.826-7.4084-2.2874-10.7234,0-4.5671,3.1514-5.3367,10.3315-2.0427,14.5274,4.0867,5.2058,13.5669,4.7214,16.8511-.5106Z" />
      <path class="cls-1"
        d="M341.7181,339.4646c-2.5063-2.7508-7.4041-2.6223-10.2129,0-3.1548,2.9453-3.1484,8.5457,0,11.0453,2.3599,1.8737,5.885,1.529,8.1704,0,3.4634-2.3172,4.9031-7.9059,2.0425-11.0453Z" />
      <path class="cls-1"
        d="M308.1983,116.074c-1.2532-1.3754-3.702-1.3112-5.1064,0-1.5774,1.4727-1.5742,4.2728,0,5.5227,1.1799.9368,2.9425.7645,4.0852,0,1.7317-1.1586,2.4515-3.9529,1.0212-5.5227Z" />
      <path class="cls-1"
        d="M563.3351,119.659c-1.2532-1.3754-3.702-1.3112-5.1064,0-1.5774,1.4727-1.5742,4.2728,0,5.5227,1.1799.9368,2.9425.7645,4.0852,0,1.7317-1.1586,2.4515-3.9529,1.0212-5.5227Z" />
      <path class="cls-1"
        d="M127.7607,311.7919c-2.5063-2.7508-7.4041-2.6223-10.2129,0-3.1548,2.9453-3.1484,8.5457,0,11.0453,2.3599,1.8737,5.885,1.529,8.1704,0,3.4634-2.3172,4.9031-7.9059,2.0425-11.0453Z" />
      <path class="cls-1"
        d="M456.6116,419.9568c3.5127-5.6391,1.7676-13.9929-3.5745-18.2897-6.6028-5.3109-16.5171-2.6677-21.3965,2.9706-3.2671,3.7752-5.7312,10.5739-2.6035,15.8298,3.6011,6.0516,12.0276,5.7092,14.2979,5.617,2.3352-.0948,9.7051-.3943,13.2766-6.1276Z" />
      <path class="cls-1"
        d="M452.3204,332.1052c.5884-1.4258-2.218-4.8035-4.2328-4.1469-1.2566.4095-2.2009,2.3871-1.7872,4.7038,3.0657.9435,5.5813.5063,6.02-.5568Z" />
    </g>
  </g>
</svg>
